JetBrains Mono-Extra Bold.ufo
<glyph name="numbersign" format="2">
	<advance width="600"/>
	<unicode hex="0023"/>
	<outline>
		<contour>
			<point x="70" y="0" type="line"/>
			<point x="175" y="0" type="line"/>
			<point x="204" y="170" type="line"/>
			<point x="329" y="170" type="line"/>
			<point x="300" y="0" type="line"/>
			<point x="405" y="0" type="line"/>
			<point x="434" y="170" type="line"/>
			<point x="550" y="170" type="line"/>
			<point x="550" y="270" type="line"/>
			<point x="451" y="270" type="line"/>
			<point x="484" y="460" type="line"/>
			<point x="580" y="460" type="line"/>
			<point x="580" y="560" type="line"/>
			<point x="501" y="560" type="line"/>
			<point x="530" y="730" type="line"/>
			<point x="425" y="730" type="line"/>
			<point x="396" y="560" type="line"/>
			<point x="271" y="560" type="line"/>
			<point x="300" y="730" type="line"/>
			<point x="195" y="730" type="line"/>
			<point x="166" y="560" type="line"/>
			<point x="50" y="560" type="line"/>
			<point x="50" y="460" type="line"/>
			<point x="149" y="460" type="line"/>
			<point x="116" y="270" type="line"/>
			<point x="20" y="270" type="line"/>
			<point x="20" y="170" type="line"/>
			<point x="99" y="170" type="line"/>
		</contour>
		<contour>
			<point x="221" y="270" type="line"/>
			<point x="254" y="460" type="line"/>
			<point x="379" y="460" type="line"/>
			<point x="346" y="270" type="line"/>
		</contour>
	</outline>
</glyph>
<glyph name="dollar" format="2">
	<advance width="600"/>
	<unicode hex="0024"/>
	<outline>
		<contour>
			<point x="300" y="-10" type="curve" smooth="yes"/>
			<point x="453" y="-10"/>
			<point x="553" y="77"/>
			<point x="553" y="206" type="curve" smooth="yes"/>
			<point x="553" y="324"/>
			<point x="485" y="402"/>
			<point x="356" y="432" type="curve" smooth="yes"/>
			<point x="278" y="450" type="line" smooth="yes"/>
			<point x="233" y="460"/>
			<point x="207" y="492"/>
			<point x="207" y="535" type="curve" smooth="yes"/>
			<point x="207" y="583"/>
			<point x="239" y="610"/>
			<point x="296" y="610" type="curve" smooth="yes"/>
			<point x="357" y="610"/>
			<point x="391" y="581"/>
			<point x="391" y="535" type="curve"/>
			<point x="541" y="535" type="line"/>
			<point x="541" y="660"/>
			<point x="447" y="740"/>
			<point x="298" y="740" type="curve" smooth="yes"/>
			<point x="150" y="740"/>
			<point x="57" y="657"/>
			<point x="57" y="529" type="curve" smooth="yes"/>
			<point x="57" y="414"/>
			<point x="129" y="331"/>
			<point x="253" y="302" type="curve" smooth="yes"/>
			<point x="327" y="285" type="line" smooth="yes"/>
			<point x="375" y="274"/>
			<point x="403" y="242"/>
			<point x="403" y="199" type="curve" smooth="yes"/>
			<point x="403" y="149"/>
			<point x="366" y="120"/>
			<point x="303" y="120" type="curve" smooth="yes"/>
			<point x="238" y="120"/>
			<point x="197" y="151"/>
			<point x="197" y="200" type="curve"/>
			<point x="47" y="200" type="line"/>
			<point x="47" y="72"/>
			<point x="146" y="-10"/>
		</contour>
		<contour>
			<point x="260" y="-140" type="line"/>
			<point x="325" y="-140" type="line"/>
			<point x="325" y="350" type="line"/>
			<point x="260" y="350" type="line"/>
		</contour>
		<contour>
			<point x="260" y="360" type="line"/>
			<point x="325" y="360" type="line"/>
			<point x="325" y="850" type="line"/>
			<point x="260" y="850" type="line"/>
		</contour>
	</outline>
</glyph>
<glyph name="percent" format="2">
	<advance width="600"/>
	<unicode hex="0025"/>
	<outline>
		<contour>
			<point x="-15" y="0" type="line"/>
			<point x="87" y="0" type="line"/>
			<point x="615" y="730" type="line"/>
			<point x="513" y="730" type="line"/>
		</contour>
		<contour>
			<point x="440" y="-5" type="curve" smooth="yes"/>
			<point x="527" y="-5"/>
			<point x="590" y="49"/>
			<point x="590" y="130" type="curve" smooth="yes"/>
			<point x="590" y="195" type="line" smooth="yes"/>
			<point x="590" y="276"/>
			<point x="527" y="330"/>
			<point x="440" y="330" type="curve" smooth="yes"/>
			<point x="353" y="330"/>
			<point x="290" y="276"/>
			<point x="290" y="195" type="curve" smooth="yes"/>
			<point x="290" y="130" type="line" smooth="yes"/>
			<point x="290" y="49"/>
			<point x="353" y="-5"/>
		</contour>
		<contour>
			<point x="440" y="79" type="curve" smooth="yes"/>
			<point x="407" y="79"/>
			<point x="389" y="94"/>
			<point x="389" y="130" type="curve" smooth="yes"/>
			<point x="389" y="195" type="line" smooth="yes"/>
			<point x="389" y="231"/>
			<point x="407" y="247"/>
			<point x="440" y="247" type="curve" smooth="yes"/>
			<point x="472" y="247"/>
			<point x="491" y="231"/>
			<point x="491" y="195" type="curve" smooth="yes"/>
			<point x="491" y="130" type="line" smooth="yes"/>
			<point x="491" y="94"/>
			<point x="473" y="79"/>
		</contour>
		<contour>
			<point x="160" y="400" type="curve" smooth="yes"/>
			<point x="244" y="400"/>
			<point x="310" y="451"/>
			<point x="310" y="535" type="curve" smooth="yes"/>
			<point x="310" y="600" type="line" smooth="yes"/>
			<point x="310" y="684"/>
			<point x="244" y="735"/>
			<point x="160" y="735" type="curve" smooth="yes"/>
			<point x="76" y="735"/>
			<point x="10" y="684"/>
			<point x="10" y="600" type="curve" smooth="yes"/>
			<point x="10" y="535" type="line" smooth="yes"/>
			<point x="10" y="451"/>
			<point x="76" y="400"/>
		</contour>
		<contour>
			<point x="160" y="483" type="curve" smooth="yes"/>
			<point x="127" y="483"/>
			<point x="109" y="499"/>
			<point x="109" y="535" type="curve" smooth="yes"/>
			<point x="109" y="600" type="line" smooth="yes"/>
			<point x="109" y="636"/>
			<point x="127" y="652"/>
			<point x="160" y="652" type="curve" smooth="yes"/>
			<point x="193" y="652"/>
			<point x="211" y="636"/>
			<point x="211" y="600" type="curve" smooth="yes"/>
			<point x="211" y="535" type="line" smooth="yes"/>
			<point x="211" y="499"/>
			<point x="193" y="483"/>
		</contour>
	</outline>
</glyph>
<glyph name="ampersand" format="2">
	<advance width="600"/>
	<unicode hex="0026"/>
	<outline>
		<contour>
			<point x="163" y="387" type="curve" smooth="yes"/>
			<point x="437" y="0" type="line"/>
			<point x="580" y="0" type="line"/>
			<point x="276" y="436" type="line" smooth="yes"/>
			<point x="245" y="480"/>
			<point x="225" y="518"/>
			<point x="225" y="550" type="curve" smooth="yes"/>
			<point x="225" y="592"/>
			<point x="253" y="620"/>
			<point x="295" y="620" type="curve" smooth="yes"/>
			<point x="337" y="620"/>
			<point x="365" y="592"/>
			<point x="365" y="550" type="curve"/>
			<point x="500" y="550" type="line"/>
			<point x="500" y="664"/>
			<point x="418" y="740"/>
			<point x="295" y="740" type="curve" smooth="yes"/>
			<point x="175" y="740"/>
			<point x="95" y="668"/>
			<point x="95" y="565" type="curve" smooth="yes"/>
			<point x="95" y="506"/>
			<point x="121" y="446"/>
		</contour>
		<contour>
			<point x="235" y="-10" type="curve" smooth="yes"/>
			<point x="337" y="-10"/>
			<point x="415" y="39"/>
			<point x="461" y="132" type="curve" smooth="yes"/>
			<point x="574" y="360" type="line"/>
			<point x="434" y="360" type="line"/>
			<point x="344" y="174" type="line" smooth="yes"/>
			<point x="324" y="133"/>
			<point x="290" y="110"/>
			<point x="249" y="110" type="curve" smooth="yes"/>
			<point x="204" y="110"/>
			<point x="174" y="140"/>
			<point x="174" y="195" type="curve" smooth="yes"/>
			<point x="174" y="265" type="line" smooth="yes"/>
			<point x="174" y="320"/>
			<point x="199" y="350"/>
			<point x="245" y="350" type="curve" smooth="yes"/>
			<point x="259" y="350" type="line"/>
			<point x="259" y="445" type="line"/>
			<point x="204" y="445" type="line" smooth="yes"/>
			<point x="98" y="445"/>
			<point x="34" y="377"/>
			<point x="34" y="265" type="curve" smooth="yes"/>
			<point x="34" y="195" type="line" smooth="yes"/>
			<point x="34" y="66"/>
			<point x="107" y="-10"/>
		</contour>
	</outline>
</glyph>
<glyph name="parenleft" format="2">
	<advance width="600"/>
	<unicode hex="0028"/>
	<outline>
		<contour>
			<point x="485" y="-125" type="curve"/>
			<point x="485" y="27" type="line"/>
			<point x="373" y="54"/>
			<point x="305" y="144"/>
			<point x="305" y="264" type="curve" smooth="yes"/>
			<point x="305" y="455" type="line" smooth="yes"/>
			<point x="305" y="578"/>
			<point x="372" y="667"/>
			<point x="485" y="695" type="curve"/>
			<point x="485" y="845" type="line"/>
			<point x="278" y="789"/>
			<point x="155" y="645"/>
			<point x="155" y="455" type="curve" smooth="yes"/>
			<point x="155" y="264" type="line" smooth="yes"/>
			<point x="155" y="71"/>
			<point x="273" y="-68"/>
		</contour>
	</outline>
</glyph>
<glyph name="asterisk" format="2">
	<advance width="600"/>
	<unicode hex="002A"/>
	<outline>
		<contour>
			<point x="197" y="82" type="line"/>
			<point x="229" y="127" type="line" smooth="yes"/>
			<point x="262" y="174"/>
			<point x="286" y="257"/>
			<point x="297" y="299" type="curve"/>
			<point x="303" y="299" type="line"/>
			<point x="314" y="257"/>
			<point x="338" y="174"/>
			<point x="371" y="127" type="curve" smooth="yes"/>
			<point x="403" y="82" type="line"/>
			<point x="509" y="156" type="line"/>
			<point x="478" y="202" type="line" smooth="yes"/>
			<point x="445" y="248"/>
			<point x="378" y="297"/>
			<point x="342" y="322" type="curve"/>
			<point x="344" y="326" type="line"/>
			<point x="389" y="326"/>
			<point x="469" y="329"/>
			<point x="521" y="348" type="curve" smooth="yes"/>
			<point x="573" y="367" type="line"/>
			<point x="528" y="489" type="line"/>
			<point x="476" y="470" type="line" smooth="yes"/>
			<point x="424" y="451"/>
			<point x="360" y="401"/>
			<point x="326" y="372" type="curve"/>
			<point x="322" y="375" type="line"/>
			<point x="337" y="416"/>
			<point x="365" y="497"/>
			<point x="365" y="555" type="curve" smooth="yes"/>
			<point x="365" y="610" type="line"/>
			<point x="235" y="610" type="line"/>
			<point x="235" y="555" type="line" smooth="yes"/>
			<point x="235" y="497"/>
			<point x="263" y="416"/>
			<point x="278" y="375" type="curve"/>
			<point x="273" y="371" type="line"/>
			<point x="239" y="400"/>
			<point x="175" y="451"/>
			<point x="123" y="470" type="curve" smooth="yes"/>
			<point x="71" y="489" type="line"/>
			<point x="27" y="367" type="line"/>
			<point x="78" y="348" type="line" smooth="yes"/>
			<point x="130" y="329"/>
			<point x="211" y="326"/>
			<point x="256" y="326" type="curve"/>
			<point x="258" y="322" type="line"/>
			<point x="222" y="297"/>
			<point x="155" y="248"/>
			<point x="122" y="201" type="curve" smooth="yes"/>
			<point x="91" y="156" type="line"/>
		</contour>
	</outline>
</glyph>
<glyph name="hyphen" format="2">
	<advance width="600"/>
	<unicode hex="002D"/>
	<outline>
		<contour>
			<point x="80" y="260" type="line"/>
			<point x="520" y="260" type="line"/>
			<point x="520" y="400" type="line"/>
			<point x="80" y="400" type="line"/>
		</contour>
	</outline>
</glyph>
<glyph name="period" format="2">
	<advance width="600"/>
	<unicode hex="002E"/>
	<outline>
		<contour>
			<point x="285" y="-10" type="curve" smooth="yes"/>
			<point x="315" y="-10" type="line" smooth="yes"/>
			<point x="370" y="-10"/>
			<point x="410" y="30"/>
			<point x="410" y="85" type="curve" smooth="yes"/>
			<point x="410" y="140"/>
			<point x="370" y="180"/>
			<point x="315" y="180" type="curve" smooth="yes"/>
			<point x="285" y="180" type="line" smooth="yes"/>
			<point x="230" y="180"/>
			<point x="190" y="140"/>
			<point x="190" y="85" type="curve" smooth="yes"/>
			<point x="190" y="30"/>
			<point x="230" y="-10"/>
		</contour>
	</outline>
</glyph>
<glyph name="slash" format="2">
	<advance width="600"/>
	<unicode hex="002F"/>
	<outline>
		<contour>
			<point x="50" y="-110" type="line"/>
			<point x="205" y="-110" type="line"/>
			<point x="550" y="830" type="line"/>
			<point x="395" y="830" type="line"/>
		</contour>
	</outline>
</glyph>
<glyph name="zero" format="2">
	<advance width="600"/>
	<unicode hex="0030"/>
	<outline>
		<contour>
			<point x="300" y="-10" type="curve" smooth="yes"/>
			<point x="447" y="-10"/>
			<point x="540" y="78"/>
			<point x="540" y="210" type="curve" smooth="yes"/>
			<point x="540" y="520" type="line" smooth="yes"/>
			<point x="540" y="652"/>
			<point x="447" y="740"/>
			<point x="300" y="740" type="curve" smooth="yes"/>
			<point x="153" y="740"/>
			<point x="60" y="652"/>
			<point x="60" y="520" type="curve" smooth="yes"/>
			<point x="60" y="210" type="line" smooth="yes"/>
			<point x="60" y="78"/>
			<point x="153" y="-10"/>
		</contour>
		<contour>
			<point x="300" y="120" type="curve" smooth="yes"/>
			<point x="238" y="120"/>
			<point x="200" y="154"/>
			<point x="200" y="210" type="curve" smooth="yes"/>
			<point x="200" y="520" type="line" smooth="yes"/>
			<point x="200" y="576"/>
			<point x="237" y="610"/>
			<point x="300" y="610" type="curve" smooth="yes"/>
			<point x="363" y="610"/>
			<point x="400" y="576"/>
			<point x="400" y="520" type="curve" smooth="yes"/>
			<point x="400" y="210" type="line" smooth="yes"/>
			<point x="400" y="154"/>
			<point x="362" y="120"/>
		</contour>
		<contour>
			<point x="300" y="305" type="curve" smooth="yes"/>
			<point x="330" y="305"/>
			<point x="350" y="327"/>
			<point x="350" y="360" type="curve" smooth="yes"/>
			<point x="350" y="375" type="line" smooth="yes"/>
			<point x="350" y="408"/>
			<point x="330" y="430"/>
			<point x="300" y="430" type="curve" smooth="yes"/>
			<point x="270" y="430"/>
			<point x="250" y="408"/>
			<point x="250" y="375" type="curve" smooth="yes"/>
			<point x="250" y="360" type="line" smooth="yes"/>
			<point x="250" y="327"/>
			<point x="270" y="305"/>
		</contour>
	</outline>
</glyph>
<glyph name="one" format="2">
	<advance width="600"/>
	<unicode hex="0031"/>
	<outline>
		<contour>
			<point x="80" y="0" type="line"/>
			<point x="560" y="0" type="line"/>
			<point x="560" y="130" type="line"/>
			<point x="414" y="130" type="line"/>
			<point x="414" y="730" type="line"/>
			<point x="249" y="730" type="line"/>
			<point x="78" y="610" type="line"/>
			<point x="78" y="455" type="line"/>
			<point x="264" y="593" type="line"/>
			<point x="264" y="130" type="line"/>
			<point x="80" y="130" type="line"/>
		</contour>
	</outline>
</glyph>
<glyph name="two" format="2">
	<advance width="600"/>
	<unicode hex="0032"/>
	<outline>
		<contour>
			<point x="70" y="0" type="line"/>
			<point x="542" y="0" type="line"/>
			<point x="542" y="135" type="line"/>
			<point x="255" y="135" type="line"/>
			<point x="387" y="257" type="line" smooth="yes"/>
			<point x="490" y="352"/>
			<point x="534" y="434"/>
			<point x="534" y="529" type="curve" smooth="yes"/>
			<point x="534" y="656"/>
			<point x="440" y="740"/>
			<point x="299" y="740" type="curve" smooth="yes"/>
			<point x="147" y="740"/>
			<point x="50" y="648"/>
			<point x="50" y="505" type="curve"/>
			<point x="200" y="505" type="line"/>
			<point x="200" y="568"/>
			<point x="236" y="605"/>
			<point x="296" y="605" type="curve" smooth="yes"/>
			<point x="351" y="605"/>
			<point x="384" y="571"/>
			<point x="384" y="513" type="curve" smooth="yes"/>
			<point x="384" y="460"/>
			<point x="357" y="418"/>
			<point x="302" y="365" type="curve" smooth="yes"/>
			<point x="70" y="141" type="line"/>
		</contour>
	</outline>
</glyph>
<glyph name="three" format="2">
	<advance width="600"/>
	<unicode hex="0033"/>
	<outline>
		<contour>
			<point x="296" y="-10" type="curve" smooth="yes"/>
			<point x="446" y="-10"/>
			<point x="540" y="71"/>
			<point x="540" y="200" type="curve" smooth="yes"/>
			<point x="540" y="261" type="line" smooth="yes"/>
			<point x="540" y="391"/>
			<point x="446" y="473"/>
			<point x="296" y="473" type="curve"/>
			<point x="296" y="412" type="line"/>
			<point x="510" y="601" type="line"/>
			<point x="510" y="730" type="line"/>
			<point x="87" y="730" type="line"/>
			<point x="87" y="605" type="line"/>
			<point x="357" y="605" type="line"/>
			<point x="210" y="475" type="line"/>
			<point x="210" y="346" type="line"/>
			<point x="296" y="346" type="line" smooth="yes"/>
			<point x="356" y="346"/>
			<point x="390" y="315"/>
			<point x="390" y="260" type="curve" smooth="yes"/>
			<point x="390" y="200" type="line" smooth="yes"/>
			<point x="390" y="145"/>
			<point x="357" y="115"/>
			<point x="296" y="115" type="curve" smooth="yes"/>
			<point x="236" y="115"/>
			<point x="202" y="146"/>
			<point x="202" y="200" type="curve"/>
			<point x="52" y="200" type="line"/>
			<point x="52" y="71"/>
			<point x="146" y="-10"/>
		</contour>
	</outline>
</glyph>
<glyph name="four" format="2">
	<advance width="600"/>
	<unicode hex="0034"/>
	<outline>
		<contour>
			<point x="375" y="0" type="line"/>
			<point x="525" y="0" type="line"/>
			<point x="525" y="420" type="line"/>
			<point x="375" y="420" type="line"/>
			<point x="375" y="264" type="line"/>
			<point x="195" y="264" type="line"/>
			<point x="195" y="301" type="line"/>
			<point x="499" y="730" type="line"/>
			<point x="329" y="730" type="line"/>
			<point x="55" y="343" type="line"/>
			<point x="55" y="134" type="line"/>
			<point x="375" y="134" type="line"/>
		</contour>
	</outline>
</glyph>
<glyph name="five" format="2">
	<advance width="600"/>
	<unicode hex="0035"/>
	<outline>
		<contour>
			<point x="299" y="-10" type="curve" smooth="yes"/>
			<point x="450" y="-10"/>
			<point x="540" y="71"/>
			<point x="540" y="205" type="curve" smooth="yes"/>
			<point x="540" y="276" type="line" smooth="yes"/>
			<point x="540" y="404"/>
			<point x="471" y="479"/>
			<point x="352" y="479" type="curve" smooth="yes"/>
			<point x="270" y="479"/>
			<point x="220" y="441"/>
			<point x="220" y="380" type="curve"/>
			<point x="252" y="405" type="line"/>
			<point x="221" y="405" type="line"/>
			<point x="223" y="595" type="line"/>
			<point x="513" y="595" type="line"/>
			<point x="513" y="730" type="line"/>
			<point x="82" y="730" type="line"/>
			<point x="77" y="330" type="line"/>
			<point x="222" y="330" type="line"/>
			<point x="237" y="350"/>
			<point x="263" y="360"/>
			<point x="299" y="360" type="curve" smooth="yes"/>
			<point x="359" y="360"/>
			<point x="390" y="330"/>
			<point x="390" y="276" type="curve" smooth="yes"/>
			<point x="390" y="205" type="line" smooth="yes"/>
			<point x="390" y="151"/>
			<point x="358" y="120"/>
			<point x="299" y="120" type="curve" smooth="yes"/>
			<point x="244" y="120"/>
			<point x="212" y="146"/>
			<point x="210" y="190" type="curve"/>
			<point x="60" y="190" type="line"/>
			<point x="63" y="67"/>
			<point x="154" y="-10"/>
		</contour>
	</outline>
</glyph>
<glyph name="six" format="2">
	<advance width="600"/>
	<unicode hex="0036"/>
	<outline>
		<contour>
			<point x="300" y="-10" type="curve" smooth="yes"/>
			<point x="453" y="-10"/>
			<point x="555" y="84"/>
			<point x="555" y="226" type="curve" smooth="yes"/>
			<point x="555" y="358"/>
			<point x="478" y="446"/>
			<point x="364" y="446" type="curve" smooth="yes"/>
			<point x="307" y="446"/>
			<point x="259" y="423"/>
			<point x="230" y="380" type="curve"/>
			<point x="223" y="384" type="line"/>
			<point x="445" y="730" type="line"/>
			<point x="278" y="730" type="line"/>
			<point x="114" y="462" type="line" smooth="yes"/>
			<point x="72" y="394"/>
			<point x="45" y="308"/>
			<point x="45" y="242" type="curve" smooth="yes"/>
			<point x="45" y="91"/>
			<point x="147" y="-10"/>
		</contour>
		<contour>
			<point x="300" y="115" type="curve" smooth="yes"/>
			<point x="235" y="115"/>
			<point x="191" y="159"/>
			<point x="191" y="224" type="curve" smooth="yes"/>
			<point x="191" y="291"/>
			<point x="235" y="335"/>
			<point x="300" y="335" type="curve" smooth="yes"/>
			<point x="365" y="335"/>
			<point x="409" y="291"/>
			<point x="409" y="224" type="curve" smooth="yes"/>
			<point x="409" y="159"/>
			<point x="365" y="115"/>
		</contour>
	</outline>
</glyph>
<glyph name="seven" format="2">
	<advance width="600"/>
	<unicode hex="0037"/>
	<outline>
		<contour>
			<point x="134" y="0" type="line"/>
			<point x="294" y="0" type="line"/>
			<point x="550" y="590" type="line"/>
			<point x="550" y="730" type="line"/>
			<point x="45" y="730" type="line"/>
			<point x="45" y="485" type="line"/>
			<point x="195" y="485" type="line"/>
			<point x="195" y="590" type="line"/>
			<point x="399" y="590" type="line"/>
		</contour>
	</outline>
</glyph>
<glyph name="eight" format="2">
	<advance width="600"/>
	<unicode hex="0038"/>
	<outline>
		<contour>
			<point x="300" y="-10" type="curve" smooth="yes"/>
			<point x="453" y="-10"/>
			<point x="555" y="74"/>
			<point x="555" y="201" type="curve" smooth="yes"/>
			<point x="555" y="299"/>
			<point x="485" y="388"/>
			<point x="395" y="389" type="curve"/>
			<point x="395" y="380" type="line"/>
			<point x="477" y="380"/>
			<point x="540" y="454"/>
			<point x="540" y="540" type="curve" smooth="yes"/>
			<point x="540" y="660"/>
			<point x="444" y="740"/>
			<point x="300" y="740" type="curve" smooth="yes"/>
			<point x="156" y="740"/>
			<point x="60" y="660"/>
			<point x="60" y="540" type="curve" smooth="yes"/>
			<point x="60" y="454"/>
			<point x="123" y="380"/>
			<point x="205" y="380" type="curve"/>
			<point x="205" y="389" type="line"/>
			<point x="115" y="389"/>
			<point x="45" y="297"/>
			<point x="45" y="201" type="curve" smooth="yes"/>
			<point x="45" y="74"/>
			<point x="147" y="-10"/>
		</contour>
		<contour>
			<point x="300" y="110" type="curve" smooth="yes"/>
			<point x="236" y="110"/>
			<point x="195" y="152"/>
			<point x="195" y="217" type="curve" smooth="yes"/>
			<point x="195" y="282"/>
			<point x="236" y="324"/>
			<point x="300" y="324" type="curve" smooth="yes"/>
			<point x="365" y="324"/>
			<point x="406" y="282"/>
			<point x="406" y="217" type="curve" smooth="yes"/>
			<point x="406" y="152"/>
			<point x="365" y="110"/>
		</contour>
		<contour>
			<point x="300" y="434" type="curve" smooth="yes"/>
			<point x="239" y="434"/>
			<point x="200" y="473"/>
			<point x="200" y="534" type="curve" smooth="yes"/>
			<point x="200" y="593"/>
			<point x="239" y="630"/>
			<point x="300" y="630" type="curve" smooth="yes"/>
			<point x="360" y="630"/>
			<point x="399" y="593"/>
			<point x="399" y="534" type="curve" smooth="yes"/>
			<point x="399" y="473"/>
			<point x="360" y="434"/>
		</contour>
	</outline>
</glyph>
<glyph name="nine" format="2">
	<advance width="600"/>
	<unicode hex="0039"/>
	<outline>
		<contour>
			<point x="155" y="0" type="line"/>
			<point x="322" y="0" type="line"/>
			<point x="486" y="268" type="line" smooth="yes"/>
			<point x="528" y="336"/>
			<point x="555" y="422"/>
			<point x="555" y="488" type="curve" smooth="yes"/>
			<point x="555" y="639"/>
			<point x="453" y="740"/>
			<point x="300" y="740" type="curve" smooth="yes"/>
			<point x="147" y="740"/>
			<point x="45" y="646"/>
			<point x="45" y="504" type="curve" smooth="yes"/>
			<point x="45" y="372"/>
			<point x="122" y="284"/>
			<point x="236" y="284" type="curve" smooth="yes"/>
			<point x="293" y="284"/>
			<point x="341" y="307"/>
			<point x="370" y="350" type="curve"/>
			<point x="377" y="346" type="line"/>
		</contour>
		<contour>
			<point x="300" y="395" type="curve" smooth="yes"/>
			<point x="235" y="395"/>
			<point x="191" y="439"/>
			<point x="191" y="506" type="curve" smooth="yes"/>
			<point x="191" y="571"/>
			<point x="235" y="615"/>
			<point x="300" y="615" type="curve" smooth="yes"/>
			<point x="365" y="615"/>
			<point x="409" y="571"/>
			<point x="409" y="506" type="curve" smooth="yes"/>
			<point x="409" y="439"/>
			<point x="365" y="395"/>
		</contour>
	</outline>
</glyph>
<glyph name="colon" format="2">
	<advance width="600"/>
	<unicode hex="003A"/>
	<outline>
		<contour>
			<point x="290" y="380" type="curve" smooth="yes"/>
			<point x="310" y="380" type="line" smooth="yes"/>
			<point x="362" y="380"/>
			<point x="400" y="418"/>
			<point x="400" y="470" type="curve" smooth="yes"/>
			<point x="400" y="522"/>
			<point x="362" y="560"/>
			<point x="310" y="560" type="curve" smooth="yes"/>
			<point x="290" y="560" type="line" smooth="yes"/>
			<point x="238" y="560"/>
			<point x="200" y="522"/>
			<point x="200" y="470" type="curve" smooth="yes"/>
			<point x="200" y="418"/>
			<point x="238" y="380"/>
		</contour>
		<contour>
			<point x="290" y="-10" type="curve" smooth="yes"/>
			<point x="310" y="-10" type="line" smooth="yes"/>
			<point x="362" y="-10"/>
			<point x="400" y="28"/>
			<point x="400" y="80" type="curve" smooth="yes"/>
			<point x="400" y="132"/>
			<point x="362" y="170"/>
			<point x="310" y="170" type="curve" smooth="yes"/>
			<point x="290" y="170" type="line" smooth="yes"/>
			<point x="238" y="170"/>
			<point x="200" y="132"/>
			<point x="200" y="80" type="curve" smooth="yes"/>
			<point x="200" y="28"/>
			<point x="238" y="-10"/>
		</contour>
	</outline>
</glyph>
<glyph name="semicolon" format="2">
	<advance width="600"/>
	<unicode hex="003B"/>
	<outline>
		<contour>
			<point x="145" y="-160" type="line"/>
			<point x="275" y="-160" type="line"/>
			<point x="405" y="151" type="line"/>
			<point x="225" y="151" type="line"/>
		</contour>
		<contour>
			<point x="290" y="380" type="curve" smooth="yes"/>
			<point x="310" y="380" type="line" smooth="yes"/>
			<point x="362" y="380"/>
			<point x="400" y="418"/>
			<point x="400" y="470" type="curve" smooth="yes"/>
			<point x="400" y="522"/>
			<point x="362" y="560"/>
			<point x="310" y="560" type="curve" smooth="yes"/>
			<point x="290" y="560" type="line" smooth="yes"/>
			<point x="238" y="560"/>
			<point x="200" y="522"/>
			<point x="200" y="470" type="curve" smooth="yes"/>
			<point x="200" y="418"/>
			<point x="238" y="380"/>
		</contour>
	</outline>
</glyph>
<glyph name="less" format="2">
	<advance width="600"/>
	<unicode hex="003C"/>
	<outline>
		<contour>
			<point x="530" y="49" type="line"/>
			<point x="530" y="186" type="line"/>
			<point x="254" y="307" type="line" smooth="yes"/>
			<point x="217" y="323"/>
			<point x="177" y="329"/>
			<point x="177" y="329" type="curve"/>
			<point x="177" y="329"/>
			<point x="217" y="336"/>
			<point x="254" y="352" type="curve" smooth="yes"/>
			<point x="530" y="473" type="line"/>
			<point x="530" y="609" type="line"/>
			<point x="70" y="400" type="line"/>
			<point x="70" y="257" type="line"/>
		</contour>
	</outline>
</glyph>
<glyph name="greater" format="2">
	<advance width="600"/>
	<unicode hex="003E"/>
	<outline>
		<contour>
			<point x="70" y="49" type="line"/>
			<point x="530" y="258" type="line"/>
			<point x="530" y="401" type="line"/>
			<point x="70" y="609" type="line"/>
			<point x="70" y="472" type="line"/>
			<point x="346" y="351" type="line" smooth="yes"/>
			<point x="383" y="335"/>
			<point x="423" y="329"/>
			<point x="423" y="329" type="curve"/>
			<point x="423" y="329"/>
			<point x="383" y="322"/>
			<point x="346" y="306" type="curve" smooth="yes"/>
			<point x="70" y="185" type="line"/>
		</contour>
	</outline>
</glyph>
<glyph name="question" format="2">
	<advance width="600"/>
	<unicode hex="003F"/>
	<outline>
		<contour>
			<point x="181" y="225" type="line"/>
			<point x="306" y="225" type="line"/>
			<point x="306" y="305" type="line"/>
			<point x="432" y="305"/>
			<point x="515" y="389"/>
			<point x="515" y="515" type="curve" smooth="yes"/>
			<point x="515" y="646"/>
			<point x="418" y="730"/>
			<point x="265" y="730" type="curve" smooth="yes"/>
			<point x="110" y="730" type="line"/>
			<point x="110" y="590" type="line"/>
			<point x="275" y="590" type="line" smooth="yes"/>
			<point x="330" y="590"/>
			<point x="365" y="561"/>
			<point x="365" y="515" type="curve" smooth="yes"/>
			<point x="365" y="470"/>
			<point x="330" y="440"/>
			<point x="276" y="440" type="curve" smooth="yes"/>
			<point x="176" y="440" type="line"/>
		</contour>
		<contour>
			<point x="229" y="-5" type="curve" smooth="yes"/>
			<point x="258" y="-5" type="line" smooth="yes"/>
			<point x="304" y="-5"/>
			<point x="334" y="22"/>
			<point x="334" y="65" type="curve" smooth="yes"/>
			<point x="334" y="107"/>
			<point x="304" y="135"/>
			<point x="259" y="135" type="curve" smooth="yes"/>
			<point x="229" y="135" type="line" smooth="yes"/>
			<point x="184" y="135"/>
			<point x="154" y="107"/>
			<point x="154" y="65" type="curve" smooth="yes"/>
			<point x="154" y="23"/>
			<point x="184" y="-5"/>
		</contour>
	</outline>
</glyph>
<glyph name="at" format="2">
	<advance width="600"/>
	<unicode hex="0040"/>
	<outline>
		<contour>
			<point x="325" y="-179" type="curve" smooth="yes"/>
			<point x="395" y="-179" type="line"/>
			<point x="395" y="-69" type="line"/>
			<point x="325" y="-69" type="line" smooth="yes"/>
			<point x="209" y="-69"/>
			<point x="145" y="-5"/>
			<point x="145" y="111" type="curve" smooth="yes"/>
			<point x="145" y="450" type="line" smooth="yes"/>
			<point x="145" y="569"/>
			<point x="207" y="635"/>
			<point x="315" y="635" type="curve" smooth="yes"/>
			<point x="406" y="635"/>
			<point x="460" y="572"/>
			<point x="460" y="500" type="curve" smooth="yes"/>
			<point x="460" y="490" type="line"/>
			<point x="480" y="420" type="line"/>
			<point x="445" y="420" type="line"/>
			<point x="460" y="400" type="line"/>
			<point x="460" y="457"/>
			<point x="416" y="495"/>
			<point x="350" y="495" type="curve" smooth="yes"/>
			<point x="268" y="495"/>
			<point x="220" y="434"/>
			<point x="220" y="330" type="curve" smooth="yes"/>
			<point x="220" y="220" type="line" smooth="yes"/>
			<point x="220" y="116"/>
			<point x="268" y="55"/>
			<point x="350" y="55" type="curve" smooth="yes"/>
			<point x="416" y="55"/>
			<point x="460" y="93"/>
			<point x="460" y="151" type="curve"/>
			<point x="447" y="120" type="line"/>
			<point x="479" y="120" type="line"/>
			<point x="469" y="65" type="line"/>
			<point x="580" y="65" type="line"/>
			<point x="580" y="500" type="line" smooth="yes"/>
			<point x="580" y="638"/>
			<point x="481" y="740"/>
			<point x="315" y="740" type="curve" smooth="yes"/>
			<point x="135" y="740"/>
			<point x="25" y="630"/>
			<point x="25" y="450" type="curve" smooth="yes"/>
			<point x="25" y="111" type="line" smooth="yes"/>
			<point x="25" y="-69"/>
			<point x="139" y="-179"/>
		</contour>
		<contour>
			<point x="400" y="140" type="curve" smooth="yes"/>
			<point x="361" y="140"/>
			<point x="340" y="162"/>
			<point x="340" y="220" type="curve" smooth="yes"/>
			<point x="340" y="330" type="line" smooth="yes"/>
			<point x="340" y="381"/>
			<point x="361" y="410"/>
			<point x="400" y="410" type="curve" smooth="yes"/>
			<point x="438" y="410"/>
			<point x="460" y="381"/>
			<point x="460" y="330" type="curve" smooth="yes"/>
			<point x="460" y="220" type="line" smooth="yes"/>
			<point x="460" y="161"/>
			<point x="442" y="140"/>
		</contour>
	</outline>
</glyph>
<glyph name="A" format="2">
	<advance width="600"/>
	<unicode hex="0041"/>
	<outline>
		<contour>
			<point x="25" y="0" type="line"/>
			<point x="178" y="0" type="line"/>
			<point x="213" y="165" type="line"/>
			<point x="387" y="165" type="line"/>
			<point x="422" y="0" type="line"/>
			<point x="575" y="0" type="line"/>
			<point x="394" y="730" type="line"/>
			<point x="204" y="730" type="line"/>
		</contour>
		<contour>
			<point x="238" y="285" type="line"/>
			<point x="275" y="462" type="line" smooth="yes"/>
			<point x="289" y="531"/>
			<point x="300" y="595"/>
			<point x="300" y="595" type="curve"/>
			<point x="300" y="595"/>
			<point x="312" y="531"/>
			<point x="326" y="461" type="curve" smooth="yes"/>
			<point x="361" y="285" type="line"/>
		</contour>
	</outline>
</glyph>
<glyph name="B" format="2">
	<advance width="600"/>
	<unicode hex="0042"/>
	<outline>
		<contour>
			<point x="66" y="0" type="line"/>
			<point x="310" y="0" type="line" smooth="yes"/>
			<point x="463" y="0"/>
			<point x="560" y="83"/>
			<point x="560" y="211" type="curve" smooth="yes"/>
			<point x="560" y="323"/>
			<point x="477" y="381"/>
			<point x="380" y="380" type="curve"/>
			<point x="380" y="383" type="line"/>
			<point x="468" y="383"/>
			<point x="544" y="446"/>
			<point x="544" y="543" type="curve" smooth="yes"/>
			<point x="544" y="657"/>
			<point x="449" y="730"/>
			<point x="301" y="730" type="curve" smooth="yes"/>
			<point x="66" y="730" type="line"/>
		</contour>
		<contour>
			<point x="304" y="121" type="curve" smooth="yes"/>
			<point x="211" y="121" type="line"/>
			<point x="211" y="318" type="line"/>
			<point x="304" y="318" type="line" smooth="yes"/>
			<point x="369" y="318"/>
			<point x="409" y="280"/>
			<point x="409" y="219" type="curve" smooth="yes"/>
			<point x="409" y="158"/>
			<point x="369" y="121"/>
		</contour>
		<contour>
			<point x="299" y="436" type="curve" smooth="yes"/>
			<point x="211" y="436" type="line"/>
			<point x="211" y="609" type="line"/>
			<point x="299" y="609" type="line" smooth="yes"/>
			<point x="357" y="609"/>
			<point x="393" y="577"/>
			<point x="393" y="523" type="curve" smooth="yes"/>
			<point x="393" y="469"/>
			<point x="357" y="436"/>
		</contour>
	</outline>
</glyph>
<glyph name="D" format="2">
	<advance width="600"/>
	<unicode hex="0044"/>
	<outline>
		<contour>
			<point x="63" y="0" type="line"/>
			<point x="300" y="0" type="line" smooth="yes"/>
			<point x="451" y="0"/>
			<point x="552" y="94"/>
			<point x="552" y="235" type="curve" smooth="yes"/>
			<point x="552" y="496" type="line" smooth="yes"/>
			<point x="552" y="637"/>
			<point x="451" y="730"/>
			<point x="300" y="730" type="curve" smooth="yes"/>
			<point x="63" y="730" type="line"/>
		</contour>
		<contour>
			<point x="300" y="140" type="curve" smooth="yes"/>
			<point x="213" y="140" type="line"/>
			<point x="213" y="590" type="line"/>
			<point x="300" y="590" type="line" smooth="yes"/>
			<point x="361" y="590"/>
			<point x="402" y="552"/>
			<point x="402" y="496" type="curve" smooth="yes"/>
			<point x="402" y="235" type="line" smooth="yes"/>
			<point x="402" y="178"/>
			<point x="361" y="140"/>
		</contour>
	</outline>
</glyph>
<glyph name="E" format="2">
	<advance width="600"/>
	<unicode hex="0045"/>
	<outline>
		<contour>
			<point x="80" y="0" type="line"/>
			<point x="530" y="0" type="line"/>
			<point x="530" y="128" type="line"/>
			<point x="227" y="128" type="line"/>
			<point x="227" y="310" type="line"/>
			<point x="495" y="310" type="line"/>
			<point x="495" y="438" type="line"/>
			<point x="227" y="438" type="line"/>
			<point x="227" y="602" type="line"/>
			<point x="530" y="602" type="line"/>
			<point x="530" y="730" type="line"/>
			<point x="80" y="730" type="line"/>
		</contour>
	</outline>
</glyph>
<glyph name="F" format="2">
	<advance width="600"/>
	<unicode hex="0046"/>
	<outline>
		<contour>
			<point x="70" y="0" type="line"/>
			<point x="220" y="0" type="line"/>
			<point x="220" y="288" type="line"/>
			<point x="514" y="288" type="line"/>
			<point x="514" y="428" type="line"/>
			<point x="218" y="428" type="line"/>
			<point x="218" y="590" type="line"/>
			<point x="540" y="590" type="line"/>
			<point x="540" y="730" type="line"/>
			<point x="70" y="730" type="line"/>
		</contour>
	</outline>
</glyph>
<glyph name="G" format="2">
	<advance width="600"/>
	<unicode hex="0047"/>
	<outline>
		<contour>
			<point x="304" y="-10" type="curve" smooth="yes"/>
			<point x="451" y="-10"/>
			<point x="548" y="77"/>
			<point x="548" y="210" type="curve" smooth="yes"/>
			<point x="548" y="400" type="line"/>
			<point x="290" y="400" type="line"/>
			<point x="290" y="273" type="line"/>
			<point x="398" y="273" type="line"/>
			<point x="398" y="210" type="line" smooth="yes"/>
			<point x="398" y="152"/>
			<point x="364" y="120"/>
			<point x="304" y="120" type="curve" smooth="yes"/>
			<point x="244" y="120"/>
			<point x="210" y="152"/>
			<point x="210" y="210" type="curve" smooth="yes"/>
			<point x="210" y="520" type="line" smooth="yes"/>
			<point x="210" y="578"/>
			<point x="244" y="610"/>
			<point x="304" y="610" type="curve" smooth="yes"/>
			<point x="364" y="610"/>
			<point x="398" y="578"/>
			<point x="398" y="520" type="curve"/>
			<point x="548" y="520" type="line"/>
			<point x="548" y="653"/>
			<point x="451" y="740"/>
			<point x="304" y="740" type="curve" smooth="yes"/>
			<point x="157" y="740"/>
			<point x="60" y="653"/>
			<point x="60" y="520" type="curve" smooth="yes"/>
			<point x="60" y="210" type="line" smooth="yes"/>
			<point x="60" y="78"/>
			<point x="157" y="-10"/>
		</contour>
	</outline>
</glyph>
<glyph name="H" format="2">
	<advance width="600"/>
	<unicode hex="0048"/>
	<outline>
		<contour>
			<point x="66" y="0" type="line"/>
			<point x="216" y="0" type="line"/>
			<point x="216" y="310" type="line"/>
			<point x="384" y="310" type="line"/>
			<point x="384" y="0" type="line"/>
			<point x="534" y="0" type="line"/>
			<point x="534" y="730" type="line"/>
			<point x="384" y="730" type="line"/>
			<point x="384" y="450" type="line"/>
			<point x="216" y="450" type="line"/>
			<point x="216" y="730" type="line"/>
			<point x="66" y="730" type="line"/>
		</contour>
	</outline>
</glyph>
<glyph name="I" format="2">
	<advance width="600"/>
	<unicode hex="0049"/>
	<outline>
		<contour>
			<point x="80" y="0" type="line"/>
			<point x="520" y="0" type="line"/>
			<point x="520" y="130" type="line"/>
			<point x="375" y="130" type="line"/>
			<point x="375" y="600" type="line"/>
			<point x="520" y="600" type="line"/>
			<point x="520" y="730" type="line"/>
			<point x="80" y="730" type="line"/>
			<point x="80" y="600" type="line"/>
			<point x="225" y="600" type="line"/>
			<point x="225" y="130" type="line"/>
			<point x="80" y="130" type="line"/>
		</contour>
	</outline>
</glyph>
<glyph name="J" format="2">
	<advance width="600"/>
	<unicode hex="004A"/>
	<outline>
		<contour>
			<point x="270" y="-11" type="curve" smooth="yes"/>
			<point x="424" y="-11"/>
			<point x="520" y="77"/>
			<point x="520" y="218" type="curve" smooth="yes"/>
			<point x="520" y="730" type="line"/>
			<point x="205" y="730" type="line"/>
			<point x="205" y="590" type="line"/>
			<point x="370" y="590" type="line"/>
			<point x="370" y="218" type="line" smooth="yes"/>
			<point x="370" y="157"/>
			<point x="331" y="119"/>
			<point x="270" y="119" type="curve" smooth="yes"/>
			<point x="208" y="119"/>
			<point x="170" y="158"/>
			<point x="170" y="220" type="curve"/>
			<point x="20" y="220" type="line"/>
			<point x="20" y="78"/>
			<point x="116" y="-11"/>
		</contour>
	</outline>
</glyph>
<glyph name="K" format="2">
	<advance width="600"/>
	<unicode hex="004B"/>
	<outline>
		<contour>
			<point x="65" y="0" type="line"/>
			<point x="215" y="0" type="line"/>
			<point x="215" y="309" type="line"/>
			<point x="286" y="309" type="line"/>
			<point x="410" y="0" type="line"/>
			<point x="575" y="0" type="line"/>
			<point x="419" y="381" type="line"/>
			<point x="569" y="730" type="line"/>
			<point x="406" y="730" type="line"/>
			<point x="286" y="447" type="line"/>
			<point x="215" y="447" type="line"/>
			<point x="215" y="730" type="line"/>
			<point x="65" y="730" type="line"/>
		</contour>
	</outline>
</glyph>
<glyph name="L" format="2">
	<advance width="600"/>
	<unicode hex="004C"/>
	<outline>
		<contour>
			<point x="95" y="0" type="line"/>
			<point x="540" y="0" type="line"/>
			<point x="540" y="140" type="line"/>
			<point x="245" y="140" type="line"/>
			<point x="245" y="730" type="line"/>
			<point x="95" y="730" type="line"/>
		</contour>
	</outline>
</glyph>
<glyph name="M" format="2">
	<advance width="600"/>
	<unicode hex="004D"/>
	<outline>
		<contour>
			<point x="42" y="0" type="line"/>
			<point x="179" y="0" type="line"/>
			<point x="179" y="200" type="line" smooth="yes"/>
			<point x="179" y="410"/>
			<point x="149" y="640"/>
			<point x="149" y="640" type="curve"/>
			<point x="237" y="310" type="line"/>
			<point x="364" y="310" type="line"/>
			<point x="448" y="640" type="line"/>
			<point x="448" y="640"/>
			<point x="421" y="400"/>
			<point x="421" y="200" type="curve" smooth="yes"/>
			<point x="421" y="0" type="line"/>
			<point x="558" y="0" type="line"/>
			<point x="558" y="730" type="line"/>
			<point x="389" y="730" type="line"/>
			<point x="323" y="500" type="line" smooth="yes"/>
			<point x="304" y="434"/>
			<point x="301" y="399"/>
			<point x="301" y="399" type="curve"/>
			<point x="301" y="399"/>
			<point x="297" y="434"/>
			<point x="278" y="500" type="curve" smooth="yes"/>
			<point x="211" y="730" type="line"/>
			<point x="42" y="730" type="line"/>
		</contour>
	</outline>
</glyph>
<glyph name="N" format="2">
	<advance width="600"/>
	<unicode hex="004E"/>
	<outline>
		<contour>
			<point x="60" y="0" type="line"/>
			<point x="192" y="0" type="line"/>
			<point x="192" y="320" type="line" smooth="yes"/>
			<point x="192" y="415"/>
			<point x="178" y="565"/>
			<point x="178" y="565" type="curve"/>
			<point x="365" y="0" type="line"/>
			<point x="540" y="0" type="line"/>
			<point x="540" y="730" type="line"/>
			<point x="408" y="730" type="line"/>
			<point x="408" y="430" type="line" smooth="yes"/>
			<point x="408" y="335"/>
			<point x="424" y="165"/>
			<point x="424" y="165" type="curve"/>
			<point x="235" y="730" type="line"/>
			<point x="60" y="730" type="line"/>
		</contour>
	</outline>
</glyph>
<glyph name="O" format="2">
	<advance width="600"/>
	<unicode hex="004F"/>
	<outline>
		<contour>
			<point x="300" y="-10" type="curve" smooth="yes"/>
			<point x="447" y="-10"/>
			<point x="540" y="78"/>
			<point x="540" y="210" type="curve" smooth="yes"/>
			<point x="540" y="520" type="line" smooth="yes"/>
			<point x="540" y="652"/>
			<point x="447" y="740"/>
			<point x="300" y="740" type="curve" smooth="yes"/>
			<point x="153" y="740"/>
			<point x="60" y="652"/>
			<point x="60" y="520" type="curve" smooth="yes"/>
			<point x="60" y="210" type="line" smooth="yes"/>
			<point x="60" y="78"/>
			<point x="153" y="-10"/>
		</contour>
		<contour>
			<point x="300" y="120" type="curve" smooth="yes"/>
			<point x="240" y="120"/>
			<point x="210" y="152"/>
			<point x="210" y="210" type="curve" smooth="yes"/>
			<point x="210" y="520" type="line" smooth="yes"/>
			<point x="210" y="578"/>
			<point x="239" y="610"/>
			<point x="300" y="610" type="curve" smooth="yes"/>
			<point x="361" y="610"/>
			<point x="390" y="578"/>
			<point x="390" y="520" type="curve" smooth="yes"/>
			<point x="390" y="210" type="line" smooth="yes"/>
			<point x="390" y="152"/>
			<point x="360" y="120"/>
		</contour>
	</outline>
</glyph>
<glyph name="P" format="2">
	<advance width="600"/>
	<unicode hex="0050"/>
	<outline>
		<contour>
			<point x="66" y="0" type="line"/>
			<point x="216" y="0" type="line"/>
			<point x="216" y="266" type="line"/>
			<point x="315" y="266" type="line" smooth="yes"/>
			<point x="468" y="266"/>
			<point x="570" y="359"/>
			<point x="570" y="498" type="curve" smooth="yes"/>
			<point x="570" y="638"/>
			<point x="469" y="730"/>
			<point x="315" y="730" type="curve" smooth="yes"/>
			<point x="66" y="730" type="line"/>
		</contour>
		<contour>
			<point x="315" y="401" type="curve" smooth="yes"/>
			<point x="216" y="401" type="line"/>
			<point x="216" y="595" type="line"/>
			<point x="315" y="595" type="line" smooth="yes"/>
			<point x="379" y="595"/>
			<point x="420" y="557"/>
			<point x="420" y="498" type="curve" smooth="yes"/>
			<point x="420" y="439"/>
			<point x="379" y="401"/>
		</contour>
	</outline>
</glyph>
<glyph name="Q" format="2">
	<advance width="600"/>
	<unicode hex="0051"/>
	<outline>
		<contour>
			<point x="400" y="-180" type="line"/>
			<point x="556" y="-180" type="line"/>
			<point x="433" y="20" type="line"/>
			<point x="502" y="55"/>
			<point x="540" y="123"/>
			<point x="540" y="210" type="curve" smooth="yes"/>
			<point x="540" y="520" type="line" smooth="yes"/>
			<point x="540" y="652"/>
			<point x="444" y="740"/>
			<point x="300" y="740" type="curve" smooth="yes"/>
			<point x="155" y="740"/>
			<point x="60" y="653"/>
			<point x="60" y="520" type="curve" smooth="yes"/>
			<point x="60" y="210" type="line" smooth="yes"/>
			<point x="60" y="79"/>
			<point x="156" y="-10"/>
			<point x="300" y="-10" type="curve" smooth="yes"/>
			<point x="308" y="-10"/>
			<point x="319" y="-9"/>
			<point x="319" y="-9" type="curve"/>
			<point x="288" y="4" type="line"/>
		</contour>
		<contour>
			<point x="300" y="121" type="curve" smooth="yes"/>
			<point x="238" y="121"/>
			<point x="210" y="153"/>
			<point x="210" y="210" type="curve" smooth="yes"/>
			<point x="210" y="520" type="line" smooth="yes"/>
			<point x="210" y="578"/>
			<point x="242" y="610"/>
			<point x="300" y="610" type="curve" smooth="yes"/>
			<point x="358" y="610"/>
			<point x="390" y="578"/>
			<point x="390" y="520" type="curve" smooth="yes"/>
			<point x="390" y="210" type="line" smooth="yes"/>
			<point x="390" y="153"/>
			<point x="362" y="121"/>
		</contour>
	</outline>
</glyph>
<glyph name="R" format="2">
	<advance width="600"/>
	<unicode hex="0052"/>
	<outline>
		<contour>
			<point x="65" y="0" type="line"/>
			<point x="214" y="0" type="line"/>
			<point x="214" y="276" type="line"/>
			<point x="284" y="276" type="line"/>
			<point x="402" y="0" type="line"/>
			<point x="565" y="0" type="line"/>
			<point x="427" y="300" type="line"/>
			<point x="505" y="333"/>
			<point x="555" y="413"/>
			<point x="555" y="508" type="curve" smooth="yes"/>
			<point x="555" y="644"/>
			<point x="455" y="730"/>
			<point x="300" y="730" type="curve" smooth="yes"/>
			<point x="65" y="730" type="line"/>
		</contour>
		<contour>
			<point x="300" y="406" type="curve" smooth="yes"/>
			<point x="214" y="406" type="line"/>
			<point x="214" y="600" type="line"/>
			<point x="300" y="600" type="line" smooth="yes"/>
			<point x="366" y="600"/>
			<point x="405" y="563"/>
			<point x="405" y="501" type="curve" smooth="yes"/>
			<point x="405" y="441"/>
			<point x="366" y="406"/>
		</contour>
	</outline>
</glyph>
<glyph name="T" format="2">
	<advance width="600"/>
	<unicode hex="0054"/>
	<outline>
		<contour>
			<point x="225" y="0" type="line"/>
			<point x="375" y="0" type="line"/>
			<point x="375" y="590" type="line"/>
			<point x="560" y="590" type="line"/>
			<point x="560" y="730" type="line"/>
			<point x="40" y="730" type="line"/>
			<point x="40" y="590" type="line"/>
			<point x="225" y="590" type="line"/>
		</contour>
	</outline>
</glyph>
<glyph name="U" format="2">
	<advance width="600"/>
	<unicode hex="0055"/>
	<outline>
		<contour>
			<point x="300" y="-10" type="curve" smooth="yes"/>
			<point x="448" y="-10"/>
			<point x="540" y="76"/>
			<point x="540" y="214" type="curve" smooth="yes"/>
			<point x="540" y="730" type="line"/>
			<point x="390" y="730" type="line"/>
			<point x="390" y="215" type="line" smooth="yes"/>
			<point x="390" y="154"/>
			<point x="356" y="120"/>
			<point x="300" y="120" type="curve" smooth="yes"/>
			<point x="243" y="120"/>
			<point x="210" y="154"/>
			<point x="210" y="215" type="curve" smooth="yes"/>
			<point x="210" y="730" type="line"/>
			<point x="60" y="730" type="line"/>
			<point x="60" y="214" type="line" smooth="yes"/>
			<point x="60" y="75"/>
			<point x="152" y="-10"/>
		</contour>
	</outline>
</glyph>
<glyph name="V" format="2">
	<advance width="600"/>
	<unicode hex="0056"/>
	<outline>
		<contour>
			<point x="206" y="0" type="line"/>
			<point x="396" y="0" type="line"/>
			<point x="575" y="730" type="line"/>
			<point x="424" y="730" type="line"/>
			<point x="326" y="270" type="line" smooth="yes"/>
			<point x="316" y="225"/>
			<point x="305" y="145"/>
			<point x="305" y="145" type="curve"/>
			<point x="305" y="145"/>
			<point x="291" y="225"/>
			<point x="281" y="269" type="curve" smooth="yes"/>
			<point x="180" y="730" type="line"/>
			<point x="25" y="730" type="line"/>
		</contour>
	</outline>
</glyph>
<glyph name="W" format="2">
	<advance width="600"/>
	<unicode hex="0057"/>
	<outline>
		<contour>
			<point x="78" y="0" type="line"/>
			<point x="235" y="0" type="line"/>
			<point x="289" y="485" type="line" smooth="yes"/>
			<point x="294" y="532"/>
			<point x="300" y="640"/>
			<point x="300" y="640" type="curve"/>
			<point x="300" y="640"/>
			<point x="307" y="532"/>
			<point x="312" y="485" type="curve" smooth="yes"/>
			<point x="361" y="0" type="line"/>
			<point x="517" y="0" type="line"/>
			<point x="590" y="730" type="line"/>
			<point x="466" y="730" type="line"/>
			<point x="432" y="242" type="line" smooth="yes"/>
			<point x="429" y="202"/>
			<point x="426" y="100"/>
			<point x="426" y="100" type="curve"/>
			<point x="426" y="100"/>
			<point x="414" y="202"/>
			<point x="410" y="242" type="curve" smooth="yes"/>
			<point x="358" y="730" type="line"/>
			<point x="244" y="730" type="line"/>
			<point x="190" y="242" type="line" smooth="yes"/>
			<point x="186" y="202"/>
			<point x="176" y="100"/>
			<point x="176" y="100" type="curve"/>
			<point x="176" y="100"/>
			<point x="173" y="202"/>
			<point x="170" y="242" type="curve" smooth="yes"/>
			<point x="133" y="730" type="line"/>
			<point x="10" y="730" type="line"/>
		</contour>
	</outline>
</glyph>
<glyph name="X" format="2">
	<advance width="600"/>
	<unicode hex="0058"/>
	<outline>
		<contour>
			<point x="20" y="0" type="line"/>
			<point x="181" y="0" type="line"/>
			<point x="269" y="180" type="line" smooth="yes"/>
			<point x="288" y="220"/>
			<point x="297" y="250"/>
			<point x="297" y="250" type="curve"/>
			<point x="297" y="250"/>
			<point x="308" y="220"/>
			<point x="327" y="180" type="curve" smooth="yes"/>
			<point x="415" y="0" type="line"/>
			<point x="580" y="0" type="line"/>
			<point x="384" y="377" type="line"/>
			<point x="567" y="730" type="line"/>
			<point x="406" y="730" type="line"/>
			<point x="328" y="570" type="line" smooth="yes"/>
			<point x="309" y="530"/>
			<point x="302" y="504"/>
			<point x="302" y="504" type="curve"/>
			<point x="302" y="504"/>
			<point x="294" y="530"/>
			<point x="274" y="570" type="curve" smooth="yes"/>
			<point x="198" y="730" type="line"/>
			<point x="33" y="730" type="line"/>
			<point x="216" y="377" type="line"/>
		</contour>
	</outline>
</glyph>
<glyph name="Y" format="2">
	<advance width="600"/>
	<unicode hex="0059"/>
	<outline>
		<contour>
			<point x="225" y="0" type="line"/>
			<point x="375" y="0" type="line"/>
			<point x="375" y="260" type="line"/>
			<point x="585" y="730" type="line"/>
			<point x="429" y="730" type="line"/>
			<point x="340" y="510" type="line" smooth="yes"/>
			<point x="316" y="450"/>
			<point x="303" y="380"/>
			<point x="303" y="380" type="curve"/>
			<point x="303" y="380"/>
			<point x="289" y="450"/>
			<point x="264" y="510" type="curve" smooth="yes"/>
			<point x="172" y="730" type="line"/>
			<point x="15" y="730" type="line"/>
			<point x="225" y="260" type="line"/>
		</contour>
	</outline>
</glyph>
<glyph name="Z" format="2">
	<advance width="600"/>
	<unicode hex="005A"/>
	<outline>
		<contour>
			<point x="75" y="0" type="line"/>
			<point x="525" y="0" type="line"/>
			<point x="525" y="140" type="line"/>
			<point x="245" y="140" type="line"/>
			<point x="514" y="590" type="line"/>
			<point x="514" y="730" type="line"/>
			<point x="83" y="730" type="line"/>
			<point x="83" y="590" type="line"/>
			<point x="343" y="590" type="line"/>
			<point x="75" y="140" type="line"/>
		</contour>
	</outline>
</glyph>
<glyph name="bracketright" format="2">
	<advance width="600"/>
	<unicode hex="005D"/>
	<guideline y="865"/>
	<outline>
		<contour>
			<point x="125" y="-110" type="line"/>
			<point x="430" y="-110" type="line"/>
			<point x="430" y="830" type="line"/>
			<point x="125" y="830" type="line"/>
			<point x="125" y="690" type="line"/>
			<point x="280" y="690" type="line"/>
			<point x="280" y="30" type="line"/>
			<point x="125" y="30" type="line"/>
		</contour>
	</outline>
</glyph>
<glyph name="asciicircum" format="2">
	<advance width="600"/>
	<unicode hex="005E"/>
	<outline>
		<contour>
			<point x="60" y="340" type="line"/>
			<point x="201" y="340" type="line"/>
			<point x="281" y="550" type="line" smooth="yes"/>
			<point x="296" y="591"/>
			<point x="301" y="622"/>
			<point x="301" y="622" type="curve"/>
			<point x="301" y="622"/>
			<point x="306" y="591"/>
			<point x="321" y="550" type="curve" smooth="yes"/>
			<point x="398" y="340" type="line"/>
			<point x="540" y="340" type="line"/>
			<point x="374" y="730" type="line"/>
			<point x="228" y="730" type="line"/>
		</contour>
	</outline>
</glyph>
<glyph name="grave" format="2">
	<advance width="600"/>
	<unicode hex="0060"/>
	<outline>
		<contour>
			<point x="280" y="645" type="line"/>
			<point x="420" y="645" type="line"/>
			<point x="300" y="785" type="line"/>
			<point x="150" y="785" type="line"/>
		</contour>
	</outline>
</glyph>
<glyph name="a" format="2">
	<advance width="600"/>
	<unicode hex="0061"/>
	<outline>
		<contour>
			<point x="229" y="-10" type="curve" smooth="yes"/>
			<point x="327" y="-10"/>
			<point x="392" y="42"/>
			<point x="392" y="125" type="curve"/>
			<point x="367" y="90" type="line"/>
			<point x="391" y="90" type="line"/>
			<point x="391" y="0" type="line"/>
			<point x="536" y="0" type="line"/>
			<point x="536" y="370" type="line" smooth="yes"/>
			<point x="536" y="492"/>
			<point x="454" y="560"/>
			<point x="308" y="560" type="curve" smooth="yes"/>
			<point x="174" y="560"/>
			<point x="84" y="491"/>
			<point x="72" y="380" type="curve"/>
			<point x="217" y="380" type="line"/>
			<point x="225" y="419"/>
			<point x="255" y="440"/>
			<point x="304" y="440" type="curve" smooth="yes"/>
			<point x="359" y="440"/>
			<point x="386" y="417"/>
			<point x="386" y="370" type="curve" smooth="yes"/>
			<point x="386" y="329" type="line"/>
			<point x="272" y="329" type="line" smooth="yes"/>
			<point x="128" y="329"/>
			<point x="49" y="268"/>
			<point x="49" y="157" type="curve" smooth="yes"/>
			<point x="49" y="54"/>
			<point x="118" y="-10"/>
		</contour>
		<contour>
			<point x="285" y="100" type="curve" smooth="yes"/>
			<point x="232" y="100"/>
			<point x="199" y="128"/>
			<point x="199" y="173" type="curve" smooth="yes"/>
			<point x="199" y="216"/>
			<point x="229" y="244"/>
			<point x="275" y="244" type="curve" smooth="yes"/>
			<point x="386" y="244" type="line"/>
			<point x="386" y="185" type="line" smooth="yes"/>
			<point x="386" y="132"/>
			<point x="346" y="100"/>
		</contour>
	</outline>
</glyph>
<glyph name="b" format="2">
	<advance width="600"/>
	<unicode hex="0062"/>
	<outline>
		<contour>
			<point x="357" y="-10" type="curve" smooth="yes"/>
			<point x="468" y="-10"/>
			<point x="540" y="73"/>
			<point x="540" y="205" type="curve" smooth="yes"/>
			<point x="540" y="345" type="line" smooth="yes"/>
			<point x="540" y="476"/>
			<point x="468" y="560"/>
			<point x="357" y="560" type="curve" smooth="yes"/>
			<point x="266" y="560"/>
			<point x="211" y="505"/>
			<point x="211" y="410" type="curve"/>
			<point x="246" y="445" type="line"/>
			<point x="211" y="445" type="line"/>
			<point x="216" y="580" type="line"/>
			<point x="216" y="730" type="line"/>
			<point x="66" y="730" type="line"/>
			<point x="66" y="0" type="line"/>
			<point x="211" y="0" type="line"/>
			<point x="211" y="105" type="line"/>
			<point x="246" y="105" type="line"/>
			<point x="211" y="140" type="line"/>
			<point x="211" y="45"/>
			<point x="266" y="-10"/>
		</contour>
		<contour>
			<point x="303" y="120" type="curve" smooth="yes"/>
			<point x="248" y="120"/>
			<point x="216" y="152"/>
			<point x="216" y="210" type="curve" smooth="yes"/>
			<point x="216" y="340" type="line" smooth="yes"/>
			<point x="216" y="397"/>
			<point x="248" y="430"/>
			<point x="303" y="430" type="curve" smooth="yes"/>
			<point x="359" y="430"/>
			<point x="390" y="397"/>
			<point x="390" y="340" type="curve" smooth="yes"/>
			<point x="390" y="210" type="line" smooth="yes"/>
			<point x="390" y="152"/>
			<point x="359" y="120"/>
		</contour>
	</outline>
</glyph>
<glyph name="c" format="2">
	<advance width="600"/>
	<unicode hex="0063"/>
	<outline>
		<contour>
			<point x="303" y="-10" type="curve" smooth="yes"/>
			<point x="448" y="-10"/>
			<point x="541" y="68"/>
			<point x="546" y="195" type="curve"/>
			<point x="396" y="195" type="line"/>
			<point x="392" y="147"/>
			<point x="358" y="120"/>
			<point x="303" y="120" type="curve" smooth="yes"/>
			<point x="243" y="120"/>
			<point x="210" y="152"/>
			<point x="210" y="210" type="curve" smooth="yes"/>
			<point x="210" y="340" type="line" smooth="yes"/>
			<point x="210" y="398"/>
			<point x="243" y="430"/>
			<point x="303" y="430" type="curve" smooth="yes"/>
			<point x="357" y="430"/>
			<point x="392" y="402"/>
			<point x="396" y="355" type="curve"/>
			<point x="546" y="355" type="line"/>
			<point x="541" y="482"/>
			<point x="448" y="560"/>
			<point x="303" y="560" type="curve" smooth="yes"/>
			<point x="156" y="560"/>
			<point x="60" y="473"/>
			<point x="60" y="340" type="curve" smooth="yes"/>
			<point x="60" y="210" type="line" smooth="yes"/>
			<point x="60" y="77"/>
			<point x="156" y="-10"/>
		</contour>
	</outline>
</glyph>
<glyph name="e" format="2">
	<advance width="600"/>
	<unicode hex="0065"/>
	<outline>
		<contour>
			<point x="301" y="-10" type="curve" smooth="yes"/>
			<point x="420" y="-10"/>
			<point x="511" y="54"/>
			<point x="535" y="150" type="curve"/>
			<point x="388" y="150" type="line"/>
			<point x="379" y="122"/>
			<point x="350" y="105"/>
			<point x="303" y="105" type="curve" smooth="yes"/>
			<point x="236" y="105"/>
			<point x="203" y="141"/>
			<point x="203" y="210" type="curve" smooth="yes"/>
			<point x="203" y="240" type="line"/>
			<point x="540" y="240" type="line"/>
			<point x="540" y="340" type="line" smooth="yes"/>
			<point x="540" y="472"/>
			<point x="447" y="560"/>
			<point x="301" y="560" type="curve" smooth="yes"/>
			<point x="154" y="560"/>
			<point x="60" y="472"/>
			<point x="60" y="340" type="curve" smooth="yes"/>
			<point x="60" y="210" type="line" smooth="yes"/>
			<point x="60" y="78"/>
			<point x="154" y="-10"/>
		</contour>
		<contour>
			<point x="397" y="342" type="curve" smooth="yes"/>
			<point x="397" y="317" type="line"/>
			<point x="407" y="327" type="line"/>
			<point x="203" y="325" type="line"/>
			<point x="203" y="340" type="line" smooth="yes"/>
			<point x="203" y="408"/>
			<point x="235" y="447"/>
			<point x="301" y="447" type="curve" smooth="yes"/>
			<point x="366" y="447"/>
			<point x="397" y="410"/>
		</contour>
	</outline>
</glyph>
<glyph name="f" format="2">
	<advance width="600"/>
	<unicode hex="0066"/>
	<outline>
		<contour>
			<point x="195" y="0" type="line"/>
			<point x="345" y="0" type="line"/>
			<point x="345" y="395" type="line"/>
			<point x="545" y="395" type="line"/>
			<point x="545" y="530" type="line"/>
			<point x="345" y="530" type="line"/>
			<point x="345" y="560" type="line" smooth="yes"/>
			<point x="345" y="584"/>
			<point x="359" y="600"/>
			<point x="385" y="600" type="curve" smooth="yes"/>
			<point x="545" y="600" type="line"/>
			<point x="545" y="730" type="line"/>
			<point x="380" y="730" type="line" smooth="yes"/>
			<point x="267" y="730"/>
			<point x="195" y="665"/>
			<point x="195" y="565" type="curve" smooth="yes"/>
			<point x="195" y="530" type="line"/>
			<point x="50" y="530" type="line"/>
			<point x="50" y="395" type="line"/>
			<point x="195" y="395" type="line"/>
		</contour>
	</outline>
</glyph>
<glyph name="g" format="2">
	<advance width="600"/>
	<unicode hex="0067"/>
	<outline>
		<contour>
			<point x="145" y="-180" type="line"/>
			<point x="305" y="-180" type="line" smooth="yes"/>
			<point x="446" y="-180"/>
			<point x="534" y="-106"/>
			<point x="534" y="14" type="curve" smooth="yes"/>
			<point x="534" y="550" type="line"/>
			<point x="384" y="550" type="line"/>
			<point x="389" y="445" type="line"/>
			<point x="354" y="445" type="line"/>
			<point x="389" y="410" type="line"/>
			<point x="389" y="505"/>
			<point x="334" y="560"/>
			<point x="243" y="560" type="curve" smooth="yes"/>
			<point x="132" y="560"/>
			<point x="60" y="476"/>
			<point x="60" y="345" type="curve" smooth="yes"/>
			<point x="60" y="245" type="line" smooth="yes"/>
			<point x="60" y="113"/>
			<point x="132" y="30"/>
			<point x="243" y="30" type="curve" smooth="yes"/>
			<point x="334" y="30"/>
			<point x="389" y="85"/>
			<point x="389" y="180" type="curve"/>
			<point x="354" y="145" type="line"/>
			<point x="389" y="145" type="line"/>
			<point x="387" y="40" type="line"/>
			<point x="387" y="19" type="line" smooth="yes"/>
			<point x="387" y="-31"/>
			<point x="356" y="-60"/>
			<point x="300" y="-60" type="curve" smooth="yes"/>
			<point x="145" y="-60" type="line"/>
		</contour>
		<contour>
			<point x="297" y="160" type="curve" smooth="yes"/>
			<point x="241" y="160"/>
			<point x="210" y="192"/>
			<point x="210" y="250" type="curve" smooth="yes"/>
			<point x="210" y="340" type="line" smooth="yes"/>
			<point x="210" y="397"/>
			<point x="241" y="430"/>
			<point x="297" y="430" type="curve" smooth="yes"/>
			<point x="352" y="430"/>
			<point x="384" y="397"/>
			<point x="384" y="340" type="curve" smooth="yes"/>
			<point x="384" y="250" type="line" smooth="yes"/>
			<point x="384" y="192"/>
			<point x="352" y="160"/>
		</contour>
	</outline>
</glyph>
<glyph name="i" format="2">
	<advance width="600"/>
	<unicode hex="0069"/>
	<outline>
		<contour>
			<point x="70" y="0" type="line"/>
			<point x="560" y="0" type="line"/>
			<point x="560" y="136" type="line"/>
			<point x="400" y="136" type="line"/>
			<point x="400" y="550" type="line"/>
			<point x="95" y="550" type="line"/>
			<point x="95" y="415" type="line"/>
			<point x="260" y="415" type="line"/>
			<point x="260" y="136" type="line"/>
			<point x="70" y="136" type="line"/>
		</contour>
		<contour>
			<point x="315" y="625" type="curve" smooth="yes"/>
			<point x="334" y="625" type="line" smooth="yes"/>
			<point x="380" y="625"/>
			<point x="410" y="652"/>
			<point x="410" y="695" type="curve" smooth="yes"/>
			<point x="410" y="737"/>
			<point x="380" y="765"/>
			<point x="335" y="765" type="curve" smooth="yes"/>
			<point x="315" y="765" type="line" smooth="yes"/>
			<point x="270" y="765"/>
			<point x="240" y="737"/>
			<point x="240" y="695" type="curve" smooth="yes"/>
			<point x="240" y="653"/>
			<point x="270" y="625"/>
		</contour>
	</outline>
</glyph>
<glyph name="j" format="2">
	<advance width="600"/>
	<unicode hex="006A"/>
	<outline>
		<contour>
			<point x="80" y="-180" type="line"/>
			<point x="251" y="-180" type="line" smooth="yes"/>
			<point x="389" y="-180"/>
			<point x="475" y="-96"/>
			<point x="475" y="40" type="curve" smooth="yes"/>
			<point x="475" y="550" type="line"/>
			<point x="110" y="550" type="line"/>
			<point x="110" y="410" type="line"/>
			<point x="325" y="410" type="line"/>
			<point x="325" y="45" type="line" smooth="yes"/>
			<point x="325" y="-9"/>
			<point x="294" y="-40"/>
			<point x="240" y="-40" type="curve" smooth="yes"/>
			<point x="80" y="-40" type="line"/>
		</contour>
		<contour>
			<point x="390" y="625" type="curve" smooth="yes"/>
			<point x="409" y="625" type="line" smooth="yes"/>
			<point x="455" y="625"/>
			<point x="485" y="652"/>
			<point x="485" y="695" type="curve" smooth="yes"/>
			<point x="485" y="737"/>
			<point x="455" y="765"/>
			<point x="410" y="765" type="curve" smooth="yes"/>
			<point x="390" y="765" type="line" smooth="yes"/>
			<point x="345" y="765"/>
			<point x="315" y="737"/>
			<point x="315" y="695" type="curve" smooth="yes"/>
			<point x="315" y="653"/>
			<point x="345" y="625"/>
		</contour>
	</outline>
</glyph>
<glyph name="k" format="2">
	<advance width="600"/>
	<unicode hex="006B"/>
	<outline>
		<contour>
			<point x="69" y="0" type="line"/>
			<point x="219" y="0" type="line"/>
			<point x="219" y="216" type="line"/>
			<point x="292" y="216" type="line"/>
			<point x="408" y="0" type="line"/>
			<point x="578" y="0" type="line"/>
			<point x="422" y="281" type="line"/>
			<point x="575" y="550" type="line"/>
			<point x="408" y="550" type="line"/>
			<point x="293" y="342" type="line"/>
			<point x="219" y="342" type="line"/>
			<point x="219" y="730" type="line"/>
			<point x="69" y="730" type="line"/>
		</contour>
	</outline>
</glyph>
<glyph name="l" format="2">
	<advance width="600"/>
	<unicode hex="006C"/>
	<outline>
		<contour>
			<point x="390" y="0" type="curve" smooth="yes"/>
			<point x="565" y="0" type="line"/>
			<point x="565" y="135" type="line"/>
			<point x="405" y="135" type="line" smooth="yes"/>
			<point x="369" y="135"/>
			<point x="345" y="159"/>
			<point x="345" y="195" type="curve" smooth="yes"/>
			<point x="345" y="730" type="line"/>
			<point x="25" y="730" type="line"/>
			<point x="25" y="595" type="line"/>
			<point x="195" y="595" type="line"/>
			<point x="195" y="195" type="line" smooth="yes"/>
			<point x="195" y="78"/>
			<point x="273" y="0"/>
		</contour>
	</outline>
</glyph>
<glyph name="m" format="2">
	<advance width="600"/>
	<unicode hex="006D"/>
	<outline>
		<contour>
			<point x="42" y="0" type="line"/>
			<point x="171" y="0" type="line"/>
			<point x="171" y="403" type="line" smooth="yes"/>
			<point x="171" y="438"/>
			<point x="180" y="458"/>
			<point x="207" y="458" type="curve" smooth="yes"/>
			<point x="234" y="458"/>
			<point x="249" y="439"/>
			<point x="249" y="403" type="curve" smooth="yes"/>
			<point x="249" y="0" type="line"/>
			<point x="352" y="0" type="line"/>
			<point x="352" y="403" type="line" smooth="yes"/>
			<point x="352" y="438"/>
			<point x="363" y="458"/>
			<point x="390" y="458" type="curve" smooth="yes"/>
			<point x="417" y="458"/>
			<point x="430" y="439"/>
			<point x="430" y="403" type="curve" smooth="yes"/>
			<point x="430" y="0" type="line"/>
			<point x="559" y="0" type="line"/>
			<point x="559" y="420" type="line" smooth="yes"/>
			<point x="559" y="506"/>
			<point x="513" y="560"/>
			<point x="447" y="560" type="curve" smooth="yes"/>
			<point x="388" y="560"/>
			<point x="351" y="519"/>
			<point x="351" y="456" type="curve"/>
			<point x="360" y="470" type="line"/>
			<point x="332" y="470" type="line"/>
			<point x="350" y="425" type="line"/>
			<point x="350" y="506"/>
			<point x="316" y="560"/>
			<point x="259" y="560" type="curve" smooth="yes"/>
			<point x="205" y="560"/>
			<point x="165" y="519"/>
			<point x="165" y="456" type="curve"/>
			<point x="184" y="470" type="line"/>
			<point x="160" y="470" type="line"/>
			<point x="160" y="550" type="line"/>
			<point x="42" y="550" type="line"/>
		</contour>
	</outline>
</glyph>
<glyph name="n" format="2">
	<advance width="600"/>
	<unicode hex="006E"/>
	<outline>
		<contour>
			<point x="66" y="0" type="line"/>
			<point x="216" y="0" type="line"/>
			<point x="216" y="340" type="line" smooth="yes"/>
			<point x="216" y="397"/>
			<point x="247" y="430"/>
			<point x="300" y="430" type="curve" smooth="yes"/>
			<point x="354" y="430"/>
			<point x="386" y="397"/>
			<point x="386" y="340" type="curve" smooth="yes"/>
			<point x="386" y="0" type="line"/>
			<point x="536" y="0" type="line"/>
			<point x="536" y="355" type="line" smooth="yes"/>
			<point x="536" y="479"/>
			<point x="466" y="560"/>
			<point x="359" y="560" type="curve" smooth="yes"/>
			<point x="268" y="560"/>
			<point x="211" y="503"/>
			<point x="211" y="410" type="curve"/>
			<point x="255" y="445" type="line"/>
			<point x="211" y="445" type="line"/>
			<point x="211" y="550" type="line"/>
			<point x="66" y="550" type="line"/>
		</contour>
	</outline>
</glyph>
<glyph name="o" format="2">
	<advance width="600"/>
	<unicode hex="006F"/>
	<outline>
		<contour>
			<point x="300" y="-10" type="curve" smooth="yes"/>
			<point x="447" y="-10"/>
			<point x="540" y="78"/>
			<point x="540" y="210" type="curve" smooth="yes"/>
			<point x="540" y="340" type="line" smooth="yes"/>
			<point x="540" y="472"/>
			<point x="447" y="560"/>
			<point x="300" y="560" type="curve" smooth="yes"/>
			<point x="153" y="560"/>
			<point x="60" y="472"/>
			<point x="60" y="340" type="curve" smooth="yes"/>
			<point x="60" y="210" type="line" smooth="yes"/>
			<point x="60" y="78"/>
			<point x="153" y="-10"/>
		</contour>
		<contour>
			<point x="300" y="120" type="curve" smooth="yes"/>
			<point x="242" y="120"/>
			<point x="210" y="152"/>
			<point x="210" y="210" type="curve" smooth="yes"/>
			<point x="210" y="340" type="line" smooth="yes"/>
			<point x="210" y="398"/>
			<point x="242" y="430"/>
			<point x="300" y="430" type="curve" smooth="yes"/>
			<point x="358" y="430"/>
			<point x="390" y="398"/>
			<point x="390" y="340" type="curve" smooth="yes"/>
			<point x="390" y="210" type="line" smooth="yes"/>
			<point x="390" y="152"/>
			<point x="358" y="120"/>
		</contour>
	</outline>
</glyph>
<glyph name="r" format="2">
	<advance width="600"/>
	<unicode hex="0072"/>
	<outline>
		<contour>
			<point x="82" y="0" type="line"/>
			<point x="232" y="0" type="line"/>
			<point x="232" y="340" type="line" smooth="yes"/>
			<point x="232" y="400"/>
			<point x="263" y="435"/>
			<point x="320" y="435" type="curve" smooth="yes"/>
			<point x="375" y="435"/>
			<point x="410" y="400"/>
			<point x="410" y="340" type="curve" smooth="yes"/>
			<point x="410" y="305" type="line"/>
			<point x="570" y="305" type="line"/>
			<point x="570" y="350" type="line" smooth="yes"/>
			<point x="570" y="483"/>
			<point x="499" y="560"/>
			<point x="378" y="560" type="curve" smooth="yes"/>
			<point x="273" y="560"/>
			<point x="217" y="499"/>
			<point x="217" y="381" type="curve"/>
			<point x="260" y="445" type="line"/>
			<point x="222" y="445" type="line"/>
			<point x="222" y="550" type="line"/>
			<point x="82" y="550" type="line"/>
		</contour>
	</outline>
</glyph>
<glyph name="s" format="2">
	<advance width="600"/>
	<unicode hex="0073"/>
	<outline>
		<contour>
			<point x="277" y="-10" type="curve" smooth="yes"/>
			<point x="321" y="-10" type="line" smooth="yes"/>
			<point x="471" y="-10"/>
			<point x="550" y="52"/>
			<point x="550" y="164" type="curve" smooth="yes"/>
			<point x="550" y="267"/>
			<point x="484" y="314"/>
			<point x="345" y="332" type="curve" smooth="yes"/>
			<point x="276" y="341" type="line" smooth="yes"/>
			<point x="230" y="347"/>
			<point x="211" y="362"/>
			<point x="211" y="393" type="curve" smooth="yes"/>
			<point x="211" y="426"/>
			<point x="232" y="443"/>
			<point x="282" y="443" type="curve" smooth="yes"/>
			<point x="320" y="443" type="line" smooth="yes"/>
			<point x="363" y="443"/>
			<point x="391" y="425"/>
			<point x="391" y="398" type="curve"/>
			<point x="541" y="398" type="line"/>
			<point x="541" y="496"/>
			<point x="454" y="560"/>
			<point x="320" y="560" type="curve" smooth="yes"/>
			<point x="282" y="560" type="line" smooth="yes"/>
			<point x="141" y="560"/>
			<point x="66" y="499"/>
			<point x="66" y="392" type="curve" smooth="yes"/>
			<point x="66" y="290"/>
			<point x="126" y="246"/>
			<point x="263" y="229" type="curve" smooth="yes"/>
			<point x="327" y="221" type="line" smooth="yes"/>
			<point x="380" y="214"/>
			<point x="405" y="197"/>
			<point x="405" y="164" type="curve" smooth="yes"/>
			<point x="405" y="128"/>
			<point x="376" y="107"/>
			<point x="321" y="107" type="curve" smooth="yes"/>
			<point x="277" y="107" type="line" smooth="yes"/>
			<point x="231" y="107"/>
			<point x="200" y="128"/>
			<point x="200" y="160" type="curve"/>
			<point x="50" y="160" type="line"/>
			<point x="50" y="58"/>
			<point x="141" y="-10"/>
		</contour>
	</outline>
</glyph>
<glyph name="t" format="2">
	<advance width="600"/>
	<unicode hex="0074"/>
	<outline>
		<contour>
			<point x="360" y="0" type="curve" smooth="yes"/>
			<point x="525" y="0" type="line"/>
			<point x="525" y="135" type="line"/>
			<point x="375" y="135" type="line" smooth="yes"/>
			<point x="346" y="135"/>
			<point x="330" y="151"/>
			<point x="330" y="180" type="curve" smooth="yes"/>
			<point x="330" y="415" type="line"/>
			<point x="535" y="415" type="line"/>
			<point x="535" y="550" type="line"/>
			<point x="330" y="550" type="line"/>
			<point x="330" y="700" type="line"/>
			<point x="180" y="700" type="line"/>
			<point x="180" y="550" type="line"/>
			<point x="35" y="550" type="line"/>
			<point x="35" y="415" type="line"/>
			<point x="180" y="415" type="line"/>
			<point x="180" y="180" type="line" smooth="yes"/>
			<point x="180" y="68"/>
			<point x="248" y="0"/>
		</contour>
	</outline>
</glyph>
<glyph name="u" format="2">
	<advance width="600"/>
	<unicode hex="0075"/>
	<outline>
		<contour>
			<point x="300" y="-10" type="curve" smooth="yes"/>
			<point x="446" y="-10"/>
			<point x="536" y="74"/>
			<point x="536" y="214" type="curve" smooth="yes"/>
			<point x="536" y="550" type="line"/>
			<point x="386" y="550" type="line"/>
			<point x="386" y="215" type="line" smooth="yes"/>
			<point x="386" y="153"/>
			<point x="355" y="120"/>
			<point x="300" y="120" type="curve" smooth="yes"/>
			<point x="244" y="120"/>
			<point x="214" y="153"/>
			<point x="214" y="215" type="curve" smooth="yes"/>
			<point x="214" y="550" type="line"/>
			<point x="64" y="550" type="line"/>
			<point x="64" y="214" type="line" smooth="yes"/>
			<point x="64" y="75"/>
			<point x="152" y="-10"/>
		</contour>
	</outline>
</glyph>
<glyph name="v" format="2">
	<advance width="600"/>
	<unicode hex="0076"/>
	<outline>
		<contour>
			<point x="207" y="0" type="line"/>
			<point x="395" y="0" type="line"/>
			<point x="573" y="550" type="line"/>
			<point x="420" y="550" type="line"/>
			<point x="329" y="240" type="line" smooth="yes"/>
			<point x="315" y="190"/>
			<point x="302" y="127"/>
			<point x="302" y="127" type="curve"/>
			<point x="302" y="127"/>
			<point x="289" y="190"/>
			<point x="274" y="241" type="curve" smooth="yes"/>
			<point x="182" y="550" type="line"/>
			<point x="27" y="550" type="line"/>
		</contour>
	</outline>
</glyph>
<glyph name="w" format="2">
	<advance width="600"/>
	<unicode hex="0077"/>
	<outline>
		<contour>
			<point x="90" y="0" type="line"/>
			<point x="241" y="0" type="line"/>
			<point x="283" y="310" type="line" smooth="yes"/>
			<point x="290" y="361"/>
			<point x="301" y="442"/>
			<point x="301" y="442" type="curve"/>
			<point x="301" y="442"/>
			<point x="311" y="361"/>
			<point x="318" y="310" type="curve" smooth="yes"/>
			<point x="359" y="0" type="line"/>
			<point x="509" y="0" type="line"/>
			<point x="590" y="550" type="line"/>
			<point x="473" y="550" type="line"/>
			<point x="431" y="250" type="line" smooth="yes"/>
			<point x="423" y="191"/>
			<point x="416" y="105"/>
			<point x="416" y="105" type="curve"/>
			<point x="416" y="105"/>
			<point x="406" y="189"/>
			<point x="397" y="250" type="curve" smooth="yes"/>
			<point x="353" y="550" type="line"/>
			<point x="249" y="550" type="line"/>
			<point x="203" y="250" type="line" smooth="yes"/>
			<point x="193" y="189"/>
			<point x="184" y="106"/>
			<point x="184" y="106" type="curve"/>
			<point x="184" y="106"/>
			<point x="178" y="190"/>
			<point x="170" y="250" type="curve" smooth="yes"/>
			<point x="130" y="550" type="line"/>
			<point x="10" y="550" type="line"/>
		</contour>
	</outline>
</glyph>
<glyph name="x" format="2">
	<advance width="600"/>
	<unicode hex="0078"/>
	<outline>
		<contour>
			<point x="26" y="0" type="line"/>
			<point x="193" y="0" type="line"/>
			<point x="274" y="130" type="line" smooth="yes"/>
			<point x="289" y="154"/>
			<point x="300" y="185"/>
			<point x="300" y="185" type="curve"/>
			<point x="300" y="185"/>
			<point x="312" y="154"/>
			<point x="327" y="130" type="curve" smooth="yes"/>
			<point x="407" y="0" type="line"/>
			<point x="574" y="0" type="line"/>
			<point x="385" y="285" type="line"/>
			<point x="561" y="550" type="line"/>
			<point x="394" y="550" type="line"/>
			<point x="326" y="440" type="line" smooth="yes"/>
			<point x="312" y="416"/>
			<point x="300" y="385"/>
			<point x="300" y="385" type="curve"/>
			<point x="300" y="385"/>
			<point x="289" y="416"/>
			<point x="274" y="440" type="curve" smooth="yes"/>
			<point x="206" y="550" type="line"/>
			<point x="39" y="550" type="line"/>
			<point x="216" y="285" type="line"/>
		</contour>
	</outline>
</glyph>
<glyph name="y" format="2">
	<advance width="600"/>
	<unicode hex="0079"/>
	<outline>
		<contour>
			<point x="161" y="-180" type="line"/>
			<point x="318" y="-180" type="line"/>
			<point x="574" y="550" type="line"/>
			<point x="417" y="550" type="line"/>
			<point x="338" y="310" type="line" smooth="yes"/>
			<point x="322" y="260"/>
			<point x="306" y="186"/>
			<point x="306" y="186" type="curve"/>
			<point x="306" y="186"/>
			<point x="290" y="260"/>
			<point x="272" y="310" type="curve" smooth="yes"/>
			<point x="188" y="550" type="line"/>
			<point x="26" y="550" type="line"/>
			<point x="236" y="27" type="line"/>
		</contour>
	</outline>
</glyph>
<glyph name="z" format="2">
	<advance width="600"/>
	<unicode hex="007A"/>
	<outline>
		<contour>
			<point x="70" y="0" type="line"/>
			<point x="530" y="0" type="line"/>
			<point x="530" y="130" type="line"/>
			<point x="247" y="130" type="line"/>
			<point x="519" y="420" type="line"/>
			<point x="519" y="550" type="line"/>
			<point x="80" y="550" type="line"/>
			<point x="80" y="420" type="line"/>
			<point x="342" y="420" type="line"/>
			<point x="70" y="130" type="line"/>
		</contour>
	</outline>
</glyph>
<glyph name="braceleft" format="2">
	<advance width="600"/>
	<unicode hex="007B"/>
	<outline>
		<contour>
			<point x="440" y="-111" type="curve" smooth="yes"/>
			<point x="525" y="-111" type="line"/>
			<point x="525" y="29" type="line"/>
			<point x="470" y="29" type="line" smooth="yes"/>
			<point x="434" y="29"/>
			<point x="408" y="53"/>
			<point x="410" y="89" type="curve" smooth="yes"/>
			<point x="420" y="239" type="line" smooth="yes"/>
			<point x="425" y="314"/>
			<point x="363" y="364"/>
			<point x="265" y="364" type="curve"/>
			<point x="265" y="357" type="line"/>
			<point x="363" y="357"/>
			<point x="425" y="406"/>
			<point x="420" y="479" type="curve" smooth="yes"/>
			<point x="410" y="630" type="line" smooth="yes"/>
			<point x="407" y="673"/>
			<point x="432" y="690"/>
			<point x="470" y="690" type="curve" smooth="yes"/>
			<point x="525" y="690" type="line"/>
			<point x="525" y="830" type="line"/>
			<point x="440" y="830" type="line" smooth="yes"/>
			<point x="330" y="830"/>
			<point x="253" y="760"/>
			<point x="260" y="650" type="curve" smooth="yes"/>
			<point x="270" y="499" type="line" smooth="yes"/>
			<point x="273" y="457"/>
			<point x="242" y="429"/>
			<point x="200" y="429" type="curve" smooth="yes"/>
			<point x="75" y="429" type="line"/>
			<point x="75" y="289" type="line"/>
			<point x="200" y="289" type="line" smooth="yes"/>
			<point x="242" y="289"/>
			<point x="273" y="261"/>
			<point x="270" y="219" type="curve" smooth="yes"/>
			<point x="260" y="74" type="line" smooth="yes"/>
			<point x="252" y="-38"/>
			<point x="331" y="-111"/>
		</contour>
	</outline>
</glyph>
<glyph name="braceright" format="2">
	<advance width="600"/>
	<unicode hex="007D"/>
	<guideline y="-110"/>
	<outline>
		<contour>
			<point x="75" y="-111" type="line"/>
			<point x="160" y="-111" type="line" smooth="yes"/>
			<point x="269" y="-111"/>
			<point x="348" y="-38"/>
			<point x="340" y="74" type="curve" smooth="yes"/>
			<point x="330" y="219" type="line" smooth="yes"/>
			<point x="327" y="261"/>
			<point x="358" y="289"/>
			<point x="400" y="289" type="curve" smooth="yes"/>
			<point x="525" y="289" type="line"/>
			<point x="525" y="429" type="line"/>
			<point x="400" y="429" type="line" smooth="yes"/>
			<point x="358" y="429"/>
			<point x="327" y="457"/>
			<point x="330" y="499" type="curve" smooth="yes"/>
			<point x="340" y="650" type="line" smooth="yes"/>
			<point x="347" y="760"/>
			<point x="270" y="830"/>
			<point x="160" y="830" type="curve" smooth="yes"/>
			<point x="75" y="830" type="line"/>
			<point x="75" y="690" type="line"/>
			<point x="130" y="690" type="line" smooth="yes"/>
			<point x="168" y="690"/>
			<point x="193" y="673"/>
			<point x="190" y="630" type="curve" smooth="yes"/>
			<point x="180" y="479" type="line" smooth="yes"/>
			<point x="175" y="406"/>
			<point x="237" y="357"/>
			<point x="335" y="357" type="curve"/>
			<point x="335" y="364" type="line"/>
			<point x="237" y="364"/>
			<point x="175" y="314"/>
			<point x="180" y="239" type="curve" smooth="yes"/>
			<point x="190" y="89" type="line" smooth="yes"/>
			<point x="192" y="53"/>
			<point x="166" y="29"/>
			<point x="130" y="29" type="curve" smooth="yes"/>
			<point x="75" y="29" type="line"/>
		</contour>
	</outline>
</glyph>
<glyph name="asciitilde" format="2">
	<advance width="600"/>
	<unicode hex="007E"/>
	<outline>
		<contour>
			<point x="40" y="340" type="curve" smooth="yes"/>
			<point x="40" y="255" type="line"/>
			<point x="160" y="255" type="line"/>
			<point x="160" y="330" type="line" smooth="yes"/>
			<point x="160" y="352"/>
			<point x="171" y="365"/>
			<point x="192" y="365" type="curve" smooth="yes"/>
			<point x="260" y="365"/>
			<point x="260" y="225"/>
			<point x="405" y="225" type="curve" smooth="yes"/>
			<point x="500" y="225"/>
			<point x="560" y="280"/>
			<point x="560" y="365" type="curve" smooth="yes"/>
			<point x="560" y="450" type="line"/>
			<point x="440" y="450" type="line"/>
			<point x="440" y="375" type="line" smooth="yes"/>
			<point x="440" y="353"/>
			<point x="429" y="340"/>
			<point x="408" y="340" type="curve" smooth="yes"/>
			<point x="340" y="340"/>
			<point x="340" y="480"/>
			<point x="195" y="480" type="curve" smooth="yes"/>
			<point x="101" y="480"/>
			<point x="40" y="425"/>
		</contour>
	</outline>
</glyph>
<glyph name="exclamdown" format="2">
	<advance width="600"/>
	<unicode hex="00A1"/>
	<outline>
		<contour>
			<point x="221" y="-180" type="line"/>
			<point x="379" y="-180" type="line"/>
			<point x="379" y="-20" type="line"/>
			<point x="356" y="305" type="line"/>
			<point x="244" y="305" type="line"/>
			<point x="221" y="-20" type="line"/>
		</contour>
		<contour>
			<point x="285" y="415" type="curve" smooth="yes"/>
			<point x="315" y="415" type="line" smooth="yes"/>
			<point x="360" y="415"/>
			<point x="390" y="443"/>
			<point x="390" y="485" type="curve" smooth="yes"/>
			<point x="390" y="527"/>
			<point x="360" y="555"/>
			<point x="315" y="555" type="curve" smooth="yes"/>
			<point x="286" y="555" type="line" smooth="yes"/>
			<point x="240" y="555"/>
			<point x="210" y="528"/>
			<point x="210" y="486" type="curve" smooth="yes"/>
			<point x="210" y="443"/>
			<point x="240" y="415"/>
		</contour>
	</outline>
</glyph>
<glyph name="sterling" format="2">
	<advance width="600"/>
	<unicode hex="00A3"/>
	<outline>
		<contour>
			<point x="75" y="160" type="curve"/>
			<point x="75" y="0" type="line"/>
			<point x="535" y="0" type="line"/>
			<point x="535" y="140" type="line"/>
			<point x="165" y="140" type="line"/>
			<point x="165" y="140"/>
			<point x="315" y="164"/>
			<point x="315" y="283" type="curve" smooth="yes"/>
			<point x="315" y="442"/>
			<point x="203" y="449"/>
			<point x="203" y="532" type="curve" smooth="yes"/>
			<point x="203" y="575"/>
			<point x="238" y="610"/>
			<point x="296" y="610" type="curve" smooth="yes"/>
			<point x="352" y="610"/>
			<point x="388" y="574"/>
			<point x="393" y="530" type="curve"/>
			<point x="543" y="530" type="line"/>
			<point x="534" y="654"/>
			<point x="442" y="740"/>
			<point x="300" y="740" type="curve" smooth="yes"/>
			<point x="149" y="740"/>
			<point x="53" y="652"/>
			<point x="53" y="540" type="curve" smooth="yes"/>
			<point x="53" y="413"/>
			<point x="184" y="408"/>
			<point x="184" y="274" type="curve" smooth="yes"/>
			<point x="184" y="206"/>
			<point x="75" y="160"/>
		</contour>
		<contour>
			<point x="65" y="285" type="line"/>
			<point x="435" y="285" type="line"/>
			<point x="435" y="405" type="line"/>
			<point x="65" y="405" type="line"/>
		</contour>
	</outline>
</glyph>
<glyph name="yen" format="2">
	<advance width="600"/>
	<unicode hex="00A5"/>
	<outline>
		<contour>
			<point x="60" y="260" type="line"/>
			<point x="540" y="260" type="line"/>
			<point x="540" y="365" type="line"/>
			<point x="60" y="365" type="line"/>
		</contour>
		<contour>
			<point x="60" y="100" type="line"/>
			<point x="540" y="100" type="line"/>
			<point x="540" y="205" type="line"/>
			<point x="60" y="205" type="line"/>
		</contour>
		<component base="Y"/>
	</outline>
</glyph>
<glyph name="brokenbar" format="2">
	<advance width="600"/>
	<unicode hex="00A6"/>
	<outline>
		<contour>
			<point x="225" y="450" type="line"/>
			<point x="375" y="450" type="line"/>
			<point x="375" y="830" type="line"/>
			<point x="225" y="830" type="line"/>
		</contour>
		<contour>
			<point x="225" y="-110" type="line"/>
			<point x="375" y="-110" type="line"/>
			<point x="375" y="270" type="line"/>
			<point x="225" y="270" type="line"/>
		</contour>
	</outline>
</glyph>
<glyph name="section" format="2">
	<advance width="600"/>
	<unicode hex="00A7"/>
	<outline>
		<contour>
			<point x="284" y="-155" type="curve" smooth="yes"/>
			<point x="314" y="-155" type="line" smooth="yes"/>
			<point x="467" y="-155"/>
			<point x="555" y="-88"/>
			<point x="555" y="19" type="curve" smooth="yes"/>
			<point x="555" y="155"/>
			<point x="413" y="175"/>
			<point x="413" y="175" type="curve"/>
			<point x="413" y="182" type="line"/>
			<point x="504" y="189"/>
			<point x="555" y="237"/>
			<point x="555" y="314" type="curve" smooth="yes"/>
			<point x="555" y="395"/>
			<point x="489" y="460"/>
			<point x="371" y="485" type="curve" smooth="yes"/>
			<point x="268" y="507" type="line" smooth="yes"/>
			<point x="221" y="517"/>
			<point x="200" y="539"/>
			<point x="200" y="570" type="curve" smooth="yes"/>
			<point x="200" y="605"/>
			<point x="228" y="628"/>
			<point x="284" y="628" type="curve" smooth="yes"/>
			<point x="314" y="628" type="line" smooth="yes"/>
			<point x="361" y="628"/>
			<point x="391" y="609"/>
			<point x="396" y="588" type="curve"/>
			<point x="546" y="588" type="line"/>
			<point x="534" y="685"/>
			<point x="450" y="740"/>
			<point x="314" y="740" type="curve" smooth="yes"/>
			<point x="284" y="740" type="line" smooth="yes"/>
			<point x="140" y="740"/>
			<point x="55" y="673"/>
			<point x="55" y="566" type="curve" smooth="yes"/>
			<point x="55" y="441"/>
			<point x="196" y="410"/>
			<point x="196" y="410" type="curve"/>
			<point x="196" y="403" type="line"/>
			<point x="105" y="395"/>
			<point x="55" y="349"/>
			<point x="55" y="271" type="curve" smooth="yes"/>
			<point x="55" y="191"/>
			<point x="123" y="132"/>
			<point x="237" y="108" type="curve" smooth="yes"/>
			<point x="330" y="88" type="line" smooth="yes"/>
			<point x="386" y="76"/>
			<point x="410" y="55"/>
			<point x="410" y="23" type="curve" smooth="yes"/>
			<point x="410" y="-16"/>
			<point x="374" y="-43"/>
			<point x="314" y="-43" type="curve" smooth="yes"/>
			<point x="284" y="-43" type="line" smooth="yes"/>
			<point x="239" y="-43"/>
			<point x="203" y="-25"/>
			<point x="195" y="2" type="curve"/>
			<point x="45" y="2" type="line"/>
			<point x="58" y="-98"/>
			<point x="144" y="-155"/>
		</contour>
		<contour>
			<point x="314" y="207" type="curve" smooth="yes"/>
			<point x="259" y="218" type="line" smooth="yes"/>
			<point x="223" y="225"/>
			<point x="199" y="259"/>
			<point x="199" y="304" type="curve" smooth="yes"/>
			<point x="199" y="365"/>
			<point x="233" y="398"/>
			<point x="285" y="387" type="curve" smooth="yes"/>
			<point x="340" y="375" type="line" smooth="yes"/>
			<point x="382" y="366"/>
			<point x="410" y="331"/>
			<point x="410" y="288" type="curve" smooth="yes"/>
			<point x="410" y="228"/>
			<point x="372" y="195"/>
		</contour>
	</outline>
</glyph>
<glyph name="dieresis" format="2">
	<advance width="600"/>
	<unicode hex="00A8"/>
	<outline>
		<contour>
			<point x="422" y="640" type="curve" smooth="yes"/>
			<point x="470" y="640"/>
			<point x="502" y="670"/>
			<point x="502" y="715" type="curve" smooth="yes"/>
			<point x="502" y="760"/>
			<point x="470" y="790"/>
			<point x="422" y="790" type="curve" smooth="yes"/>
			<point x="374" y="790"/>
			<point x="342" y="760"/>
			<point x="342" y="715" type="curve" smooth="yes"/>
			<point x="342" y="670"/>
			<point x="374" y="640"/>
		</contour>
		<contour>
			<point x="178" y="640" type="curve" smooth="yes"/>
			<point x="226" y="640"/>
			<point x="258" y="670"/>
			<point x="258" y="715" type="curve" smooth="yes"/>
			<point x="258" y="760"/>
			<point x="226" y="790"/>
			<point x="178" y="790" type="curve" smooth="yes"/>
			<point x="130" y="790"/>
			<point x="98" y="760"/>
			<point x="98" y="715" type="curve" smooth="yes"/>
			<point x="98" y="670"/>
			<point x="130" y="640"/>
		</contour>
	</outline>
</glyph>
<glyph name="copyright" format="2">
	<advance width="600"/>
	<unicode hex="00A9"/>
	<outline>
		<contour>
			<point x="300" y="110" type="curve" smooth="yes"/>
			<point x="453" y="110"/>
			<point x="555" y="206"/>
			<point x="555" y="350" type="curve" smooth="yes"/>
			<point x="555" y="500" type="line" smooth="yes"/>
			<point x="555" y="644"/>
			<point x="453" y="740"/>
			<point x="300" y="740" type="curve" smooth="yes"/>
			<point x="147" y="740"/>
			<point x="45" y="644"/>
			<point x="45" y="500" type="curve" smooth="yes"/>
			<point x="45" y="350" type="line" smooth="yes"/>
			<point x="45" y="206"/>
			<point x="147" y="110"/>
		</contour>
		<contour>
			<point x="300" y="160" type="curve" smooth="yes"/>
			<point x="181" y="160"/>
			<point x="100" y="236"/>
			<point x="100" y="350" type="curve" smooth="yes"/>
			<point x="100" y="500" type="line" smooth="yes"/>
			<point x="100" y="614"/>
			<point x="181" y="690"/>
			<point x="300" y="690" type="curve" smooth="yes"/>
			<point x="420" y="690"/>
			<point x="500" y="614"/>
			<point x="500" y="500" type="curve" smooth="yes"/>
			<point x="500" y="350" type="line" smooth="yes"/>
			<point x="500" y="236"/>
			<point x="420" y="160"/>
		</contour>
		<contour>
			<point x="305" y="245" type="curve" smooth="yes"/>
			<point x="385" y="245"/>
			<point x="439" y="295"/>
			<point x="439" y="370" type="curve"/>
			<point x="354" y="370" type="line"/>
			<point x="354" y="340"/>
			<point x="334" y="320"/>
			<point x="305" y="320" type="curve" smooth="yes"/>
			<point x="275" y="320"/>
			<point x="255" y="340"/>
			<point x="255" y="370" type="curve" smooth="yes"/>
			<point x="255" y="480" type="line" smooth="yes"/>
			<point x="255" y="510"/>
			<point x="275" y="530"/>
			<point x="305" y="530" type="curve" smooth="yes"/>
			<point x="334" y="530"/>
			<point x="354" y="510"/>
			<point x="354" y="480" type="curve"/>
			<point x="439" y="480" type="line"/>
			<point x="439" y="555"/>
			<point x="385" y="605"/>
			<point x="305" y="605" type="curve" smooth="yes"/>
			<point x="224" y="605"/>
			<point x="170" y="555"/>
			<point x="170" y="480" type="curve" smooth="yes"/>
			<point x="170" y="370" type="line" smooth="yes"/>
			<point x="170" y="295"/>
			<point x="224" y="245"/>
		</contour>
	</outline>
</glyph>
<glyph name="guillemotleft" format="2">
	<advance width="600"/>
	<unicode hex="00AB"/>
	<outline>
		<contour>
			<point x="428" y="40" type="line"/>
			<point x="585" y="40" type="line"/>
			<point x="417" y="282" type="line"/>
			<point x="585" y="520" type="line"/>
			<point x="430" y="520" type="line"/>
			<point x="265" y="280" type="line"/>
		</contour>
		<contour>
			<point x="178" y="40" type="line"/>
			<point x="335" y="40" type="line"/>
			<point x="167" y="282" type="line"/>
			<point x="335" y="520" type="line"/>
			<point x="180" y="520" type="line"/>
			<point x="15" y="280" type="line"/>
		</contour>
	</outline>
</glyph>
<glyph name="uni00AD" format="2">
	<advance width="600"/>
	<unicode hex="00AD"/>
	<outline>
		<contour>
			<point x="140" y="260" type="line"/>
			<point x="460" y="260" type="line"/>
			<point x="460" y="400" type="line"/>
			<point x="140" y="400" type="line"/>
		</contour>
	</outline>
</glyph>
<glyph name="uni00B2" format="2">
	<advance width="600"/>
	<unicode hex="00B2"/>
	<outline>
		<contour>
			<point x="153" y="405" type="line"/>
			<point x="468" y="405" type="line"/>
			<point x="468" y="488" type="line"/>
			<point x="264" y="488" type="line"/>
			<point x="374" y="556" type="line" smooth="yes"/>
			<point x="427" y="589"/>
			<point x="462" y="644"/>
			<point x="462" y="695" type="curve" smooth="yes"/>
			<point x="462" y="783"/>
			<point x="399" y="840"/>
			<point x="302" y="840" type="curve" smooth="yes"/>
			<point x="205" y="840"/>
			<point x="142" y="783"/>
			<point x="142" y="694" type="curve"/>
			<point x="237" y="694" type="line"/>
			<point x="237" y="733"/>
			<point x="263" y="758"/>
			<point x="302" y="758" type="curve" smooth="yes"/>
			<point x="341" y="758"/>
			<point x="367" y="733"/>
			<point x="367" y="694" type="curve" smooth="yes"/>
			<point x="367" y="665"/>
			<point x="351" y="635"/>
			<point x="327" y="619" type="curve" smooth="yes"/>
			<point x="153" y="502" type="line"/>
		</contour>
	</outline>
</glyph>
<glyph name="uni00B3" format="2">
	<advance width="600"/>
	<unicode hex="00B3"/>
	<outline>
		<contour>
			<point x="284" y="395" type="curve" smooth="yes"/>
			<point x="380" y="395"/>
			<point x="445" y="451"/>
			<point x="445" y="542" type="curve" smooth="yes"/>
			<point x="445" y="622"/>
			<point x="388" y="674"/>
			<point x="305" y="674" type="curve"/>
			<point x="305" y="639" type="line"/>
			<point x="417" y="741" type="line"/>
			<point x="417" y="830" type="line"/>
			<point x="153" y="830" type="line"/>
			<point x="153" y="747" type="line"/>
			<point x="334" y="747" type="line"/>
			<point x="255" y="675" type="line"/>
			<point x="255" y="609" type="line"/>
			<point x="285" y="609" type="line" smooth="yes"/>
			<point x="325" y="609"/>
			<point x="350" y="584"/>
			<point x="350" y="542" type="curve" smooth="yes"/>
			<point x="350" y="498"/>
			<point x="325" y="477"/>
			<point x="284" y="477" type="curve" smooth="yes"/>
			<point x="242" y="477"/>
			<point x="215" y="498"/>
			<point x="215" y="540" type="curve"/>
			<point x="120" y="540" type="line"/>
			<point x="120" y="451"/>
			<point x="186" y="395"/>
		</contour>
	</outline>
</glyph>
<glyph name="acute" format="2">
	<advance width="600"/>
	<unicode hex="00B4"/>
	<outline>
		<contour>
			<point x="180" y="645" type="line"/>
			<point x="320" y="645" type="line"/>
			<point x="450" y="785" type="line"/>
			<point x="300" y="785" type="line"/>
		</contour>
	</outline>
</glyph>
<glyph name="paragraph" format="2">
	<advance width="600"/>
	<unicode hex="00B6"/>
	<outline>
		<contour>
			<point x="240" y="310" type="curve"/>
			<point x="240" y="-180" type="line"/>
			<point x="350" y="-180" type="line"/>
			<point x="350" y="730" type="line"/>
			<point x="240" y="730" type="line" smooth="yes"/>
			<point x="126" y="730"/>
			<point x="50" y="662"/>
			<point x="50" y="560" type="curve" smooth="yes"/>
			<point x="50" y="480" type="line" smooth="yes"/>
			<point x="50" y="378"/>
			<point x="126" y="310"/>
		</contour>
		<contour>
			<point x="420" y="-180" type="line"/>
			<point x="530" y="-180" type="line"/>
			<point x="530" y="730" type="line"/>
			<point x="420" y="730" type="line"/>
		</contour>
	</outline>
</glyph>
<glyph name="cedilla" format="2">
	<advance width="600"/>
	<unicode hex="00B8"/>
	<outline>
		<contour>
			<point x="190" y="-225" type="line"/>
			<point x="300" y="-225" type="line" smooth="yes"/>
			<point x="384" y="-225"/>
			<point x="440" y="-182"/>
			<point x="440" y="-133" type="curve" smooth="yes"/>
			<point x="440" y="-49"/>
			<point x="298" y="-39"/>
			<point x="298" y="-39" type="curve"/>
			<point x="317" y="16" type="line"/>
			<point x="244" y="16" type="line"/>
			<point x="209" y="-69" type="line"/>
			<point x="282" y="-69"/>
			<point x="325" y="-88"/>
			<point x="325" y="-119" type="curve" smooth="yes"/>
			<point x="325" y="-135"/>
			<point x="303" y="-155"/>
			<point x="270" y="-155" type="curve" smooth="yes"/>
			<point x="190" y="-155" type="line"/>
		</contour>
	</outline>
</glyph>
<glyph name="uni00B9" format="2">
	<advance width="600"/>
	<unicode hex="00B9"/>
	<outline>
		<contour>
			<point x="145" y="405" type="line"/>
			<point x="475" y="405" type="line"/>
			<point x="475" y="490" type="line"/>
			<point x="373" y="490" type="line"/>
			<point x="373" y="830" type="line"/>
			<point x="253" y="830" type="line"/>
			<point x="154" y="756" type="line"/>
			<point x="154" y="658" type="line"/>
			<point x="278" y="747" type="line"/>
			<point x="278" y="490" type="line"/>
			<point x="145" y="490" type="line"/>
		</contour>
	</outline>
</glyph>
<glyph name="ordmasculine" format="2">
	<advance width="600"/>
	<unicode hex="00BA"/>
	<outline>
		<contour>
			<point x="300" y="450" type="curve" smooth="yes"/>
			<point x="381" y="450"/>
			<point x="435" y="502"/>
			<point x="435" y="571" type="curve" smooth="yes"/>
			<point x="435" y="620" type="line" smooth="yes"/>
			<point x="435" y="692"/>
			<point x="381" y="740"/>
			<point x="300" y="740" type="curve" smooth="yes"/>
			<point x="219" y="740"/>
			<point x="165" y="692"/>
			<point x="165" y="620" type="curve" smooth="yes"/>
			<point x="165" y="571" type="line" smooth="yes"/>
			<point x="165" y="502"/>
			<point x="219" y="450"/>
		</contour>
		<contour>
			<point x="300" y="520" type="curve" smooth="yes"/>
			<point x="267" y="520"/>
			<point x="245" y="540"/>
			<point x="245" y="571" type="curve" smooth="yes"/>
			<point x="245" y="620" type="line" smooth="yes"/>
			<point x="245" y="650"/>
			<point x="267" y="670"/>
			<point x="300" y="670" type="curve" smooth="yes"/>
			<point x="333" y="670"/>
			<point x="355" y="650"/>
			<point x="355" y="620" type="curve" smooth="yes"/>
			<point x="355" y="571" type="line" smooth="yes"/>
			<point x="355" y="540"/>
			<point x="333" y="520"/>
		</contour>
	</outline>
</glyph>
<glyph name="guillemotright" format="2">
	<advance width="600"/>
	<unicode hex="00BB"/>
	<outline>
		<contour>
			<point x="265" y="40" type="line"/>
			<point x="420" y="40" type="line"/>
			<point x="585" y="280" type="line"/>
			<point x="422" y="520" type="line"/>
			<point x="265" y="520" type="line"/>
			<point x="432" y="280" type="line"/>
		</contour>
		<contour>
			<point x="15" y="40" type="line"/>
			<point x="170" y="40" type="line"/>
			<point x="335" y="280" type="line"/>
			<point x="172" y="520" type="line"/>
			<point x="15" y="520" type="line"/>
			<point x="182" y="280" type="line"/>
		</contour>
	</outline>
</glyph>
<glyph name="onequarter" format="2">
	<advance width="600"/>
	<unicode hex="00BC"/>
	<outline>
		<contour>
			<point x="37" y="404" type="line"/>
			<point x="331" y="404" type="line"/>
			<point x="331" y="479" type="line"/>
			<point x="241" y="479" type="line"/>
			<point x="241" y="729" type="line"/>
			<point x="126" y="729" type="line"/>
			<point x="51" y="675" type="line"/>
			<point x="51" y="577" type="line"/>
			<point x="112" y="624" type="line" smooth="yes"/>
			<point x="133" y="640"/>
			<point x="151" y="667"/>
			<point x="151" y="667" type="curve"/>
			<point x="151" y="479" type="line"/>
			<point x="37" y="479" type="line"/>
		</contour>
		<contour>
			<point x="459" y="0" type="line"/>
			<point x="549" y="0" type="line"/>
			<point x="549" y="205" type="line"/>
			<point x="459" y="205" type="line"/>
			<point x="459" y="130" type="line"/>
			<point x="384" y="130" type="line"/>
			<point x="384" y="146" type="line"/>
			<point x="519" y="325" type="line"/>
			<point x="420" y="325" type="line"/>
			<point x="294" y="160" type="line"/>
			<point x="294" y="60" type="line"/>
			<point x="459" y="60" type="line"/>
		</contour>
		<component base="fraction"/>
	</outline>
</glyph>
<glyph name="onehalf" format="2">
	<advance width="600"/>
	<unicode hex="00BD"/>
	<outline>
		<contour>
			<point x="69" y="0" type="line"/>
			<point x="150" y="0" type="line"/>
			<point x="531" y="730" type="line"/>
			<point x="450" y="730" type="line"/>
		</contour>
		<contour>
			<point x="310" y="0" type="line"/>
			<point x="585" y="0" type="line"/>
			<point x="585" y="75" type="line"/>
			<point x="485" y="75" type="line" smooth="yes"/>
			<point x="460" y="75"/>
			<point x="425" y="70"/>
			<point x="425" y="70" type="curve"/>
			<point x="425" y="79" type="line"/>
			<point x="483" y="110" type="line" smooth="yes"/>
			<point x="549" y="145"/>
			<point x="580" y="180"/>
			<point x="580" y="227" type="curve" smooth="yes"/>
			<point x="580" y="289"/>
			<point x="527" y="330"/>
			<point x="448" y="330" type="curve" smooth="yes"/>
			<point x="367" y="330"/>
			<point x="310" y="283"/>
			<point x="310" y="216" type="curve"/>
			<point x="400" y="216" type="line"/>
			<point x="400" y="242"/>
			<point x="419" y="260"/>
			<point x="448" y="260" type="curve" smooth="yes"/>
			<point x="473" y="260"/>
			<point x="490" y="244"/>
			<point x="490" y="219" type="curve" smooth="yes"/>
			<point x="490" y="199"/>
			<point x="479" y="184"/>
			<point x="453" y="169" type="curve" smooth="yes"/>
			<point x="310" y="89" type="line"/>
		</contour>
		<contour>
			<point x="37" y="406" type="line"/>
			<point x="331" y="406" type="line"/>
			<point x="331" y="481" type="line"/>
			<point x="241" y="481" type="line"/>
			<point x="241" y="731" type="line"/>
			<point x="126" y="731" type="line"/>
			<point x="51" y="677" type="line"/>
			<point x="51" y="579" type="line"/>
			<point x="112" y="626" type="line" smooth="yes"/>
			<point x="133" y="642"/>
			<point x="151" y="669"/>
			<point x="151" y="669" type="curve"/>
			<point x="151" y="481" type="line"/>
			<point x="37" y="481" type="line"/>
		</contour>
	</outline>
</glyph>
<glyph name="threequarters" format="2">
	<advance width="600"/>
	<unicode hex="00BE"/>
	<outline>
		<contour>
			<point x="459" y="0" type="line"/>
			<point x="549" y="0" type="line"/>
			<point x="549" y="205" type="line"/>
			<point x="459" y="205" type="line"/>
			<point x="459" y="130" type="line"/>
			<point x="384" y="130" type="line"/>
			<point x="384" y="146" type="line"/>
			<point x="519" y="325" type="line"/>
			<point x="420" y="325" type="line"/>
			<point x="294" y="160" type="line"/>
			<point x="294" y="60" type="line"/>
			<point x="459" y="60" type="line"/>
		</contour>
		<contour>
			<point x="155" y="400" type="curve" smooth="yes"/>
			<point x="237" y="400"/>
			<point x="291" y="444"/>
			<point x="291" y="510" type="curve" smooth="yes"/>
			<point x="291" y="570"/>
			<point x="245" y="610"/>
			<point x="176" y="610" type="curve"/>
			<point x="176" y="590" type="line"/>
			<point x="276" y="668" type="line"/>
			<point x="276" y="730" type="line"/>
			<point x="41" y="730" type="line"/>
			<point x="41" y="665" type="line"/>
			<point x="188" y="665" type="line"/>
			<point x="126" y="616" type="line"/>
			<point x="126" y="550" type="line"/>
			<point x="156" y="550" type="line" smooth="yes"/>
			<point x="183" y="550"/>
			<point x="201" y="534"/>
			<point x="201" y="510" type="curve" smooth="yes"/>
			<point x="201" y="486"/>
			<point x="183" y="470"/>
			<point x="155" y="470" type="curve" smooth="yes"/>
			<point x="126" y="470"/>
			<point x="107" y="484"/>
			<point x="107" y="505" type="curve"/>
			<point x="17" y="505" type="line"/>
			<point x="17" y="442"/>
			<point x="72" y="400"/>
		</contour>
		<component base="fraction"/>
	</outline>
</glyph>
<glyph name="questiondown" format="2">
	<advance width="600"/>
	<unicode hex="00BF"/>
	<outline>
		<contour>
			<point x="330" y="-170" type="curve" smooth="yes"/>
			<point x="485" y="-170" type="line"/>
			<point x="485" y="-30" type="line"/>
			<point x="320" y="-30" type="line" smooth="yes"/>
			<point x="264" y="-30"/>
			<point x="230" y="-4"/>
			<point x="230" y="40" type="curve" smooth="yes"/>
			<point x="230" y="84"/>
			<point x="264" y="110"/>
			<point x="319" y="110" type="curve" smooth="yes"/>
			<point x="419" y="110" type="line"/>
			<point x="414" y="325" type="line"/>
			<point x="289" y="325" type="line"/>
			<point x="289" y="245" type="line"/>
			<point x="164" y="245"/>
			<point x="80" y="163"/>
			<point x="80" y="40" type="curve" smooth="yes"/>
			<point x="80" y="-86"/>
			<point x="180" y="-170"/>
		</contour>
		<contour>
			<point x="341" y="415" type="curve" smooth="yes"/>
			<point x="371" y="415" type="line" smooth="yes"/>
			<point x="416" y="415"/>
			<point x="446" y="443"/>
			<point x="446" y="485" type="curve" smooth="yes"/>
			<point x="446" y="527"/>
			<point x="416" y="555"/>
			<point x="371" y="555" type="curve" smooth="yes"/>
			<point x="342" y="555" type="line" smooth="yes"/>
			<point x="296" y="555"/>
			<point x="266" y="528"/>
			<point x="266" y="486" type="curve" smooth="yes"/>
			<point x="266" y="443"/>
			<point x="296" y="415"/>
		</contour>
	</outline>
</glyph>
<glyph name="AE" format="2">
	<advance width="600"/>
	<unicode hex="00C6"/>
	<outline>
		<contour>
			<point x="0" y="0" type="line"/>
			<point x="143" y="0" type="line"/>
			<point x="169" y="165" type="line"/>
			<point x="291" y="165" type="line"/>
			<point x="291" y="0" type="line"/>
			<point x="580" y="0" type="line"/>
			<point x="580" y="126" type="line"/>
			<point x="416" y="126" type="line"/>
			<point x="416" y="305" type="line"/>
			<point x="555" y="305" type="line"/>
			<point x="555" y="436" type="line"/>
			<point x="416" y="436" type="line"/>
			<point x="416" y="605" type="line"/>
			<point x="580" y="605" type="line"/>
			<point x="580" y="730" type="line"/>
			<point x="137" y="730" type="line"/>
		</contour>
		<contour>
			<point x="186" y="270" type="line"/>
			<point x="242" y="605" type="line"/>
			<point x="291" y="605" type="line"/>
			<point x="291" y="270" type="line"/>
		</contour>
	</outline>
</glyph>
<glyph name="Oslash" format="2">
	<advance width="600"/>
	<unicode hex="00D8"/>
	<guideline x="119"/>
	<guideline x="474"/>
	<note>
		Make a bit lighter. Maybe decompose?
	</note>
	<outline>
		<contour>
			<point x="15" y="-40" type="line"/>
			<point x="133" y="-40" type="line"/>
			<point x="585" y="750" type="line"/>
			<point x="467" y="750" type="line"/>
		</contour>
		<component base="O"/>
	</outline>
</glyph>
<glyph name="Thorn" format="2">
	<advance width="600"/>
	<unicode hex="00DE"/>
	<outline>
		<contour>
			<point x="70" y="0" type="line"/>
			<point x="220" y="0" type="line"/>
			<point x="220" y="165" type="line"/>
			<point x="340" y="165" type="line" smooth="yes"/>
			<point x="483" y="165"/>
			<point x="570" y="246"/>
			<point x="570" y="380" type="curve" smooth="yes"/>
			<point x="570" y="515"/>
			<point x="484" y="595"/>
			<point x="340" y="595" type="curve" smooth="yes"/>
			<point x="220" y="595" type="line"/>
			<point x="220" y="730" type="line"/>
			<point x="70" y="730" type="line"/>
		</contour>
		<contour>
			<point x="315" y="290" type="curve" smooth="yes"/>
			<point x="220" y="290" type="line"/>
			<point x="220" y="470" type="line"/>
			<point x="315" y="470" type="line" smooth="yes"/>
			<point x="383" y="470"/>
			<point x="420" y="438"/>
			<point x="420" y="380" type="curve" smooth="yes"/>
			<point x="420" y="322"/>
			<point x="383" y="290"/>
		</contour>
	</outline>
</glyph>
<glyph name="germandbls" format="2">
	<advance width="600"/>
	<unicode hex="00DF"/>
	<outline>
		<contour>
			<point x="60" y="516" type="curve" smooth="yes"/>
			<point x="60" y="0" type="line"/>
			<point x="195" y="0" type="line"/>
			<point x="195" y="516" type="line" smooth="yes"/>
			<point x="195" y="577"/>
			<point x="234" y="615"/>
			<point x="295" y="615" type="curve" smooth="yes"/>
			<point x="357" y="615"/>
			<point x="396" y="577"/>
			<point x="396" y="517" type="curve" smooth="yes"/>
			<point x="396" y="462"/>
			<point x="361" y="428"/>
			<point x="305" y="428" type="curve" smooth="yes"/>
			<point x="260" y="428" type="line"/>
			<point x="260" y="318" type="line"/>
			<point x="307" y="318" type="line" smooth="yes"/>
			<point x="370" y="318"/>
			<point x="409" y="281"/>
			<point x="409" y="221" type="curve" smooth="yes"/>
			<point x="409" y="161"/>
			<point x="371" y="125"/>
			<point x="307" y="125" type="curve" smooth="yes"/>
			<point x="260" y="125" type="line"/>
			<point x="260" y="0" type="line"/>
			<point x="312" y="0" type="line" smooth="yes"/>
			<point x="461" y="0"/>
			<point x="560" y="84"/>
			<point x="560" y="209" type="curve" smooth="yes"/>
			<point x="560" y="322"/>
			<point x="475" y="397"/>
			<point x="350" y="395" type="curve"/>
			<point x="350" y="380" type="line"/>
			<point x="475" y="380"/>
			<point x="547" y="440"/>
			<point x="547" y="545" type="curve" smooth="yes"/>
			<point x="547" y="662"/>
			<point x="447" y="740"/>
			<point x="296" y="740" type="curve" smooth="yes"/>
			<point x="154" y="740"/>
			<point x="60" y="650"/>
		</contour>
	</outline>
</glyph>
<glyph name="eth" format="2">
	<advance width="600"/>
	<unicode hex="00F0"/>
	<outline>
		<contour>
			<point x="300" y="0" type="curve" smooth="yes"/>
			<point x="459" y="0"/>
			<point x="560" y="96"/>
			<point x="560" y="251" type="curve" smooth="yes"/>
			<point x="560" y="337"/>
			<point x="529" y="430"/>
			<point x="446" y="537" type="curve" smooth="yes"/>
			<point x="296" y="730" type="line"/>
			<point x="129" y="730" type="line"/>
			<point x="314" y="489" type="line" smooth="yes"/>
			<point x="393" y="386"/>
			<point x="391" y="375"/>
			<point x="391" y="375" type="curve"/>
			<point x="385" y="375" type="line"/>
			<point x="385" y="375"/>
			<point x="338" y="456"/>
			<point x="243" y="456" type="curve" smooth="yes"/>
			<point x="122" y="456"/>
			<point x="40" y="368"/>
			<point x="40" y="236" type="curve" smooth="yes"/>
			<point x="40" y="94"/>
			<point x="143" y="0"/>
		</contour>
		<contour>
			<point x="300" y="125" type="curve" smooth="yes"/>
			<point x="233" y="125"/>
			<point x="190" y="168"/>
			<point x="190" y="235" type="curve" smooth="yes"/>
			<point x="190" y="302"/>
			<point x="233" y="345"/>
			<point x="300" y="345" type="curve" smooth="yes"/>
			<point x="366" y="345"/>
			<point x="410" y="301"/>
			<point x="410" y="235" type="curve" smooth="yes"/>
			<point x="410" y="168"/>
			<point x="367" y="125"/>
		</contour>
		<contour>
			<point x="106" y="502" type="line"/>
			<point x="493" y="642" type="line"/>
			<point x="493" y="747" type="line"/>
			<point x="106" y="607" type="line"/>
		</contour>
	</outline>
</glyph>
<glyph name="thorn" format="2">
	<advance width="600"/>
	<unicode hex="00FE"/>
	<outline>
		<contour>
			<point x="66" y="-170" type="line"/>
			<point x="211" y="-170" type="line"/>
			<point x="211" y="50" type="line"/>
			<point x="66" y="50" type="line"/>
		</contour>
		<component base="b"/>
	</outline>
</glyph>
<glyph name="dcaron" format="2">
	<advance width="600"/>
	<unicode hex="010F"/>
	<outline>
		<contour>
			<point x="535" y="610" type="line"/>
			<point x="605" y="610" type="line"/>
			<point x="670" y="756" type="line"/>
			<point x="580" y="756" type="line"/>
		</contour>
		<component base="d" xOffset="-10"/>
	</outline>
</glyph>
<glyph name="Dcroat" format="2">
	<advance width="600"/>
	<unicode hex="0110"/>
	<outline>
		<contour>
			<point x="20" y="290" type="line"/>
			<point x="300" y="290" type="line"/>
			<point x="300" y="425" type="line"/>
			<point x="20" y="425" type="line"/>
		</contour>
		<component base="D"/>
	</outline>
</glyph>
<glyph name="dcroat" format="2">
	<advance width="600"/>
	<unicode hex="0111"/>
	<outline>
		<contour>
			<point x="243" y="-10" type="curve" smooth="yes"/>
			<point x="334" y="-10"/>
			<point x="389" y="45"/>
			<point x="389" y="140" type="curve"/>
			<point x="354" y="105" type="line"/>
			<point x="389" y="105" type="line"/>
			<point x="389" y="0" type="line"/>
			<point x="534" y="0" type="line"/>
			<point x="534" y="730" type="line"/>
			<point x="384" y="730" type="line"/>
			<point x="384" y="520" type="line"/>
			<point x="389" y="385" type="line"/>
			<point x="354" y="385" type="line"/>
			<point x="389" y="350" type="line"/>
			<point x="389" y="445"/>
			<point x="334" y="500"/>
			<point x="243" y="500" type="curve" smooth="yes"/>
			<point x="132" y="500"/>
			<point x="60" y="416"/>
			<point x="60" y="285" type="curve" smooth="yes"/>
			<point x="60" y="205" type="line" smooth="yes"/>
			<point x="60" y="73"/>
			<point x="132" y="-10"/>
		</contour>
		<contour>
			<point x="297" y="120" type="curve" smooth="yes"/>
			<point x="241" y="120"/>
			<point x="210" y="152"/>
			<point x="210" y="210" type="curve" smooth="yes"/>
			<point x="210" y="280" type="line" smooth="yes"/>
			<point x="210" y="337"/>
			<point x="241" y="370"/>
			<point x="297" y="370" type="curve" smooth="yes"/>
			<point x="352" y="370"/>
			<point x="384" y="337"/>
			<point x="384" y="280" type="curve" smooth="yes"/>
			<point x="384" y="210" type="line" smooth="yes"/>
			<point x="384" y="152"/>
			<point x="352" y="120"/>
		</contour>
		<contour>
			<point x="240" y="555" type="line"/>
			<point x="600" y="555" type="line"/>
			<point x="600" y="645" type="line"/>
			<point x="240" y="645" type="line"/>
		</contour>
	</outline>
</glyph>
<glyph name="IJ" format="2">
	<advance width="600"/>
	<unicode hex="0132"/>
	<outline>
		<contour>
			<point x="255" y="0" type="line"/>
			<point x="305" y="0" type="line" smooth="yes"/>
			<point x="465" y="0"/>
			<point x="555" y="81"/>
			<point x="555" y="224" type="curve" smooth="yes"/>
			<point x="555" y="720" type="line"/>
			<point x="265" y="720" type="line"/>
			<point x="265" y="580" type="line"/>
			<point x="405" y="580" type="line"/>
			<point x="405" y="224" type="line" smooth="yes"/>
			<point x="405" y="164"/>
			<point x="369" y="130"/>
			<point x="305" y="130" type="curve" smooth="yes"/>
			<point x="255" y="130" type="line"/>
		</contour>
		<contour>
			<point x="45" y="0" type="line"/>
			<point x="195" y="0" type="line"/>
			<point x="195" y="720" type="line"/>
			<point x="45" y="720" type="line"/>
		</contour>
	</outline>
</glyph>
<glyph name="ij" format="2">
	<advance width="600"/>
	<unicode hex="0133"/>
	<outline>
		<contour>
			<point x="220" y="-165" type="line"/>
			<point x="299" y="-165" type="line"/>
			<point x="435" y="-165"/>
			<point x="531" y="-84"/>
			<point x="531" y="30" type="curve" smooth="yes"/>
			<point x="531" y="550" type="line"/>
			<point x="381" y="550" type="line"/>
			<point x="381" y="30" type="line" smooth="yes"/>
			<point x="381" y="-11"/>
			<point x="351" y="-35"/>
			<point x="299" y="-35" type="curve"/>
			<point x="220" y="-35" type="line"/>
		</contour>
		<contour>
			<point x="81" y="0" type="line"/>
			<point x="221" y="0" type="line"/>
			<point x="221" y="550" type="line"/>
			<point x="81" y="550" type="line"/>
		</contour>
		<contour>
			<point x="132" y="625" type="curve" smooth="yes"/>
			<point x="161" y="625" type="line" smooth="yes"/>
			<point x="207" y="625"/>
			<point x="237" y="652"/>
			<point x="237" y="695" type="curve" smooth="yes"/>
			<point x="237" y="737"/>
			<point x="207" y="765"/>
			<point x="162" y="765" type="curve" smooth="yes"/>
			<point x="132" y="765" type="line" smooth="yes"/>
			<point x="87" y="765"/>
			<point x="57" y="737"/>
			<point x="57" y="695" type="curve" smooth="yes"/>
			<point x="57" y="653"/>
			<point x="87" y="625"/>
		</contour>
		<contour>
			<point x="437" y="625" type="curve" smooth="yes"/>
			<point x="466" y="625" type="line" smooth="yes"/>
			<point x="512" y="625"/>
			<point x="542" y="652"/>
			<point x="542" y="695" type="curve" smooth="yes"/>
			<point x="542" y="737"/>
			<point x="512" y="765"/>
			<point x="467" y="765" type="curve" smooth="yes"/>
			<point x="437" y="765" type="line" smooth="yes"/>
			<point x="392" y="765"/>
			<point x="362" y="737"/>
			<point x="362" y="695" type="curve" smooth="yes"/>
			<point x="362" y="653"/>
			<point x="392" y="625"/>
		</contour>
	</outline>
</glyph>
<glyph name="lslash" format="2">
	<advance width="600"/>
	<unicode hex="0142"/>
	<guideline y="730"/>
	<outline>
		<contour>
			<point x="100" y="230" type="line"/>
			<point x="480" y="420" type="line"/>
			<point x="480" y="560" type="line"/>
			<point x="100" y="370" type="line"/>
		</contour>
		<component base="l"/>
	</outline>
</glyph>
<glyph name="Eng" format="2">
	<advance width="600"/>
	<unicode hex="014A"/>
	<outline>
		<contour>
			<point x="250" y="-180" type="line"/>
			<point x="300" y="-180" type="line" smooth="yes"/>
			<point x="441" y="-180"/>
			<point x="540" y="-96"/>
			<point x="540" y="25" type="curve" smooth="yes"/>
			<point x="540" y="730" type="line"/>
			<point x="540" y="730"/>
			<point x="439" y="730"/>
			<point x="408" y="730" type="curve"/>
			<point x="408" y="526" type="line" smooth="yes"/>
			<point x="408" y="431"/>
			<point x="424" y="261"/>
			<point x="424" y="261" type="curve"/>
			<point x="235" y="730" type="line"/>
			<point x="60" y="730" type="line"/>
			<point x="60" y="0" type="line"/>
			<point x="60" y="0"/>
			<point x="161" y="0"/>
			<point x="192" y="0" type="curve"/>
			<point x="192" y="320" type="line" smooth="yes"/>
			<point x="192" y="415"/>
			<point x="178" y="565"/>
			<point x="178" y="565" type="curve"/>
			<point x="390" y="41" type="line"/>
			<point x="390" y="-7"/>
			<point x="361" y="-35"/>
			<point x="310" y="-35" type="curve" smooth="yes"/>
			<point x="250" y="-35" type="line"/>
		</contour>
	</outline>
</glyph>
<glyph name="eng" format="2">
	<advance width="600"/>
	<unicode hex="014B"/>
	<outline>
		<contour>
			<point x="246" y="-180" type="line"/>
			<point x="296" y="-180" type="line" smooth="yes"/>
			<point x="437" y="-180"/>
			<point x="536" y="-96"/>
			<point x="536" y="25" type="curve" smooth="yes"/>
			<point x="536" y="355" type="line" smooth="yes"/>
			<point x="536" y="479"/>
			<point x="466" y="560"/>
			<point x="359" y="560" type="curve" smooth="yes"/>
			<point x="268" y="560"/>
			<point x="211" y="503"/>
			<point x="211" y="410" type="curve"/>
			<point x="255" y="445" type="line"/>
			<point x="211" y="445" type="line"/>
			<point x="211" y="550" type="line"/>
			<point x="66" y="550" type="line"/>
			<point x="66" y="0" type="line"/>
			<point x="216" y="0" type="line"/>
			<point x="216" y="340" type="line" smooth="yes"/>
			<point x="216" y="397"/>
			<point x="247" y="430"/>
			<point x="300" y="430" type="curve" smooth="yes"/>
			<point x="354" y="430"/>
			<point x="386" y="397"/>
			<point x="386" y="340" type="curve" smooth="yes"/>
			<point x="386" y="41" type="line" smooth="yes"/>
			<point x="386" y="-7"/>
			<point x="357" y="-35"/>
			<point x="306" y="-35" type="curve" smooth="yes"/>
			<point x="246" y="-35" type="line"/>
		</contour>
	</outline>
</glyph>
<glyph name="OE" format="2">
	<advance width="600"/>
	<unicode hex="0152"/>
	<outline>
		<contour>
			<point x="175" y="-4" type="curve" smooth="yes"/>
			<point x="274" y="-4"/>
			<point x="285" y="86"/>
			<point x="285" y="86" type="curve"/>
			<point x="290" y="86" type="line"/>
			<point x="290" y="0" type="line"/>
			<point x="580" y="0" type="line"/>
			<point x="580" y="126" type="line"/>
			<point x="419" y="126" type="line"/>
			<point x="419" y="311" type="line"/>
			<point x="555" y="311" type="line"/>
			<point x="555" y="437" type="line"/>
			<point x="419" y="437" type="line"/>
			<point x="419" y="605" type="line"/>
			<point x="580" y="605" type="line"/>
			<point x="580" y="730" type="line"/>
			<point x="290" y="730" type="line"/>
			<point x="290" y="650" type="line"/>
			<point x="285" y="650" type="line"/>
			<point x="285" y="650"/>
			<point x="274" y="740"/>
			<point x="175" y="740" type="curve" smooth="yes"/>
			<point x="84" y="740"/>
			<point x="30" y="666"/>
			<point x="30" y="541" type="curve" smooth="yes"/>
			<point x="30" y="195" type="line" smooth="yes"/>
			<point x="30" y="70"/>
			<point x="84" y="-4"/>
		</contour>
		<contour>
			<point x="227" y="121" type="curve" smooth="yes"/>
			<point x="192" y="121"/>
			<point x="170" y="149"/>
			<point x="170" y="195" type="curve" smooth="yes"/>
			<point x="170" y="541" type="line" smooth="yes"/>
			<point x="170" y="587"/>
			<point x="192" y="615"/>
			<point x="227" y="615" type="curve" smooth="yes"/>
			<point x="263" y="615"/>
			<point x="284" y="588"/>
			<point x="284" y="541" type="curve" smooth="yes"/>
			<point x="284" y="195" type="line" smooth="yes"/>
			<point x="284" y="148"/>
			<point x="263" y="121"/>
		</contour>
	</outline>
</glyph>
<glyph name="oe" format="2">
	<advance width="600"/>
	<unicode hex="0153"/>
	<outline>
		<contour>
			<point x="180" y="-10" type="curve" smooth="yes"/>
			<point x="282" y="-10"/>
			<point x="296" y="65"/>
			<point x="296" y="65" type="curve"/>
			<point x="304" y="65" type="line"/>
			<point x="304" y="65"/>
			<point x="315" y="-10"/>
			<point x="420" y="-10" type="curve" smooth="yes"/>
			<point x="507" y="-10"/>
			<point x="565" y="50"/>
			<point x="565" y="140" type="curve"/>
			<point x="450" y="140" type="line"/>
			<point x="450" y="106"/>
			<point x="433" y="87"/>
			<point x="404" y="87" type="curve" smooth="yes"/>
			<point x="375" y="87"/>
			<point x="357" y="107"/>
			<point x="357" y="140" type="curve" smooth="yes"/>
			<point x="357" y="250" type="line"/>
			<point x="565" y="250" type="line"/>
			<point x="565" y="410" type="line" smooth="yes"/>
			<point x="565" y="500"/>
			<point x="507" y="560"/>
			<point x="420" y="560" type="curve" smooth="yes"/>
			<point x="315" y="560"/>
			<point x="304" y="485"/>
			<point x="304" y="485" type="curve"/>
			<point x="296" y="485" type="line"/>
			<point x="296" y="485"/>
			<point x="282" y="560"/>
			<point x="180" y="560" type="curve" smooth="yes"/>
			<point x="93" y="560"/>
			<point x="35" y="500"/>
			<point x="35" y="410" type="curve" smooth="yes"/>
			<point x="35" y="140" type="line" smooth="yes"/>
			<point x="35" y="50"/>
			<point x="93" y="-10"/>
		</contour>
		<contour>
			<point x="197" y="87" type="curve" smooth="yes"/>
			<point x="168" y="87"/>
			<point x="150" y="107"/>
			<point x="150" y="140" type="curve" smooth="yes"/>
			<point x="150" y="410" type="line" smooth="yes"/>
			<point x="150" y="443"/>
			<point x="168" y="463"/>
			<point x="197" y="463" type="curve" smooth="yes"/>
			<point x="226" y="463"/>
			<point x="243" y="444"/>
			<point x="243" y="410" type="curve" smooth="yes"/>
			<point x="243" y="140" type="line" smooth="yes"/>
			<point x="243" y="106"/>
			<point x="226" y="87"/>
		</contour>
		<contour>
			<point x="357" y="330" type="line"/>
			<point x="357" y="410" type="line" smooth="yes"/>
			<point x="357" y="443"/>
			<point x="374" y="463"/>
			<point x="404" y="463" type="curve" smooth="yes"/>
			<point x="433" y="463"/>
			<point x="450" y="444"/>
			<point x="450" y="410" type="curve" smooth="yes"/>
			<point x="450" y="330" type="line"/>
		</contour>
	</outline>
</glyph>
<glyph name="Tbar" format="2">
	<advance width="600"/>
	<unicode hex="0166"/>
	<outline>
		<contour>
			<point x="100" y="275" type="line"/>
			<point x="500" y="275" type="line"/>
			<point x="500" y="390" type="line"/>
			<point x="100" y="390" type="line"/>
		</contour>
		<component base="T"/>
	</outline>
</glyph>
<glyph name="longs" format="2">
	<advance width="600"/>
	<unicode hex="017F"/>
	<outline>
		<contour>
			<point x="135" y="525" type="curve" smooth="yes"/>
			<point x="135" y="0" type="line"/>
			<point x="285" y="0" type="line"/>
			<point x="285" y="525" type="line" smooth="yes"/>
			<point x="285" y="570"/>
			<point x="315" y="600"/>
			<point x="360" y="600" type="curve" smooth="yes"/>
			<point x="535" y="600" type="line"/>
			<point x="535" y="730" type="line"/>
			<point x="350" y="730" type="line" smooth="yes"/>
			<point x="219" y="730"/>
			<point x="135" y="650"/>
		</contour>
	</outline>
</glyph>
<glyph name="uni018F" format="2">
	<advance width="600"/>
	<unicode hex="018F"/>
	<outline>
		<contour>
			<point x="301" y="-10" type="curve" smooth="yes"/>
			<point x="448" y="-10"/>
			<point x="540" y="78"/>
			<point x="540" y="210" type="curve" smooth="yes"/>
			<point x="540" y="520" type="line" smooth="yes"/>
			<point x="540" y="653"/>
			<point x="448" y="740"/>
			<point x="301" y="740" type="curve" smooth="yes"/>
			<point x="155" y="740"/>
			<point x="62" y="654"/>
			<point x="62" y="520" type="curve"/>
			<point x="212" y="520" type="line"/>
			<point x="212" y="578"/>
			<point x="241" y="610"/>
			<point x="301" y="610" type="curve" smooth="yes"/>
			<point x="361" y="610"/>
			<point x="390" y="578"/>
			<point x="390" y="520" type="curve"/>
			<point x="390" y="416" type="line"/>
			<point x="60" y="416" type="line"/>
			<point x="60" y="210" type="line" smooth="yes"/>
			<point x="60" y="78"/>
			<point x="155" y="-10"/>
		</contour>
		<contour>
			<point x="301" y="105" type="curve" smooth="yes"/>
			<point x="239" y="105"/>
			<point x="210" y="138"/>
			<point x="210" y="210" type="curve" smooth="yes"/>
			<point x="210" y="316" type="line"/>
			<point x="200" y="306" type="line"/>
			<point x="390" y="306" type="line"/>
			<point x="390" y="210" type="line" smooth="yes"/>
			<point x="390" y="142"/>
			<point x="367" y="105"/>
		</contour>
	</outline>
</glyph>
<glyph name="florin" format="2">
	<advance width="600"/>
	<unicode hex="0192"/>
	<outline>
		<contour>
			<point x="0" y="-180" type="line"/>
			<point x="115" y="-180" type="line" smooth="yes"/>
			<point x="256" y="-180"/>
			<point x="355" y="-96"/>
			<point x="355" y="25" type="curve" smooth="yes"/>
			<point x="355" y="340" type="line"/>
			<point x="560" y="340" type="line"/>
			<point x="560" y="470" type="line"/>
			<point x="355" y="470" type="line"/>
			<point x="355" y="555" type="line" smooth="yes"/>
			<point x="355" y="583"/>
			<point x="373" y="600"/>
			<point x="400" y="600" type="curve" smooth="yes"/>
			<point x="555" y="600" type="line"/>
			<point x="555" y="730" type="line"/>
			<point x="380" y="730" type="line" smooth="yes"/>
			<point x="274" y="730"/>
			<point x="205" y="661"/>
			<point x="205" y="555" type="curve" smooth="yes"/>
			<point x="205" y="470" type="line"/>
			<point x="50" y="470" type="line"/>
			<point x="50" y="340" type="line"/>
			<point x="205" y="340" type="line"/>
			<point x="205" y="41" type="line" smooth="yes"/>
			<point x="205" y="-7"/>
			<point x="176" y="-35"/>
			<point x="125" y="-35" type="curve" smooth="yes"/>
			<point x="0" y="-35" type="line"/>
		</contour>
	</outline>
</glyph>
<glyph name="Ohorn" format="2">
	<advance width="600"/>
	<unicode hex="01A0"/>
	<outline>
		<contour>
			<point x="300" y="-10" type="curve" smooth="yes"/>
			<point x="447" y="-10"/>
			<point x="540" y="78"/>
			<point x="540" y="210" type="curve" smooth="yes"/>
			<point x="540" y="520" type="line" smooth="yes"/>
			<point x="540" y="652"/>
			<point x="447" y="740"/>
			<point x="300" y="740" type="curve" smooth="yes"/>
			<point x="153" y="740"/>
			<point x="60" y="652"/>
			<point x="60" y="520" type="curve" smooth="yes"/>
			<point x="60" y="210" type="line" smooth="yes"/>
			<point x="60" y="78"/>
			<point x="153" y="-10"/>
		</contour>
		<contour>
			<point x="300" y="120" type="curve" smooth="yes"/>
			<point x="240" y="120"/>
			<point x="210" y="152"/>
			<point x="210" y="210" type="curve" smooth="yes"/>
			<point x="210" y="520" type="line" smooth="yes"/>
			<point x="210" y="578"/>
			<point x="239" y="610"/>
			<point x="300" y="610" type="curve" smooth="yes"/>
			<point x="361" y="610"/>
			<point x="390" y="578"/>
			<point x="390" y="520" type="curve" smooth="yes"/>
			<point x="390" y="210" type="line" smooth="yes"/>
			<point x="390" y="152"/>
			<point x="360" y="120"/>
		</contour>
		<contour>
			<point x="410" y="590" type="line"/>
			<point x="445" y="590" type="line" smooth="yes"/>
			<point x="535" y="590"/>
			<point x="595" y="648"/>
			<point x="595" y="735" type="curve" smooth="yes"/>
			<point x="595" y="840" type="line"/>
			<point x="475" y="840" type="line"/>
			<point x="475" y="729" type="line" smooth="yes"/>
			<point x="475" y="706"/>
			<point x="460" y="690"/>
			<point x="438" y="690" type="curve" smooth="yes"/>
			<point x="410" y="690" type="line"/>
		</contour>
	</outline>
</glyph>
<glyph name="uni0237" format="2">
	<advance width="600"/>
	<unicode hex="0237"/>
	<outline>
		<contour>
			<point x="80" y="-180" type="line"/>
			<point x="251" y="-180" type="line" smooth="yes"/>
			<point x="389" y="-180"/>
			<point x="475" y="-96"/>
			<point x="475" y="40" type="curve" smooth="yes"/>
			<point x="475" y="550" type="line"/>
			<point x="110" y="550" type="line"/>
			<point x="110" y="410" type="line"/>
			<point x="325" y="410" type="line"/>
			<point x="325" y="45" type="line" smooth="yes"/>
			<point x="325" y="-9"/>
			<point x="294" y="-40"/>
			<point x="240" y="-40" type="curve" smooth="yes"/>
			<point x="80" y="-40" type="line"/>
		</contour>
	</outline>
</glyph>
<glyph name="uni0259" format="2">
	<advance width="600"/>
	<unicode hex="0259"/>
	<outline>
		<contour>
			<point x="299" y="-10" type="curve" smooth="yes"/>
			<point x="446" y="-10"/>
			<point x="540" y="78"/>
			<point x="540" y="210" type="curve" smooth="yes"/>
			<point x="540" y="340" type="line" smooth="yes"/>
			<point x="540" y="472"/>
			<point x="446" y="560"/>
			<point x="299" y="560" type="curve" smooth="yes"/>
			<point x="180" y="560"/>
			<point x="89" y="496"/>
			<point x="65" y="400" type="curve"/>
			<point x="212" y="400" type="line"/>
			<point x="221" y="428"/>
			<point x="250" y="445"/>
			<point x="297" y="445" type="curve" smooth="yes"/>
			<point x="364" y="445"/>
			<point x="397" y="409"/>
			<point x="397" y="340" type="curve" smooth="yes"/>
			<point x="397" y="310" type="line"/>
			<point x="60" y="310" type="line"/>
			<point x="60" y="210" type="line" smooth="yes"/>
			<point x="60" y="78"/>
			<point x="153" y="-10"/>
		</contour>
		<contour>
			<point x="299" y="105" type="curve" smooth="yes"/>
			<point x="234" y="105"/>
			<point x="203" y="142"/>
			<point x="203" y="210" type="curve" smooth="yes"/>
			<point x="203" y="235" type="line"/>
			<point x="193" y="225" type="line"/>
			<point x="397" y="225" type="line"/>
			<point x="397" y="210" type="line" smooth="yes"/>
			<point x="397" y="142"/>
			<point x="365" y="105"/>
		</contour>
	</outline>
</glyph>
<glyph name="uni02B9" format="2">
	<advance width="600"/>
	<unicode hex="02B9"/>
	<outline>
		<contour>
			<point x="140" y="409" type="line"/>
			<point x="270" y="409" type="line"/>
			<point x="400" y="720" type="line"/>
			<point x="220" y="720" type="line"/>
		</contour>
	</outline>
</glyph>
<glyph name="uni02BA" format="2">
	<advance width="600"/>
	<unicode hex="02BA"/>
	<outline>
		<contour>
			<point x="315" y="409" type="line"/>
			<point x="445" y="409" type="line"/>
			<point x="575" y="720" type="line"/>
			<point x="395" y="720" type="line"/>
		</contour>
		<contour>
			<point x="40" y="409" type="line"/>
			<point x="170" y="409" type="line"/>
			<point x="300" y="720" type="line"/>
			<point x="120" y="720" type="line"/>
		</contour>
	</outline>
</glyph>
<glyph name="uni02BC" format="2">
	<advance width="600"/>
	<unicode hex="02BC"/>
	<outline>
		<contour>
			<point x="140" y="465" type="line"/>
			<point x="270" y="465" type="line"/>
			<point x="400" y="776" type="line"/>
			<point x="220" y="776" type="line"/>
		</contour>
	</outline>
</glyph>
<glyph name="circumflex" format="2">
	<advance width="600"/>
	<unicode hex="02C6"/>
	<note>
		Remove flat connection
	</note>
	<outline>
		<contour>
			<point x="95" y="645" type="line"/>
			<point x="231" y="645" type="line"/>
			<point x="294" y="715" type="line"/>
			<point x="303" y="715" type="line"/>
			<point x="370" y="645" type="line"/>
			<point x="505" y="645" type="line"/>
			<point x="370" y="785" type="line"/>
			<point x="230" y="785" type="line"/>
		</contour>
	</outline>
</glyph>
<glyph name="caron" format="2">
	<advance width="600"/>
	<unicode hex="02C7"/>
	<anchor x="300" y="565" name="_top"/>
	<note>
		Remove flat connection
	</note>
	<outline>
		<contour>
			<point x="230" y="645" type="line"/>
			<point x="370" y="645" type="line"/>
			<point x="505" y="785" type="line"/>
			<point x="370" y="785" type="line"/>
			<point x="303" y="715" type="line"/>
			<point x="294" y="715" type="line"/>
			<point x="231" y="785" type="line"/>
			<point x="95" y="785" type="line"/>
		</contour>
	</outline>
</glyph>
<glyph name="breve" format="2">
	<advance width="600"/>
	<unicode hex="02D8"/>
	<outline>
		<contour>
			<point x="300" y="635" type="curve" smooth="yes"/>
			<point x="411" y="635"/>
			<point x="485" y="695"/>
			<point x="485" y="785" type="curve"/>
			<point x="370" y="785" type="line"/>
			<point x="370" y="748"/>
			<point x="343" y="725"/>
			<point x="300" y="725" type="curve" smooth="yes"/>
			<point x="257" y="725"/>
			<point x="231" y="748"/>
			<point x="231" y="785" type="curve"/>
			<point x="116" y="785" type="line"/>
			<point x="116" y="695"/>
			<point x="190" y="635"/>
		</contour>
	</outline>
</glyph>
<glyph name="dotaccent" format="2">
	<advance width="600"/>
	<unicode hex="02D9"/>
	<outline>
		<contour>
			<point x="275" y="635" type="curve" smooth="yes"/>
			<point x="304" y="635" type="line" smooth="yes"/>
			<point x="348" y="635"/>
			<point x="380" y="664"/>
			<point x="380" y="705" type="curve" smooth="yes"/>
			<point x="380" y="746"/>
			<point x="349" y="775"/>
			<point x="305" y="775" type="curve" smooth="yes"/>
			<point x="275" y="775" type="line" smooth="yes"/>
			<point x="231" y="775"/>
			<point x="200" y="746"/>
			<point x="200" y="705" type="curve" smooth="yes"/>
			<point x="200" y="664"/>
			<point x="231" y="635"/>
		</contour>
	</outline>
</glyph>
<glyph name="ring" format="2">
	<advance width="600"/>
	<unicode hex="02DA"/>
	<outline>
		<contour>
			<point x="300" y="595" type="curve" smooth="yes"/>
			<point x="378" y="595"/>
			<point x="430" y="637"/>
			<point x="430" y="700" type="curve" smooth="yes"/>
			<point x="430" y="763"/>
			<point x="378" y="805"/>
			<point x="300" y="805" type="curve" smooth="yes"/>
			<point x="222" y="805"/>
			<point x="170" y="763"/>
			<point x="170" y="700" type="curve" smooth="yes"/>
			<point x="170" y="637"/>
			<point x="222" y="595"/>
		</contour>
		<contour>
			<point x="299" y="649" type="curve" smooth="yes"/>
			<point x="263" y="649"/>
			<point x="240" y="669"/>
			<point x="240" y="700" type="curve" smooth="yes"/>
			<point x="240" y="731"/>
			<point x="263" y="751"/>
			<point x="299" y="751" type="curve" smooth="yes"/>
			<point x="336" y="751"/>
			<point x="360" y="731"/>
			<point x="360" y="700" type="curve" smooth="yes"/>
			<point x="360" y="669"/>
			<point x="336" y="649"/>
		</contour>
	</outline>
</glyph>
<glyph name="ogonek" format="2">
	<advance width="600"/>
	<unicode hex="02DB"/>
	<outline>
		<contour>
			<point x="296" y="-225" type="curve" smooth="yes"/>
			<point x="404" y="-225" type="line"/>
			<point x="404" y="-120" type="line"/>
			<point x="335" y="-120" type="line" smooth="yes"/>
			<point x="306" y="-120"/>
			<point x="289" y="-103"/>
			<point x="289" y="-83" type="curve" smooth="yes"/>
			<point x="289" y="-66"/>
			<point x="304" y="-42"/>
			<point x="330" y="-18" type="curve" smooth="yes"/>
			<point x="362" y="11" type="line"/>
			<point x="276" y="11" type="line"/>
			<point x="208" y="-19"/>
			<point x="165" y="-68"/>
			<point x="165" y="-115" type="curve" smooth="yes"/>
			<point x="165" y="-180"/>
			<point x="215" y="-225"/>
		</contour>
	</outline>
</glyph>
<glyph name="hookabovecomb" format="2">
	<advance width="0"/>
	<unicode hex="0309"/>
	<outline>
		<contour>
			<point x="-308" y="699" type="curve" smooth="yes"/>
			<point x="-357" y="641" type="line"/>
			<point x="-247" y="641" type="line"/>
			<point x="-212" y="683" type="line" smooth="yes"/>
			<point x="-198" y="700"/>
			<point x="-190" y="722"/>
			<point x="-190" y="744" type="curve" smooth="yes"/>
			<point x="-190" y="796"/>
			<point x="-232" y="830"/>
			<point x="-295" y="830" type="curve" smooth="yes"/>
			<point x="-400" y="830" type="line"/>
			<point x="-400" y="745" type="line"/>
			<point x="-320" y="745" type="line" smooth="yes"/>
			<point x="-301" y="745"/>
			<point x="-293" y="741"/>
			<point x="-293" y="728" type="curve" smooth="yes"/>
			<point x="-293" y="720"/>
			<point x="-297" y="712"/>
		</contour>
	</outline>
</glyph>
<glyph name="uni031B" format="2">
	<advance width="0"/>
	<unicode hex="031B"/>
	<outline>
		<contour>
			<point x="-200" y="450" type="line"/>
			<point x="-160" y="450" type="line" smooth="yes"/>
			<point x="-73" y="450"/>
			<point x="-15" y="504"/>
			<point x="-15" y="585" type="curve" smooth="yes"/>
			<point x="-15" y="660" type="line"/>
			<point x="-135" y="660" type="line"/>
			<point x="-135" y="585" type="line" smooth="yes"/>
			<point x="-135" y="563"/>
			<point x="-148" y="550"/>
			<point x="-170" y="550" type="curve" smooth="yes"/>
			<point x="-200" y="550" type="line"/>
		</contour>
	</outline>
</glyph>
<glyph name="dotbelowcomb" format="2">
	<advance width="0"/>
	<unicode hex="0323"/>
	<outline>
		<contour>
			<point x="-325" y="-220" type="curve" smooth="yes"/>
			<point x="-296" y="-220" type="line" smooth="yes"/>
			<point x="-252" y="-220"/>
			<point x="-220" y="-191"/>
			<point x="-220" y="-151" type="curve" smooth="yes"/>
			<point x="-220" y="-109"/>
			<point x="-251" y="-80"/>
			<point x="-295" y="-80" type="curve" smooth="yes"/>
			<point x="-325" y="-80" type="line" smooth="yes"/>
			<point x="-369" y="-80"/>
			<point x="-400" y="-109"/>
			<point x="-400" y="-150" type="curve" smooth="yes"/>
			<point x="-400" y="-191"/>
			<point x="-369" y="-220"/>
		</contour>
	</outline>
</glyph>
<glyph name="uni0326" format="2">
	<advance width="0"/>
	<unicode hex="0326"/>
	<outline>
		<contour>
			<point x="-425" y="-240" type="line"/>
			<point x="-295" y="-240" type="line"/>
			<point x="-180" y="-95" type="line"/>
			<point x="-330" y="-95" type="line"/>
		</contour>
	</outline>
</glyph>
<glyph name="uni0336" format="2">
	<advance width="0"/>
	<unicode hex="0336"/>
	<outline>
		<contour>
			<point x="-630" y="260" type="line"/>
			<point x="30" y="260" type="line"/>
			<point x="30" y="371" type="line"/>
			<point x="-630" y="371" type="line"/>
		</contour>
	</outline>
</glyph>
<glyph name="uni0338" format="2">
	<advance width="0"/>
	<unicode hex="0338"/>
	<outline>
		<contour>
			<point x="-485" y="-60" type="line"/>
			<point x="-394" y="-60" type="line"/>
			<point x="-115" y="780" type="line"/>
			<point x="-206" y="780" type="line"/>
		</contour>
	</outline>
</glyph>
<glyph name="uni0394" format="2">
	<advance width="600"/>
	<unicode hex="0394"/>
	<outline>
		<contour>
			<point x="25" y="0" type="line"/>
			<point x="177" y="0" type="line"/>
			<point x="274" y="462" type="line" smooth="yes"/>
			<point x="286" y="516"/>
			<point x="298" y="590"/>
			<point x="298" y="590" type="curve"/>
			<point x="298" y="590"/>
			<point x="311" y="516"/>
			<point x="323" y="461" type="curve" smooth="yes"/>
			<point x="421" y="0" type="line"/>
			<point x="575" y="0" type="line"/>
			<point x="394" y="730" type="line"/>
			<point x="204" y="730" type="line"/>
		</contour>
		<contour>
			<point x="160" y="0" type="line"/>
			<point x="450" y="0" type="line"/>
			<point x="450" y="130" type="line"/>
			<point x="160" y="130" type="line"/>
		</contour>
	</outline>
</glyph>
<glyph name="uni03A9" format="2">
	<advance width="600"/>
	<unicode hex="03A9"/>
	<outline>
		<contour>
			<point x="50" y="0" type="line"/>
			<point x="260" y="0" type="line"/>
			<point x="260" y="230" type="line"/>
			<point x="223" y="230"/>
			<point x="198" y="258"/>
			<point x="198" y="300" type="curve" smooth="yes"/>
			<point x="198" y="516" type="line" smooth="yes"/>
			<point x="198" y="573"/>
			<point x="238" y="610"/>
			<point x="300" y="610" type="curve" smooth="yes"/>
			<point x="362" y="610"/>
			<point x="402" y="573"/>
			<point x="402" y="516" type="curve" smooth="yes"/>
			<point x="402" y="300" type="line" smooth="yes"/>
			<point x="402" y="258"/>
			<point x="377" y="230"/>
			<point x="340" y="230" type="curve"/>
			<point x="340" y="0" type="line"/>
			<point x="551" y="0" type="line"/>
			<point x="551" y="140" type="line"/>
			<point x="405" y="140" type="line"/>
			<point x="405" y="146" type="line"/>
			<point x="405" y="146"/>
			<point x="552" y="160"/>
			<point x="552" y="305" type="curve" smooth="yes"/>
			<point x="552" y="516" type="line" smooth="yes"/>
			<point x="552" y="651"/>
			<point x="452" y="740"/>
			<point x="300" y="740" type="curve" smooth="yes"/>
			<point x="148" y="740"/>
			<point x="48" y="651"/>
			<point x="48" y="516" type="curve" smooth="yes"/>
			<point x="48" y="305" type="line" smooth="yes"/>
			<point x="48" y="160"/>
			<point x="195" y="145"/>
			<point x="195" y="145" type="curve"/>
			<point x="195" y="140" type="line"/>
			<point x="50" y="140" type="line"/>
		</contour>
	</outline>
</glyph>
<glyph name="lambda" format="2">
	<advance width="600"/>
	<unicode hex="03BB"/>
	<outline>
		<contour>
			<point x="25" y="0" type="line"/>
			<point x="187" y="0" type="line"/>
			<point x="283" y="297" type="line" smooth="yes"/>
			<point x="297" y="341"/>
			<point x="307" y="403"/>
			<point x="307" y="403" type="curve"/>
			<point x="307" y="403"/>
			<point x="314" y="340"/>
			<point x="327" y="297" type="curve" smooth="yes"/>
			<point x="418" y="0" type="line"/>
			<point x="575" y="0" type="line"/>
			<point x="318" y="730" type="line"/>
			<point x="161" y="730" type="line"/>
			<point x="236" y="545" type="line"/>
		</contour>
	</outline>
</glyph>
<glyph name="uni03BC" format="2">
	<advance width="600"/>
	<unicode hex="03BC"/>
	<outline>
		<contour>
			<point x="64" y="-180" type="line"/>
			<point x="203" y="-180" type="line"/>
			<point x="183" y="-13" type="line" smooth="yes"/>
			<point x="179" y="23"/>
			<point x="157" y="83"/>
			<point x="155" y="83" type="curve"/>
			<point x="164" y="83" type="line"/>
			<point x="164" y="83"/>
			<point x="190" y="-10"/>
			<point x="315" y="-10" type="curve" smooth="yes"/>
			<point x="453" y="-10"/>
			<point x="536" y="75"/>
			<point x="536" y="214" type="curve" smooth="yes"/>
			<point x="536" y="550" type="line"/>
			<point x="386" y="550" type="line"/>
			<point x="386" y="215" type="line" smooth="yes"/>
			<point x="386" y="154"/>
			<point x="356" y="120"/>
			<point x="300" y="120" type="curve" smooth="yes"/>
			<point x="242" y="120"/>
			<point x="214" y="154"/>
			<point x="214" y="215" type="curve" smooth="yes"/>
			<point x="214" y="550" type="line"/>
			<point x="64" y="550" type="line"/>
		</contour>
	</outline>
</glyph>
<glyph name="pi" format="2">
	<advance width="600"/>
	<unicode hex="03C0"/>
	<outline>
		<contour>
			<point x="550" y="-5" type="curve" smooth="yes"/>
			<point x="590" y="-5" type="line"/>
			<point x="590" y="130" type="line"/>
			<point x="560" y="130" type="line" smooth="yes"/>
			<point x="524" y="130"/>
			<point x="500" y="158"/>
			<point x="500" y="200" type="curve" smooth="yes"/>
			<point x="500" y="410" type="line"/>
			<point x="575" y="410" type="line"/>
			<point x="575" y="550" type="line"/>
			<point x="9" y="550" type="line"/>
			<point x="9" y="410" type="line"/>
			<point x="79" y="410" type="line"/>
			<point x="79" y="0" type="line"/>
			<point x="224" y="0" type="line"/>
			<point x="224" y="410" type="line"/>
			<point x="355" y="410" type="line"/>
			<point x="355" y="191" type="line" smooth="yes"/>
			<point x="355" y="71"/>
			<point x="430" y="-5"/>
		</contour>
	</outline>
</glyph>
<glyph name="uni0402" format="2">
	<advance width="600"/>
	<unicode hex="0402"/>
	<outline>
		<contour>
			<point x="285" y="-180" type="line"/>
			<point x="335" y="-180" type="line" smooth="yes"/>
			<point x="476" y="-180"/>
			<point x="575" y="-96"/>
			<point x="575" y="25" type="curve" smooth="yes"/>
			<point x="574" y="290" type="line" smooth="yes"/>
			<point x="574" y="414"/>
			<point x="506" y="495"/>
			<point x="402" y="495" type="curve" smooth="yes"/>
			<point x="350" y="495"/>
			<point x="305" y="475"/>
			<point x="264" y="434" type="curve" smooth="yes"/>
			<point x="250" y="420" type="line"/>
			<point x="250" y="590" type="line"/>
			<point x="360" y="590" type="line"/>
			<point x="360" y="730" type="line"/>
			<point x="0" y="730" type="line"/>
			<point x="0" y="590" type="line"/>
			<point x="100" y="590" type="line"/>
			<point x="100" y="0" type="line"/>
			<point x="250" y="0" type="line"/>
			<point x="250" y="290" type="line"/>
			<point x="283" y="323" type="line" smooth="yes"/>
			<point x="312" y="352"/>
			<point x="337" y="365"/>
			<point x="363" y="365" type="curve" smooth="yes"/>
			<point x="403" y="365"/>
			<point x="424" y="337"/>
			<point x="424" y="285" type="curve" smooth="yes"/>
			<point x="425" y="41" type="line" smooth="yes"/>
			<point x="425" y="-7"/>
			<point x="396" y="-35"/>
			<point x="345" y="-35" type="curve" smooth="yes"/>
			<point x="285" y="-35" type="line"/>
		</contour>
	</outline>
</glyph>
<glyph name="uni0409" format="2">
	<advance width="600"/>
	<unicode hex="0409"/>
	<outline>
		<contour>
			<point x="-10" y="-5" type="line"/>
			<point x="20" y="-5" type="line" smooth="yes"/>
			<point x="121" y="-5"/>
			<point x="188" y="79"/>
			<point x="190" y="205" type="curve" smooth="yes"/>
			<point x="195" y="620" type="line"/>
			<point x="275" y="620" type="line"/>
			<point x="275" y="0" type="line"/>
			<point x="400" y="0" type="line" smooth="yes"/>
			<point x="517" y="0"/>
			<point x="590" y="69"/>
			<point x="590" y="185" type="curve" smooth="yes"/>
			<point x="590" y="259" type="line" smooth="yes"/>
			<point x="590" y="376"/>
			<point x="517" y="445"/>
			<point x="400" y="445" type="curve" smooth="yes"/>
			<point x="395" y="445" type="line"/>
			<point x="395" y="730" type="line"/>
			<point x="77" y="730" type="line"/>
			<point x="70" y="205" type="line" smooth="yes"/>
			<point x="69" y="147"/>
			<point x="46" y="110"/>
			<point x="10" y="110" type="curve" smooth="yes"/>
			<point x="-10" y="110" type="line"/>
		</contour>
		<contour>
			<point x="400" y="110" type="curve" smooth="yes"/>
			<point x="395" y="110" type="line"/>
			<point x="395" y="335" type="line"/>
			<point x="400" y="335" type="line" smooth="yes"/>
			<point x="444" y="335"/>
			<point x="470" y="307"/>
			<point x="470" y="257" type="curve" smooth="yes"/>
			<point x="470" y="186" type="line" smooth="yes"/>
			<point x="470" y="137"/>
			<point x="444" y="110"/>
		</contour>
	</outline>
</glyph>
<glyph name="uni040A" format="2">
	<advance width="600"/>
	<unicode hex="040A"/>
	<outline>
		<contour>
			<point x="40" y="0" type="line"/>
			<point x="160" y="0" type="line"/>
			<point x="160" y="345" type="line"/>
			<point x="275" y="345" type="line"/>
			<point x="275" y="0" type="line"/>
			<point x="400" y="0" type="line" smooth="yes"/>
			<point x="518" y="0"/>
			<point x="590" y="70"/>
			<point x="590" y="185" type="curve" smooth="yes"/>
			<point x="590" y="269" type="line" smooth="yes"/>
			<point x="590" y="385"/>
			<point x="518" y="455"/>
			<point x="400" y="455" type="curve" smooth="yes"/>
			<point x="395" y="455" type="line"/>
			<point x="395" y="730" type="line"/>
			<point x="275" y="730" type="line"/>
			<point x="275" y="455" type="line"/>
			<point x="160" y="455" type="line"/>
			<point x="160" y="730" type="line"/>
			<point x="40" y="730" type="line"/>
		</contour>
		<contour>
			<point x="400" y="110" type="curve" smooth="yes"/>
			<point x="395" y="110" type="line"/>
			<point x="395" y="345" type="line"/>
			<point x="400" y="345" type="line" smooth="yes"/>
			<point x="444" y="345"/>
			<point x="470" y="317"/>
			<point x="470" y="267" type="curve" smooth="yes"/>
			<point x="470" y="186" type="line" smooth="yes"/>
			<point x="470" y="138"/>
			<point x="445" y="110"/>
		</contour>
	</outline>
</glyph>
<glyph name="uni040B" format="2">
	<advance width="600"/>
	<unicode hex="040B"/>
	<note>
		Chenck hor metrics.
	</note>
	<outline>
		<contour>
			<point x="100" y="0" type="line"/>
			<point x="250" y="0" type="line"/>
			<point x="250" y="290" type="line"/>
			<point x="283" y="323" type="line" smooth="yes"/>
			<point x="312" y="352"/>
			<point x="337" y="365"/>
			<point x="363" y="365" type="curve" smooth="yes"/>
			<point x="403" y="365"/>
			<point x="424" y="337"/>
			<point x="424" y="285" type="curve" smooth="yes"/>
			<point x="425" y="0" type="line"/>
			<point x="575" y="0" type="line"/>
			<point x="574" y="290" type="line" smooth="yes"/>
			<point x="574" y="414"/>
			<point x="506" y="495"/>
			<point x="402" y="495" type="curve" smooth="yes"/>
			<point x="350" y="495"/>
			<point x="305" y="475"/>
			<point x="264" y="434" type="curve" smooth="yes"/>
			<point x="250" y="420" type="line"/>
			<point x="250" y="590" type="line"/>
			<point x="360" y="590" type="line"/>
			<point x="360" y="730" type="line"/>
			<point x="0" y="730" type="line"/>
			<point x="0" y="590" type="line"/>
			<point x="100" y="590" type="line"/>
		</contour>
	</outline>
</glyph>
<glyph name="uni040F" format="2">
	<advance width="600"/>
	<unicode hex="040F"/>
	<outline>
		<contour>
			<point x="225" y="-125" type="line"/>
			<point x="375" y="-125" type="line"/>
			<point x="375" y="0" type="line"/>
			<point x="534" y="0" type="line"/>
			<point x="534" y="730" type="line"/>
			<point x="384" y="730" type="line"/>
			<point x="384" y="140" type="line"/>
			<point x="216" y="140" type="line"/>
			<point x="216" y="730" type="line"/>
			<point x="66" y="730" type="line"/>
			<point x="66" y="0" type="line"/>
			<point x="225" y="0" type="line"/>
		</contour>
	</outline>
</glyph>
<glyph name="uni0411" format="2">
	<advance width="600"/>
	<unicode hex="0411"/>
	<outline>
		<contour>
			<point x="66" y="0" type="line"/>
			<point x="310" y="0" type="line" smooth="yes"/>
			<point x="460" y="0"/>
			<point x="560" y="89"/>
			<point x="560" y="223" type="curve" smooth="yes"/>
			<point x="560" y="356"/>
			<point x="460" y="444"/>
			<point x="309" y="444" type="curve" smooth="yes"/>
			<point x="211" y="444" type="line"/>
			<point x="211" y="590" type="line"/>
			<point x="528" y="590" type="line"/>
			<point x="528" y="730" type="line"/>
			<point x="66" y="730" type="line"/>
		</contour>
		<contour>
			<point x="310" y="125" type="curve" smooth="yes"/>
			<point x="211" y="125" type="line"/>
			<point x="211" y="319" type="line"/>
			<point x="310" y="319" type="line" smooth="yes"/>
			<point x="371" y="319"/>
			<point x="410" y="281"/>
			<point x="410" y="221" type="curve" smooth="yes"/>
			<point x="410" y="162"/>
			<point x="371" y="125"/>
		</contour>
	</outline>
</glyph>
<glyph name="uni0414" format="2">
	<advance width="600"/>
	<unicode hex="0414"/>
	<outline>
		<contour>
			<point x="22" y="-140" type="line"/>
			<point x="162" y="-140" type="line"/>
			<point x="162" y="0" type="line"/>
			<point x="438" y="0" type="line"/>
			<point x="438" y="-140" type="line"/>
			<point x="578" y="-140" type="line"/>
			<point x="578" y="128" type="line"/>
			<point x="518" y="128" type="line"/>
			<point x="518" y="730" type="line"/>
			<point x="113" y="730" type="line"/>
			<point x="107" y="340" type="line" smooth="yes"/>
			<point x="105" y="209"/>
			<point x="53" y="128"/>
			<point x="53" y="128" type="curve"/>
			<point x="22" y="128" type="line"/>
		</contour>
		<contour>
			<point x="200" y="128" type="line"/>
			<point x="200" y="128"/>
			<point x="245" y="214"/>
			<point x="247" y="341" type="curve" smooth="yes"/>
			<point x="251" y="602" type="line"/>
			<point x="378" y="602" type="line"/>
			<point x="378" y="128" type="line"/>
		</contour>
	</outline>
</glyph>
<glyph name="uni0416" format="2">
	<advance width="600"/>
	<unicode hex="0416"/>
	<outline>
		<contour>
			<point x="10" y="0" type="line"/>
			<point x="131" y="0" type="line"/>
			<point x="213" y="343" type="line"/>
			<point x="247" y="343" type="line"/>
			<point x="252" y="0" type="line"/>
			<point x="354" y="0" type="line"/>
			<point x="349" y="343" type="line"/>
			<point x="384" y="343" type="line"/>
			<point x="470" y="0" type="line"/>
			<point x="590" y="0" type="line"/>
			<point x="492" y="372" type="line"/>
			<point x="580" y="730" type="line"/>
			<point x="462" y="730" type="line"/>
			<point x="382" y="397" type="line"/>
			<point x="349" y="397" type="line"/>
			<point x="349" y="730" type="line"/>
			<point x="247" y="730" type="line"/>
			<point x="247" y="397" type="line"/>
			<point x="215" y="397" type="line"/>
			<point x="137" y="730" type="line"/>
			<point x="16" y="730" type="line"/>
			<point x="104" y="369" type="line"/>
		</contour>
	</outline>
</glyph>
<glyph name="uni0417" format="2">
	<advance width="600"/>
	<unicode hex="0417"/>
	<outline>
		<contour>
			<point x="300" y="-10" type="curve" smooth="yes"/>
			<point x="458" y="-10"/>
			<point x="560" y="79"/>
			<point x="560" y="214" type="curve" smooth="yes"/>
			<point x="560" y="326"/>
			<point x="476" y="402"/>
			<point x="350" y="400" type="curve"/>
			<point x="350" y="385" type="line"/>
			<point x="473" y="385"/>
			<point x="547" y="458"/>
			<point x="547" y="564" type="curve" smooth="yes"/>
			<point x="547" y="673"/>
			<point x="453" y="740"/>
			<point x="306" y="740" type="curve" smooth="yes"/>
			<point x="159" y="740"/>
			<point x="58" y="660"/>
			<point x="46" y="535" type="curve"/>
			<point x="196" y="535" type="line"/>
			<point x="205" y="582"/>
			<point x="245" y="610"/>
			<point x="300" y="610" type="curve" smooth="yes"/>
			<point x="365" y="610"/>
			<point x="406" y="581"/>
			<point x="406" y="530" type="curve" smooth="yes"/>
			<point x="406" y="480"/>
			<point x="366" y="440"/>
			<point x="300" y="440" type="curve" smooth="yes"/>
			<point x="195" y="440" type="line"/>
			<point x="195" y="305" type="line"/>
			<point x="300" y="305" type="line" smooth="yes"/>
			<point x="369" y="305"/>
			<point x="410" y="269"/>
			<point x="410" y="213" type="curve" smooth="yes"/>
			<point x="410" y="160"/>
			<point x="365" y="120"/>
			<point x="300" y="120" type="curve" smooth="yes"/>
			<point x="237" y="120"/>
			<point x="195" y="148"/>
			<point x="190" y="195" type="curve"/>
			<point x="40" y="195" type="line"/>
			<point x="47" y="69"/>
			<point x="148" y="-10"/>
		</contour>
	</outline>
</glyph>
<glyph name="uni0418" format="2">
	<advance width="600"/>
	<unicode hex="0418"/>
	<outline>
		<contour>
			<point x="60" y="0" type="line"/>
			<point x="235" y="0" type="line"/>
			<point x="424" y="565" type="line"/>
			<point x="424" y="565"/>
			<point x="408" y="395"/>
			<point x="408" y="300" type="curve" smooth="yes"/>
			<point x="408" y="0" type="line"/>
			<point x="540" y="0" type="line"/>
			<point x="540" y="730" type="line"/>
			<point x="365" y="730" type="line"/>
			<point x="178" y="165" type="line"/>
			<point x="178" y="165"/>
			<point x="192" y="315"/>
			<point x="192" y="410" type="curve" smooth="yes"/>
			<point x="192" y="730" type="line"/>
			<point x="60" y="730" type="line"/>
		</contour>
	</outline>
</glyph>
<glyph name="uni041B" format="2">
	<advance width="600"/>
	<unicode hex="041B"/>
	<outline>
		<contour>
			<point x="15" y="-5" type="line"/>
			<point x="55" y="-5" type="line" smooth="yes"/>
			<point x="175" y="-5"/>
			<point x="253" y="86"/>
			<point x="255" y="230" type="curve" smooth="yes"/>
			<point x="259" y="590" type="line"/>
			<point x="384" y="590" type="line"/>
			<point x="384" y="0" type="line"/>
			<point x="534" y="0" type="line"/>
			<point x="534" y="730" type="line"/>
			<point x="112" y="730" type="line"/>
			<point x="106" y="230" type="line" smooth="yes"/>
			<point x="105" y="171"/>
			<point x="80" y="130"/>
			<point x="45" y="130" type="curve" smooth="yes"/>
			<point x="15" y="130" type="line"/>
		</contour>
	</outline>
</glyph>
<glyph name="uni041F" format="2">
	<advance width="600"/>
	<unicode hex="041F"/>
	<outline>
		<contour>
			<point x="66" y="0" type="line"/>
			<point x="216" y="0" type="line"/>
			<point x="216" y="590" type="line"/>
			<point x="384" y="590" type="line"/>
			<point x="384" y="0" type="line"/>
			<point x="534" y="0" type="line"/>
			<point x="534" y="730" type="line"/>
			<point x="66" y="730" type="line"/>
		</contour>
	</outline>
</glyph>
<glyph name="uni0423" format="2">
	<advance width="600"/>
	<unicode hex="0423"/>
	<outline>
		<contour>
			<point x="161" y="0" type="line"/>
			<point x="318" y="0" type="line"/>
			<point x="575" y="730" type="line"/>
			<point x="418" y="730" type="line"/>
			<point x="327" y="433" type="line" smooth="yes"/>
			<point x="314" y="390"/>
			<point x="307" y="327"/>
			<point x="307" y="327" type="curve"/>
			<point x="307" y="327"/>
			<point x="297" y="389"/>
			<point x="283" y="433" type="curve" smooth="yes"/>
			<point x="187" y="730" type="line"/>
			<point x="25" y="730" type="line"/>
			<point x="236" y="185" type="line"/>
		</contour>
	</outline>
</glyph>
<glyph name="uni0424" format="2">
	<advance width="600"/>
	<unicode hex="0424"/>
	<outline>
		<contour>
			<point x="240" y="45" type="curve"/>
			<point x="240" y="-25" type="line"/>
			<point x="360" y="-25" type="line"/>
			<point x="360" y="45" type="line"/>
			<point x="485" y="45"/>
			<point x="570" y="133"/>
			<point x="570" y="264" type="curve" smooth="yes"/>
			<point x="570" y="481" type="line" smooth="yes"/>
			<point x="570" y="612"/>
			<point x="485" y="700"/>
			<point x="360" y="700" type="curve"/>
			<point x="360" y="770" type="line"/>
			<point x="240" y="770" type="line"/>
			<point x="240" y="700" type="line"/>
			<point x="115" y="700"/>
			<point x="30" y="612"/>
			<point x="30" y="481" type="curve" smooth="yes"/>
			<point x="30" y="264" type="line" smooth="yes"/>
			<point x="30" y="133"/>
			<point x="115" y="45"/>
		</contour>
		<contour>
			<point x="246" y="585" type="curve"/>
			<point x="246" y="161" type="line"/>
			<point x="193" y="161"/>
			<point x="157" y="202"/>
			<point x="157" y="264" type="curve" smooth="yes"/>
			<point x="157" y="481" type="line" smooth="yes"/>
			<point x="157" y="543"/>
			<point x="193" y="585"/>
		</contour>
		<contour>
			<point x="354" y="161" type="curve"/>
			<point x="354" y="585" type="line"/>
			<point x="407" y="585"/>
			<point x="443" y="543"/>
			<point x="443" y="481" type="curve" smooth="yes"/>
			<point x="443" y="264" type="line" smooth="yes"/>
			<point x="443" y="202"/>
			<point x="407" y="161"/>
		</contour>
	</outline>
</glyph>
<glyph name="uni0426" format="2">
	<advance width="600"/>
	<unicode hex="0426"/>
	<outline>
		<contour>
			<point x="438" y="-140" type="line"/>
			<point x="578" y="-140" type="line"/>
			<point x="578" y="140" type="line"/>
			<point x="503" y="140" type="line"/>
			<point x="503" y="730" type="line"/>
			<point x="353" y="730" type="line"/>
			<point x="353" y="140" type="line"/>
			<point x="216" y="140" type="line"/>
			<point x="216" y="730" type="line"/>
			<point x="66" y="730" type="line"/>
			<point x="66" y="0" type="line"/>
			<point x="438" y="0" type="line"/>
		</contour>
	</outline>
</glyph>
<glyph name="uni0427" format="2">
	<advance width="600"/>
	<unicode hex="0427"/>
	<outline>
		<contour>
			<point x="380" y="275" type="curve"/>
			<point x="380" y="0" type="line"/>
			<point x="530" y="0" type="line"/>
			<point x="530" y="730" type="line"/>
			<point x="380" y="730" type="line"/>
			<point x="380" y="410" type="line"/>
			<point x="380" y="410"/>
			<point x="354" y="400"/>
			<point x="305" y="400" type="curve" smooth="yes"/>
			<point x="241" y="400"/>
			<point x="200" y="435"/>
			<point x="200" y="490" type="curve" smooth="yes"/>
			<point x="200" y="730" type="line"/>
			<point x="50" y="730" type="line"/>
			<point x="50" y="481" type="line" smooth="yes"/>
			<point x="50" y="349"/>
			<point x="135" y="265"/>
			<point x="270" y="265" type="curve" smooth="yes"/>
			<point x="343" y="265"/>
			<point x="380" y="275"/>
		</contour>
	</outline>
</glyph>
<glyph name="uni0429" format="2">
	<advance width="600"/>
	<unicode hex="0429"/>
	<outline>
		<contour>
			<point x="457" y="-140" type="line"/>
			<point x="587" y="-140" type="line"/>
			<point x="587" y="100" type="line"/>
			<point x="522" y="100" type="line"/>
			<point x="522" y="730" type="line"/>
			<point x="409" y="730" type="line"/>
			<point x="409" y="100" type="line"/>
			<point x="330" y="100" type="line"/>
			<point x="330" y="730" type="line"/>
			<point x="231" y="730" type="line"/>
			<point x="231" y="100" type="line"/>
			<point x="152" y="100" type="line"/>
			<point x="152" y="730" type="line"/>
			<point x="39" y="730" type="line"/>
			<point x="39" y="0" type="line"/>
			<point x="457" y="0" type="line"/>
		</contour>
	</outline>
</glyph>
<glyph name="uni042A" format="2">
	<advance width="600"/>
	<unicode hex="042A"/>
	<outline>
		<contour>
			<point x="110" y="0" type="line"/>
			<point x="310" y="0" type="line" smooth="yes"/>
			<point x="468" y="0"/>
			<point x="570" y="88"/>
			<point x="570" y="223" type="curve" smooth="yes"/>
			<point x="570" y="358"/>
			<point x="468" y="445"/>
			<point x="310" y="445" type="curve" smooth="yes"/>
			<point x="260" y="445" type="line"/>
			<point x="260" y="730" type="line"/>
			<point x="-5" y="730" type="line"/>
			<point x="-5" y="610" type="line"/>
			<point x="110" y="610" type="line"/>
		</contour>
		<contour>
			<point x="310" y="130" type="curve" smooth="yes"/>
			<point x="260" y="130" type="line"/>
			<point x="260" y="315" type="line"/>
			<point x="310" y="315" type="line" smooth="yes"/>
			<point x="377" y="315"/>
			<point x="420" y="279"/>
			<point x="420" y="222" type="curve" smooth="yes"/>
			<point x="420" y="166"/>
			<point x="377" y="130"/>
		</contour>
	</outline>
</glyph>
<glyph name="uni042B" format="2">
	<advance width="600"/>
	<unicode hex="042B"/>
	<outline>
		<contour>
			<point x="40" y="0" type="line"/>
			<point x="190" y="0" type="line" smooth="yes"/>
			<point x="308" y="0"/>
			<point x="380" y="72"/>
			<point x="380" y="190" type="curve" smooth="yes"/>
			<point x="380" y="254" type="line" smooth="yes"/>
			<point x="380" y="372"/>
			<point x="308" y="445"/>
			<point x="190" y="445" type="curve" smooth="yes"/>
			<point x="165" y="445" type="line"/>
			<point x="165" y="730" type="line"/>
			<point x="40" y="730" type="line"/>
		</contour>
		<contour>
			<point x="190" y="115" type="curve" smooth="yes"/>
			<point x="165" y="115" type="line"/>
			<point x="165" y="330" type="line"/>
			<point x="190" y="330" type="line" smooth="yes"/>
			<point x="234" y="330"/>
			<point x="260" y="302"/>
			<point x="260" y="252" type="curve" smooth="yes"/>
			<point x="260" y="191" type="line" smooth="yes"/>
			<point x="260" y="142"/>
			<point x="234" y="115"/>
		</contour>
		<contour>
			<point x="435" y="0" type="line"/>
			<point x="560" y="0" type="line"/>
			<point x="560" y="730" type="line"/>
			<point x="435" y="730" type="line"/>
		</contour>
	</outline>
</glyph>
<glyph name="uni042C" format="2">
	<advance width="600"/>
	<unicode hex="042C"/>
	<outline>
		<contour>
			<point x="66" y="0" type="line"/>
			<point x="310" y="0" type="line" smooth="yes"/>
			<point x="468" y="0"/>
			<point x="570" y="88"/>
			<point x="570" y="223" type="curve" smooth="yes"/>
			<point x="570" y="358"/>
			<point x="468" y="445"/>
			<point x="310" y="445" type="curve" smooth="yes"/>
			<point x="216" y="445" type="line"/>
			<point x="216" y="730" type="line"/>
			<point x="66" y="730" type="line"/>
		</contour>
		<contour>
			<point x="310" y="130" type="curve" smooth="yes"/>
			<point x="216" y="130" type="line"/>
			<point x="216" y="315" type="line"/>
			<point x="310" y="315" type="line" smooth="yes"/>
			<point x="377" y="315"/>
			<point x="420" y="279"/>
			<point x="420" y="222" type="curve" smooth="yes"/>
			<point x="420" y="166"/>
			<point x="377" y="130"/>
		</contour>
	</outline>
</glyph>
<glyph name="uni042D" format="2">
	<advance width="600"/>
	<unicode hex="042D"/>
	<outline>
		<contour>
			<point x="296" y="-10" type="curve" smooth="yes"/>
			<point x="443" y="-10"/>
			<point x="540" y="78"/>
			<point x="540" y="210" type="curve" smooth="yes"/>
			<point x="540" y="520" type="line" smooth="yes"/>
			<point x="540" y="653"/>
			<point x="443" y="740"/>
			<point x="296" y="740" type="curve" smooth="yes"/>
			<point x="149" y="740"/>
			<point x="52" y="653"/>
			<point x="52" y="520" type="curve"/>
			<point x="202" y="520" type="line"/>
			<point x="202" y="578"/>
			<point x="236" y="610"/>
			<point x="296" y="610" type="curve" smooth="yes"/>
			<point x="356" y="610"/>
			<point x="390" y="578"/>
			<point x="390" y="520" type="curve" smooth="yes"/>
			<point x="390" y="210" type="line" smooth="yes"/>
			<point x="390" y="152"/>
			<point x="356" y="120"/>
			<point x="296" y="120" type="curve" smooth="yes"/>
			<point x="236" y="120"/>
			<point x="202" y="152"/>
			<point x="202" y="210" type="curve"/>
			<point x="52" y="210" type="line"/>
			<point x="52" y="77"/>
			<point x="149" y="-10"/>
		</contour>
		<contour>
			<point x="185" y="300" type="line"/>
			<point x="412" y="300" type="line"/>
			<point x="412" y="435" type="line"/>
			<point x="185" y="435" type="line"/>
		</contour>
	</outline>
</glyph>
<glyph name="uni042E" format="2">
	<advance width="600"/>
	<unicode hex="042E"/>
	<outline>
		<contour>
			<point x="392" y="-10" type="curve" smooth="yes"/>
			<point x="501" y="-10"/>
			<point x="570" y="60"/>
			<point x="570" y="170" type="curve" smooth="yes"/>
			<point x="570" y="561" type="line" smooth="yes"/>
			<point x="570" y="671"/>
			<point x="501" y="740"/>
			<point x="392" y="740" type="curve" smooth="yes"/>
			<point x="296" y="740"/>
			<point x="234" y="670"/>
			<point x="234" y="561" type="curve" smooth="yes"/>
			<point x="234" y="427" type="line"/>
			<point x="163" y="427" type="line"/>
			<point x="163" y="730" type="line"/>
			<point x="40" y="730" type="line"/>
			<point x="40" y="0" type="line"/>
			<point x="163" y="0" type="line"/>
			<point x="163" y="322" type="line"/>
			<point x="234" y="322" type="line"/>
			<point x="234" y="170" type="line" smooth="yes"/>
			<point x="234" y="60"/>
			<point x="296" y="-10"/>
		</contour>
		<contour>
			<point x="392" y="100" type="curve" smooth="yes"/>
			<point x="359" y="100"/>
			<point x="338" y="123"/>
			<point x="338" y="160" type="curve" smooth="yes"/>
			<point x="338" y="571" type="line" smooth="yes"/>
			<point x="338" y="607"/>
			<point x="359" y="630"/>
			<point x="392" y="630" type="curve" smooth="yes"/>
			<point x="425" y="630"/>
			<point x="447" y="607"/>
			<point x="447" y="571" type="curve" smooth="yes"/>
			<point x="447" y="160" type="line" smooth="yes"/>
			<point x="447" y="123"/>
			<point x="426" y="100"/>
		</contour>
	</outline>
</glyph>
<glyph name="uni042F" format="2">
	<advance width="600"/>
	<unicode hex="042F"/>
	<outline>
		<contour>
			<point x="172" y="300" type="curve"/>
			<point x="37" y="0" type="line"/>
			<point x="198" y="0" type="line"/>
			<point x="315" y="276" type="line"/>
			<point x="385" y="276" type="line"/>
			<point x="385" y="0" type="line"/>
			<point x="534" y="0" type="line"/>
			<point x="534" y="730" type="line"/>
			<point x="300" y="730" type="line" smooth="yes"/>
			<point x="145" y="730"/>
			<point x="45" y="644"/>
			<point x="45" y="508" type="curve" smooth="yes"/>
			<point x="45" y="413"/>
			<point x="94" y="332"/>
		</contour>
		<contour>
			<point x="300" y="406" type="line"/>
			<point x="234" y="406"/>
			<point x="195" y="441"/>
			<point x="195" y="501" type="curve" smooth="yes"/>
			<point x="195" y="563"/>
			<point x="234" y="600"/>
			<point x="300" y="600" type="curve" smooth="yes"/>
			<point x="385" y="600" type="line"/>
			<point x="385" y="406" type="line"/>
		</contour>
	</outline>
</glyph>
<glyph name="uni0431" format="2">
	<advance width="600"/>
	<unicode hex="0431"/>
	<outline>
		<contour>
			<point x="300" y="-10" type="curve" smooth="yes"/>
			<point x="447" y="-13"/>
			<point x="540" y="75"/>
			<point x="540" y="210" type="curve" smooth="yes"/>
			<point x="540" y="279" type="line" smooth="yes"/>
			<point x="540" y="414"/>
			<point x="472" y="494"/>
			<point x="356" y="494" type="curve" smooth="yes"/>
			<point x="262" y="494"/>
			<point x="211" y="446"/>
			<point x="212" y="371" type="curve"/>
			<point x="224" y="385" type="line"/>
			<point x="210" y="385" type="line"/>
			<point x="210" y="455" type="line" smooth="yes"/>
			<point x="210" y="540"/>
			<point x="257" y="585"/>
			<point x="345" y="585" type="curve" smooth="yes"/>
			<point x="510" y="585" type="line"/>
			<point x="510" y="730" type="line"/>
			<point x="345" y="730" type="line" smooth="yes"/>
			<point x="162" y="730"/>
			<point x="60" y="631"/>
			<point x="60" y="455" type="curve" smooth="yes"/>
			<point x="60" y="210" type="line" smooth="yes"/>
			<point x="60" y="75"/>
			<point x="153" y="-7"/>
		</contour>
		<contour>
			<point x="300" y="120" type="curve" smooth="yes"/>
			<point x="242" y="120"/>
			<point x="210" y="152"/>
			<point x="210" y="210" type="curve" smooth="yes"/>
			<point x="210" y="279" type="line" smooth="yes"/>
			<point x="210" y="337"/>
			<point x="242" y="369"/>
			<point x="300" y="369" type="curve" smooth="yes"/>
			<point x="358" y="369"/>
			<point x="390" y="337"/>
			<point x="390" y="279" type="curve" smooth="yes"/>
			<point x="390" y="210" type="line" smooth="yes"/>
			<point x="390" y="152"/>
			<point x="358" y="120"/>
		</contour>
	</outline>
</glyph>
<glyph name="uni0432" format="2">
	<advance width="600"/>
	<unicode hex="0432"/>
	<outline>
		<contour>
			<point x="65" y="0" type="line"/>
			<point x="327" y="0" type="line" smooth="yes"/>
			<point x="463" y="0"/>
			<point x="548" y="60"/>
			<point x="548" y="157" type="curve" smooth="yes"/>
			<point x="548" y="236"/>
			<point x="478" y="288"/>
			<point x="370" y="288" type="curve"/>
			<point x="370" y="278" type="line"/>
			<point x="469" y="278"/>
			<point x="534" y="326"/>
			<point x="534" y="400" type="curve" smooth="yes"/>
			<point x="534" y="492"/>
			<point x="448" y="550"/>
			<point x="314" y="550" type="curve" smooth="yes"/>
			<point x="65" y="550" type="line"/>
		</contour>
		<contour>
			<point x="320" y="106" type="curve" smooth="yes"/>
			<point x="212" y="106" type="line"/>
			<point x="212" y="235" type="line"/>
			<point x="320" y="235" type="line" smooth="yes"/>
			<point x="369" y="235"/>
			<point x="402" y="209"/>
			<point x="402" y="169" type="curve" smooth="yes"/>
			<point x="402" y="131"/>
			<point x="369" y="106"/>
		</contour>
		<contour>
			<point x="315" y="323" type="curve" smooth="yes"/>
			<point x="212" y="323" type="line"/>
			<point x="212" y="445" type="line"/>
			<point x="315" y="445" type="line" smooth="yes"/>
			<point x="360" y="445"/>
			<point x="389" y="420"/>
			<point x="389" y="383" type="curve" smooth="yes"/>
			<point x="389" y="347"/>
			<point x="360" y="323"/>
		</contour>
	</outline>
</glyph>
<glyph name="uni0433" format="2">
	<advance width="600"/>
	<unicode hex="0433"/>
	<outline>
		<contour>
			<point x="115" y="0" type="line"/>
			<point x="265" y="0" type="line"/>
			<point x="265" y="410" type="line"/>
			<point x="535" y="410" type="line"/>
			<point x="535" y="550" type="line"/>
			<point x="115" y="550" type="line"/>
		</contour>
	</outline>
</glyph>
<glyph name="uni0434" format="2">
	<advance width="600"/>
	<unicode hex="0434"/>
	<outline>
		<contour>
			<point x="22" y="-140" type="line"/>
			<point x="162" y="-140" type="line"/>
			<point x="162" y="0" type="line"/>
			<point x="438" y="0" type="line"/>
			<point x="438" y="-140" type="line"/>
			<point x="578" y="-140" type="line"/>
			<point x="578" y="127" type="line"/>
			<point x="518" y="127" type="line"/>
			<point x="518" y="550" type="line"/>
			<point x="113" y="550" type="line"/>
			<point x="108" y="290" type="line" smooth="yes"/>
			<point x="106" y="179"/>
			<point x="53" y="127"/>
			<point x="53" y="127" type="curve"/>
			<point x="22" y="127" type="line"/>
		</contour>
		<contour>
			<point x="202" y="127" type="line"/>
			<point x="202" y="127"/>
			<point x="246" y="184"/>
			<point x="248" y="291" type="curve" smooth="yes"/>
			<point x="251" y="421" type="line"/>
			<point x="378" y="421" type="line"/>
			<point x="378" y="127" type="line"/>
		</contour>
	</outline>
</glyph>
<glyph name="uni0437" format="2">
	<advance width="600"/>
	<unicode hex="0437"/>
	<outline>
		<contour>
			<point x="272" y="-7" type="curve" smooth="yes"/>
			<point x="329" y="-7" type="line" smooth="yes"/>
			<point x="464" y="-7"/>
			<point x="550" y="57"/>
			<point x="550" y="157" type="curve" smooth="yes"/>
			<point x="550" y="239"/>
			<point x="484" y="294"/>
			<point x="386" y="294" type="curve"/>
			<point x="386" y="284" type="line"/>
			<point x="477" y="284"/>
			<point x="537" y="333"/>
			<point x="537" y="407" type="curve" smooth="yes"/>
			<point x="537" y="499"/>
			<point x="454" y="557"/>
			<point x="323" y="557" type="curve" smooth="yes"/>
			<point x="277" y="557" type="line" smooth="yes"/>
			<point x="154" y="557"/>
			<point x="69" y="493"/>
			<point x="52" y="390" type="curve"/>
			<point x="197" y="390" type="line"/>
			<point x="206" y="421"/>
			<point x="236" y="440"/>
			<point x="277" y="440" type="curve" smooth="yes"/>
			<point x="323" y="440" type="line" smooth="yes"/>
			<point x="365" y="440"/>
			<point x="388" y="422"/>
			<point x="388" y="389" type="curve" smooth="yes"/>
			<point x="388" y="357"/>
			<point x="364" y="338"/>
			<point x="323" y="338" type="curve" smooth="yes"/>
			<point x="200" y="338" type="line"/>
			<point x="200" y="224" type="line"/>
			<point x="329" y="224" type="line" smooth="yes"/>
			<point x="373" y="224"/>
			<point x="400" y="203"/>
			<point x="400" y="168" type="curve" smooth="yes"/>
			<point x="400" y="132"/>
			<point x="373" y="110"/>
			<point x="329" y="110" type="curve" smooth="yes"/>
			<point x="272" y="110" type="line" smooth="yes"/>
			<point x="231" y="110"/>
			<point x="199" y="129"/>
			<point x="190" y="160" type="curve"/>
			<point x="45" y="160" type="line"/>
			<point x="62" y="57"/>
			<point x="149" y="-7"/>
		</contour>
	</outline>
</glyph>
<glyph name="uni0438" format="2">
	<advance width="600"/>
	<unicode hex="0438"/>
	<outline>
		<contour>
			<point x="66" y="0" type="line"/>
			<point x="248" y="0" type="line"/>
			<point x="420" y="435" type="line"/>
			<point x="420" y="435"/>
			<point x="402" y="320"/>
			<point x="402" y="250" type="curve" smooth="yes"/>
			<point x="402" y="0" type="line"/>
			<point x="534" y="0" type="line"/>
			<point x="534" y="550" type="line"/>
			<point x="352" y="550" type="line"/>
			<point x="178" y="95" type="line"/>
			<point x="178" y="95"/>
			<point x="198" y="230"/>
			<point x="198" y="300" type="curve" smooth="yes"/>
			<point x="198" y="550" type="line"/>
			<point x="66" y="550" type="line"/>
		</contour>
	</outline>
</glyph>
<glyph name="uni043A" format="2">
	<advance width="600"/>
	<unicode hex="043A"/>
	<outline>
		<contour>
			<point x="69" y="0" type="line"/>
			<point x="219" y="0" type="line"/>
			<point x="219" y="216" type="line"/>
			<point x="292" y="216" type="line"/>
			<point x="408" y="0" type="line"/>
			<point x="578" y="0" type="line"/>
			<point x="422" y="281" type="line"/>
			<point x="575" y="550" type="line"/>
			<point x="408" y="550" type="line"/>
			<point x="293" y="342" type="line"/>
			<point x="219" y="342" type="line"/>
			<point x="219" y="550" type="line"/>
			<point x="69" y="550" type="line"/>
		</contour>
	</outline>
</glyph>
<glyph name="uni043B" format="2">
	<advance width="600"/>
	<unicode hex="043B"/>
	<outline>
		<contour>
			<point x="21" y="-5" type="line"/>
			<point x="61" y="-5" type="line" smooth="yes"/>
			<point x="179" y="-5"/>
			<point x="259" y="77"/>
			<point x="261" y="200" type="curve" smooth="yes"/>
			<point x="265" y="410" type="line"/>
			<point x="384" y="410" type="line"/>
			<point x="384" y="0" type="line"/>
			<point x="534" y="0" type="line"/>
			<point x="534" y="550" type="line"/>
			<point x="118" y="550" type="line"/>
			<point x="112" y="210" type="line" smooth="yes"/>
			<point x="111" y="162"/>
			<point x="86" y="130"/>
			<point x="51" y="130" type="curve" smooth="yes"/>
			<point x="21" y="130" type="line"/>
		</contour>
	</outline>
</glyph>
<glyph name="uni043C" format="2">
	<advance width="600"/>
	<unicode hex="043C"/>
	<outline>
		<contour>
			<point x="42" y="0" type="line"/>
			<point x="179" y="0" type="line"/>
			<point x="179" y="100" type="line" smooth="yes"/>
			<point x="179" y="230"/>
			<point x="160" y="420"/>
			<point x="160" y="420" type="curve"/>
			<point x="237" y="155" type="line"/>
			<point x="364" y="155" type="line"/>
			<point x="437" y="420" type="line"/>
			<point x="437" y="420"/>
			<point x="421" y="220"/>
			<point x="421" y="100" type="curve" smooth="yes"/>
			<point x="421" y="0" type="line"/>
			<point x="558" y="0" type="line"/>
			<point x="558" y="550" type="line"/>
			<point x="389" y="550" type="line"/>
			<point x="325" y="345" type="line" smooth="yes"/>
			<point x="305" y="280"/>
			<point x="301" y="239"/>
			<point x="301" y="239" type="curve"/>
			<point x="301" y="239"/>
			<point x="297" y="280"/>
			<point x="276" y="345" type="curve" smooth="yes"/>
			<point x="211" y="550" type="line"/>
			<point x="42" y="550" type="line"/>
		</contour>
	</outline>
</glyph>
<glyph name="uni043D" format="2">
	<advance width="600"/>
	<unicode hex="043D"/>
	<outline>
		<contour>
			<point x="66" y="0" type="line"/>
			<point x="216" y="0" type="line"/>
			<point x="216" y="209" type="line"/>
			<point x="384" y="209" type="line"/>
			<point x="384" y="0" type="line"/>
			<point x="534" y="0" type="line"/>
			<point x="534" y="550" type="line"/>
			<point x="384" y="550" type="line"/>
			<point x="384" y="349" type="line"/>
			<point x="216" y="349" type="line"/>
			<point x="216" y="550" type="line"/>
			<point x="66" y="550" type="line"/>
		</contour>
	</outline>
</glyph>
<glyph name="uni043F" format="2">
	<advance width="600"/>
	<unicode hex="043F"/>
	<outline>
		<contour>
			<point x="66" y="0" type="line"/>
			<point x="216" y="0" type="line"/>
			<point x="216" y="410" type="line"/>
			<point x="384" y="410" type="line"/>
			<point x="384" y="0" type="line"/>
			<point x="534" y="0" type="line"/>
			<point x="534" y="550" type="line"/>
			<point x="66" y="550" type="line"/>
		</contour>
	</outline>
</glyph>
<glyph name="uni0442" format="2">
	<advance width="600"/>
	<unicode hex="0442"/>
	<outline>
		<contour>
			<point x="225" y="0" type="line"/>
			<point x="375" y="0" type="line"/>
			<point x="375" y="410" type="line"/>
			<point x="555" y="410" type="line"/>
			<point x="555" y="550" type="line"/>
			<point x="45" y="550" type="line"/>
			<point x="45" y="410" type="line"/>
			<point x="225" y="410" type="line"/>
		</contour>
	</outline>
</glyph>
<glyph name="uni0444" format="2">
	<advance width="600"/>
	<unicode hex="0444"/>
	<outline>
		<contour>
			<point x="239" y="0" type="curve"/>
			<point x="239" y="-180" type="line"/>
			<point x="361" y="-180" type="line"/>
			<point x="361" y="0" type="line"/>
			<point x="487" y="0"/>
			<point x="565" y="79"/>
			<point x="565" y="207" type="curve" smooth="yes"/>
			<point x="565" y="344" type="line" smooth="yes"/>
			<point x="565" y="470"/>
			<point x="488" y="550"/>
			<point x="361" y="550" type="curve"/>
			<point x="361" y="730" type="line"/>
			<point x="239" y="730" type="line"/>
			<point x="239" y="550" type="line"/>
			<point x="113" y="550"/>
			<point x="35" y="471"/>
			<point x="35" y="344" type="curve" smooth="yes"/>
			<point x="35" y="207" type="line" smooth="yes"/>
			<point x="35" y="79"/>
			<point x="112" y="0"/>
		</contour>
		<contour>
			<point x="246" y="433" type="curve"/>
			<point x="246" y="118" type="line"/>
			<point x="194" y="118"/>
			<point x="162" y="151"/>
			<point x="162" y="207" type="curve" smooth="yes"/>
			<point x="162" y="344" type="line" smooth="yes"/>
			<point x="162" y="400"/>
			<point x="194" y="433"/>
		</contour>
		<contour>
			<point x="354" y="118" type="curve"/>
			<point x="354" y="433" type="line"/>
			<point x="406" y="433"/>
			<point x="438" y="400"/>
			<point x="438" y="344" type="curve" smooth="yes"/>
			<point x="438" y="207" type="line" smooth="yes"/>
			<point x="438" y="151"/>
			<point x="406" y="118"/>
		</contour>
	</outline>
</glyph>
<glyph name="uni0446" format="2">
	<advance width="600"/>
	<unicode hex="0446"/>
	<outline>
		<contour>
			<point x="438" y="-140" type="line"/>
			<point x="578" y="-140" type="line"/>
			<point x="578" y="140" type="line"/>
			<point x="503" y="140" type="line"/>
			<point x="503" y="550" type="line"/>
			<point x="353" y="550" type="line"/>
			<point x="353" y="140" type="line"/>
			<point x="216" y="140" type="line"/>
			<point x="216" y="550" type="line"/>
			<point x="66" y="550" type="line"/>
			<point x="66" y="0" type="line"/>
			<point x="438" y="0" type="line"/>
		</contour>
	</outline>
</glyph>
<glyph name="uni0447" format="2">
	<advance width="600"/>
	<unicode hex="0447"/>
	<outline>
		<contour>
			<point x="380" y="175" type="curve"/>
			<point x="380" y="0" type="line"/>
			<point x="530" y="0" type="line"/>
			<point x="530" y="550" type="line"/>
			<point x="380" y="550" type="line"/>
			<point x="380" y="310" type="line"/>
			<point x="380" y="310"/>
			<point x="351" y="300"/>
			<point x="300" y="300" type="curve" smooth="yes"/>
			<point x="238" y="300"/>
			<point x="200" y="330"/>
			<point x="200" y="380" type="curve" smooth="yes"/>
			<point x="200" y="550" type="line"/>
			<point x="50" y="550" type="line"/>
			<point x="50" y="370" type="line" smooth="yes"/>
			<point x="50" y="242"/>
			<point x="139" y="165"/>
			<point x="285" y="165" type="curve" smooth="yes"/>
			<point x="342" y="165"/>
			<point x="380" y="175"/>
		</contour>
	</outline>
</glyph>
<glyph name="uni0448" format="2">
	<advance width="600"/>
	<unicode hex="0448"/>
	<outline>
		<contour>
			<point x="40" y="0" type="line"/>
			<point x="560" y="0" type="line"/>
			<point x="560" y="550" type="line"/>
			<point x="437" y="550" type="line"/>
			<point x="437" y="100" type="line"/>
			<point x="352" y="100" type="line"/>
			<point x="352" y="550" type="line"/>
			<point x="248" y="550" type="line"/>
			<point x="248" y="100" type="line"/>
			<point x="163" y="100" type="line"/>
			<point x="163" y="550" type="line"/>
			<point x="40" y="550" type="line"/>
		</contour>
	</outline>
</glyph>
<glyph name="uni0449" format="2">
	<advance width="600"/>
	<unicode hex="0449"/>
	<outline>
		<contour>
			<point x="457" y="-140" type="line"/>
			<point x="587" y="-140" type="line"/>
			<point x="587" y="100" type="line"/>
			<point x="522" y="100" type="line"/>
			<point x="522" y="550" type="line"/>
			<point x="409" y="550" type="line"/>
			<point x="409" y="100" type="line"/>
			<point x="330" y="100" type="line"/>
			<point x="330" y="550" type="line"/>
			<point x="231" y="550" type="line"/>
			<point x="231" y="100" type="line"/>
			<point x="152" y="100" type="line"/>
			<point x="152" y="550" type="line"/>
			<point x="39" y="550" type="line"/>
			<point x="39" y="0" type="line"/>
			<point x="457" y="0" type="line"/>
		</contour>
	</outline>
</glyph>
<glyph name="uni044A" format="2">
	<advance width="600"/>
	<unicode hex="044A"/>
	<outline>
		<contour>
			<point x="120" y="0" type="line"/>
			<point x="350" y="0" type="line" smooth="yes"/>
			<point x="485" y="0"/>
			<point x="570" y="73"/>
			<point x="570" y="191" type="curve" smooth="yes"/>
			<point x="570" y="312"/>
			<point x="487" y="385"/>
			<point x="349" y="385" type="curve" smooth="yes"/>
			<point x="270" y="385" type="line"/>
			<point x="270" y="550" type="line"/>
			<point x="0" y="550" type="line"/>
			<point x="0" y="410" type="line"/>
			<point x="120" y="410" type="line"/>
		</contour>
		<contour>
			<point x="340" y="130" type="curve" smooth="yes"/>
			<point x="270" y="130" type="line"/>
			<point x="270" y="255" type="line"/>
			<point x="340" y="255" type="line" smooth="yes"/>
			<point x="390" y="255"/>
			<point x="419" y="232"/>
			<point x="419" y="193" type="curve" smooth="yes"/>
			<point x="419" y="153"/>
			<point x="390" y="130"/>
		</contour>
	</outline>
</glyph>
<glyph name="uni044B" format="2">
	<advance width="600"/>
	<unicode hex="044B"/>
	<outline>
		<contour>
			<point x="40" y="0" type="line"/>
			<point x="195" y="0" type="line" smooth="yes"/>
			<point x="312" y="0"/>
			<point x="390" y="73"/>
			<point x="390" y="184" type="curve" smooth="yes"/>
			<point x="390" y="300"/>
			<point x="313" y="375"/>
			<point x="195" y="375" type="curve" smooth="yes"/>
			<point x="165" y="375" type="line"/>
			<point x="165" y="550" type="line"/>
			<point x="40" y="550" type="line"/>
		</contour>
		<contour>
			<point x="195" y="115" type="curve" smooth="yes"/>
			<point x="165" y="115" type="line"/>
			<point x="165" y="260" type="line"/>
			<point x="195" y="260" type="line" smooth="yes"/>
			<point x="243" y="260"/>
			<point x="270" y="233"/>
			<point x="270" y="185" type="curve" smooth="yes"/>
			<point x="270" y="140"/>
			<point x="243" y="115"/>
		</contour>
		<contour>
			<point x="435" y="0" type="line"/>
			<point x="560" y="0" type="line"/>
			<point x="560" y="550" type="line"/>
			<point x="435" y="550" type="line"/>
		</contour>
	</outline>
</glyph>
<glyph name="uni044C" format="2">
	<advance width="600"/>
	<unicode hex="044C"/>
	<outline>
		<contour>
			<point x="70" y="0" type="line"/>
			<point x="350" y="0" type="line" smooth="yes"/>
			<point x="485" y="0"/>
			<point x="570" y="73"/>
			<point x="570" y="191" type="curve" smooth="yes"/>
			<point x="570" y="312"/>
			<point x="487" y="385"/>
			<point x="349" y="385" type="curve" smooth="yes"/>
			<point x="220" y="385" type="line"/>
			<point x="220" y="550" type="line"/>
			<point x="70" y="550" type="line"/>
		</contour>
		<contour>
			<point x="340" y="130" type="curve" smooth="yes"/>
			<point x="220" y="130" type="line"/>
			<point x="220" y="255" type="line"/>
			<point x="340" y="255" type="line" smooth="yes"/>
			<point x="390" y="255"/>
			<point x="419" y="232"/>
			<point x="419" y="193" type="curve" smooth="yes"/>
			<point x="419" y="153"/>
			<point x="390" y="130"/>
		</contour>
	</outline>
</glyph>
<glyph name="uni044D" format="2">
	<advance width="600"/>
	<unicode hex="044D"/>
	<outline>
		<contour>
			<point x="297" y="-10" type="curve" smooth="yes"/>
			<point x="444" y="-10"/>
			<point x="540" y="77"/>
			<point x="540" y="210" type="curve" smooth="yes"/>
			<point x="540" y="340" type="line" smooth="yes"/>
			<point x="540" y="473"/>
			<point x="444" y="560"/>
			<point x="297" y="560" type="curve" smooth="yes"/>
			<point x="152" y="560"/>
			<point x="59" y="482"/>
			<point x="54" y="355" type="curve"/>
			<point x="204" y="355" type="line"/>
			<point x="208" y="402"/>
			<point x="243" y="430"/>
			<point x="297" y="430" type="curve" smooth="yes"/>
			<point x="357" y="430"/>
			<point x="390" y="398"/>
			<point x="390" y="340" type="curve" smooth="yes"/>
			<point x="390" y="210" type="line" smooth="yes"/>
			<point x="390" y="152"/>
			<point x="357" y="120"/>
			<point x="297" y="120" type="curve" smooth="yes"/>
			<point x="242" y="120"/>
			<point x="208" y="147"/>
			<point x="204" y="195" type="curve"/>
			<point x="54" y="195" type="line"/>
			<point x="59" y="68"/>
			<point x="152" y="-10"/>
		</contour>
		<contour>
			<point x="233" y="220" type="line"/>
			<point x="397" y="220" type="line"/>
			<point x="397" y="334" type="line"/>
			<point x="233" y="334" type="line"/>
		</contour>
	</outline>
</glyph>
<glyph name="uni044F" format="2">
	<advance width="600"/>
	<unicode hex="044F"/>
	<outline>
		<contour>
			<point x="170" y="193" type="curve"/>
			<point x="50" y="0" type="line"/>
			<point x="219" y="0" type="line"/>
			<point x="319" y="174" type="line"/>
			<point x="385" y="174" type="line"/>
			<point x="385" y="0" type="line"/>
			<point x="534" y="0" type="line"/>
			<point x="534" y="550" type="line"/>
			<point x="287" y="550" type="line" smooth="yes"/>
			<point x="143" y="550"/>
			<point x="57" y="478"/>
			<point x="57" y="357" type="curve" smooth="yes"/>
			<point x="57" y="279"/>
			<point x="99" y="219"/>
		</contour>
		<contour>
			<point x="296" y="288" type="line"/>
			<point x="239" y="288"/>
			<point x="206" y="314"/>
			<point x="206" y="359" type="curve" smooth="yes"/>
			<point x="206" y="404"/>
			<point x="240" y="431"/>
			<point x="296" y="431" type="curve" smooth="yes"/>
			<point x="386" y="431" type="line"/>
			<point x="386" y="288" type="line"/>
		</contour>
	</outline>
</glyph>
<glyph name="uni0452" format="2">
	<advance width="600"/>
	<unicode hex="0452"/>
	<outline>
		<contour>
			<point x="250" y="-180" type="line"/>
			<point x="312" y="-180" type="line" smooth="yes"/>
			<point x="450" y="-180"/>
			<point x="536" y="-96"/>
			<point x="536" y="40" type="curve" smooth="yes"/>
			<point x="536" y="295" type="line" smooth="yes"/>
			<point x="536" y="419"/>
			<point x="466" y="500"/>
			<point x="359" y="500" type="curve" smooth="yes"/>
			<point x="268" y="500"/>
			<point x="211" y="443"/>
			<point x="211" y="350" type="curve"/>
			<point x="255" y="385" type="line"/>
			<point x="211" y="385" type="line"/>
			<point x="216" y="490" type="line"/>
			<point x="216" y="730" type="line"/>
			<point x="66" y="730" type="line"/>
			<point x="66" y="0" type="line"/>
			<point x="216" y="0" type="line"/>
			<point x="216" y="280" type="line" smooth="yes"/>
			<point x="216" y="337"/>
			<point x="247" y="370"/>
			<point x="300" y="370" type="curve" smooth="yes"/>
			<point x="354" y="370"/>
			<point x="386" y="337"/>
			<point x="386" y="280" type="curve" smooth="yes"/>
			<point x="386" y="45" type="line" smooth="yes"/>
			<point x="386" y="-9"/>
			<point x="355" y="-40"/>
			<point x="301" y="-40" type="curve" smooth="yes"/>
			<point x="250" y="-40" type="line"/>
		</contour>
		<contour>
			<point x="0" y="555" type="line"/>
			<point x="360" y="555" type="line"/>
			<point x="360" y="645" type="line"/>
			<point x="0" y="645" type="line"/>
		</contour>
	</outline>
</glyph>
<glyph name="uni0459" format="2">
	<advance width="600"/>
	<unicode hex="0459"/>
	<outline>
		<contour>
			<point x="-6" y="-5" type="line"/>
			<point x="24" y="-5" type="line" smooth="yes"/>
			<point x="128" y="-5"/>
			<point x="195" y="75"/>
			<point x="197" y="200" type="curve" smooth="yes"/>
			<point x="200" y="440" type="line"/>
			<point x="278" y="440" type="line"/>
			<point x="278" y="0" type="line"/>
			<point x="428" y="0" type="line" smooth="yes"/>
			<point x="528" y="0"/>
			<point x="595" y="59"/>
			<point x="595" y="150" type="curve" smooth="yes"/>
			<point x="595" y="216" type="line" smooth="yes"/>
			<point x="595" y="313"/>
			<point x="527" y="375"/>
			<point x="427" y="375" type="curve" smooth="yes"/>
			<point x="392" y="375" type="line"/>
			<point x="392" y="550" type="line"/>
			<point x="79" y="550" type="line"/>
			<point x="74" y="205" type="line" smooth="yes"/>
			<point x="73" y="145"/>
			<point x="51" y="110"/>
			<point x="14" y="110" type="curve" smooth="yes"/>
			<point x="-6" y="110" type="line"/>
		</contour>
		<contour>
			<point x="427" y="110" type="curve" smooth="yes"/>
			<point x="392" y="110" type="line"/>
			<point x="392" y="264" type="line"/>
			<point x="427" y="264" type="line" smooth="yes"/>
			<point x="454" y="264"/>
			<point x="472" y="245"/>
			<point x="472" y="217" type="curve" smooth="yes"/>
			<point x="472" y="151" type="line" smooth="yes"/>
			<point x="472" y="126"/>
			<point x="454" y="110"/>
		</contour>
	</outline>
</glyph>
<glyph name="uni045A" format="2">
	<advance width="600"/>
	<unicode hex="045A"/>
	<outline>
		<contour>
			<point x="40" y="0" type="line"/>
			<point x="163" y="0" type="line"/>
			<point x="163" y="260" type="line"/>
			<point x="278" y="260" type="line"/>
			<point x="278" y="0" type="line"/>
			<point x="428" y="0" type="line" smooth="yes"/>
			<point x="526" y="0"/>
			<point x="595" y="60"/>
			<point x="595" y="150" type="curve" smooth="yes"/>
			<point x="595" y="211" type="line" smooth="yes"/>
			<point x="595" y="308"/>
			<point x="527" y="370"/>
			<point x="427" y="370" type="curve" smooth="yes"/>
			<point x="392" y="370" type="line"/>
			<point x="392" y="550" type="line"/>
			<point x="278" y="550" type="line"/>
			<point x="278" y="370" type="line"/>
			<point x="163" y="370" type="line"/>
			<point x="163" y="550" type="line"/>
			<point x="40" y="550" type="line"/>
		</contour>
		<contour>
			<point x="427" y="110" type="curve" smooth="yes"/>
			<point x="392" y="110" type="line"/>
			<point x="392" y="260" type="line"/>
			<point x="427" y="260" type="line" smooth="yes"/>
			<point x="454" y="260"/>
			<point x="472" y="241"/>
			<point x="472" y="213" type="curve" smooth="yes"/>
			<point x="472" y="151" type="line" smooth="yes"/>
			<point x="472" y="126"/>
			<point x="454" y="110"/>
		</contour>
	</outline>
</glyph>
<glyph name="uni045B" format="2">
	<advance width="600"/>
	<unicode hex="045B"/>
	<guideline y="-168"/>
	<guideline y="-168"/>
	<outline>
		<contour>
			<point x="66" y="0" type="line"/>
			<point x="216" y="0" type="line"/>
			<point x="216" y="280" type="line" smooth="yes"/>
			<point x="216" y="337"/>
			<point x="247" y="370"/>
			<point x="300" y="370" type="curve" smooth="yes"/>
			<point x="354" y="370"/>
			<point x="386" y="337"/>
			<point x="386" y="280" type="curve" smooth="yes"/>
			<point x="386" y="0" type="line"/>
			<point x="536" y="0" type="line"/>
			<point x="536" y="295" type="line" smooth="yes"/>
			<point x="536" y="419"/>
			<point x="466" y="500"/>
			<point x="359" y="500" type="curve" smooth="yes"/>
			<point x="268" y="500"/>
			<point x="211" y="443"/>
			<point x="211" y="350" type="curve"/>
			<point x="255" y="385" type="line"/>
			<point x="211" y="385" type="line"/>
			<point x="216" y="490" type="line"/>
			<point x="216" y="730" type="line"/>
			<point x="66" y="730" type="line"/>
		</contour>
		<contour>
			<point x="0" y="555" type="line"/>
			<point x="360" y="555" type="line"/>
			<point x="360" y="645" type="line"/>
			<point x="0" y="645" type="line"/>
		</contour>
	</outline>
</glyph>
<glyph name="uni045F" format="2">
	<advance width="600"/>
	<unicode hex="045F"/>
	<outline>
		<contour>
			<point x="225" y="-125" type="line"/>
			<point x="375" y="-125" type="line"/>
			<point x="375" y="0" type="line"/>
			<point x="534" y="0" type="line"/>
			<point x="534" y="550" type="line"/>
			<point x="384" y="550" type="line"/>
			<point x="384" y="140" type="line"/>
			<point x="216" y="140" type="line"/>
			<point x="216" y="550" type="line"/>
			<point x="66" y="550" type="line"/>
			<point x="66" y="0" type="line"/>
			<point x="225" y="0" type="line"/>
		</contour>
	</outline>
</glyph>
<glyph name="uni0490" format="2">
	<advance width="600"/>
	<unicode hex="0490"/>
	<outline>
		<contour>
			<point x="95" y="0" type="line"/>
			<point x="245" y="0" type="line"/>
			<point x="245" y="590" type="line"/>
			<point x="540" y="590" type="line"/>
			<point x="540" y="825" type="line"/>
			<point x="395" y="825" type="line"/>
			<point x="395" y="730" type="line"/>
			<point x="95" y="730" type="line"/>
		</contour>
	</outline>
</glyph>
<glyph name="uni0491" format="2">
	<advance width="600"/>
	<unicode hex="0491"/>
	<outline>
		<contour>
			<point x="115" y="0" type="line"/>
			<point x="265" y="0" type="line"/>
			<point x="265" y="410" type="line"/>
			<point x="535" y="410" type="line"/>
			<point x="535" y="655" type="line"/>
			<point x="390" y="655" type="line"/>
			<point x="390" y="550" type="line"/>
			<point x="115" y="550" type="line"/>
		</contour>
	</outline>
</glyph>
<glyph name="uni04AF" format="2">
	<advance width="600"/>
	<unicode hex="04AF"/>
	<outline>
		<contour>
			<point x="225" y="-180" type="line"/>
			<point x="375" y="-180" type="line"/>
			<point x="375" y="80" type="line"/>
			<point x="585" y="550" type="line"/>
			<point x="429" y="550" type="line"/>
			<point x="340" y="330" type="line" smooth="yes"/>
			<point x="316" y="270"/>
			<point x="303" y="200"/>
			<point x="303" y="200" type="curve"/>
			<point x="303" y="200"/>
			<point x="289" y="270"/>
			<point x="264" y="330" type="curve" smooth="yes"/>
			<point x="172" y="550" type="line"/>
			<point x="15" y="550" type="line"/>
			<point x="225" y="80" type="line"/>
		</contour>
	</outline>
</glyph>
